<?xml version="1.0" encoding="UTF-8"?>
<svg id="Layer_1" xmlns="http://www.w3.org/2000/svg" viewBox="0 0 102 67.1">
  <defs>
    <style>
      .cls-1 {
        fill: #c73659;
      }
    </style>
  </defs>
  <path class="cls-1" d="M22.22,36.46l6.66-2.25.75,2.22-4.22,1.42,1.39,4.1,3.35-1.13.75,2.22-3.35,1.13,1.61,4.77,4.21-1.42.75,2.22-6.66,2.25-5.24-15.53Z"/>
  <path class="cls-1" d="M35.03,40.59l-5.25-6.68,2.57-.87,3.33,4.46h.04s0-5.6,0-5.6l2.31-.78-.12,8.49,5.5,6.99-2.57.87-3.6-4.81h-.04s0,6.04,0,6.04l-2.31.78.14-8.89Z"/>
  <path class="cls-1" d="M39.32,30.68l3.59-1.21c1.21-.41,2.23-.39,3.06.05.83.45,1.45,1.3,1.88,2.55l.52,1.53c.42,1.26.44,2.31.06,3.17s-1.19,1.49-2.4,1.9l-1.15.39,2.13,6.32-2.44.82-5.24-15.53ZM45.27,36.46c.4-.14.66-.35.79-.64.13-.29.1-.7-.08-1.23l-.62-1.84c-.18-.53-.41-.88-.68-1.03-.27-.15-.61-.16-1.01-.03l-1.15.39,1.61,4.77,1.15-.39Z"/>
  <path class="cls-1" d="M47.88,27.79l2.44-.82,5.24,15.53-2.44.82-5.24-15.53Z"/>
  <path class="cls-1" d="M52.14,26.35l3.62-1.22c1.26-.42,2.27-.44,3.05-.05.77.39,1.37,1.19,1.78,2.4l.32.95c.54,1.61.36,2.81-.56,3.6v.04c.67-.02,1.21.2,1.63.66.43.46.8,1.16,1.11,2.07l.92,2.73c.15.44.29.8.41,1.06.12.26.29.51.5.73l-2.49.84c-.17-.22-.31-.44-.42-.65-.1-.21-.25-.61-.45-1.18l-.96-2.84c-.24-.71-.52-1.17-.85-1.37-.32-.2-.77-.21-1.33-.02l-.84.28,2.25,6.66-2.44.82-5.24-15.53ZM57.72,31.89c.49-.17.81-.41.97-.75.16-.33.14-.8-.06-1.39l-.4-1.2c-.19-.56-.43-.94-.71-1.12-.28-.18-.64-.2-1.07-.06l-1.11.37,1.5,4.44.89-.3Z"/>
  <path class="cls-1" d="M61.08,23.33l6.66-2.25.75,2.22-4.21,1.42,1.39,4.1,3.35-1.13.75,2.22-3.35,1.13,1.61,4.77,4.21-1.42.75,2.22-6.66,2.25-5.24-15.53Z"/>
  <path class="cls-1" d="M69.14,20.62l3.73-1.26c1.21-.41,2.23-.39,3.06.05.83.45,1.45,1.3,1.88,2.55l2.65,7.85c.42,1.26.44,2.31.06,3.17-.39.86-1.19,1.49-2.4,1.9l-3.73,1.26-5.24-15.53ZM77.32,32.68c.4-.14.67-.36.8-.67.13-.31.11-.73-.07-1.26l-2.73-8.08c-.18-.53-.42-.88-.71-1.04-.29-.16-.64-.18-1.04-.04l-1.24.42,3.75,11.09,1.24-.42Z"/>
</svg>