<?xml version="1.0" encoding="UTF-8"?>
<svg xmlns="http://www.w3.org/2000/svg" version="1.1" viewBox="0 0 102 67.1">
  <defs>
    <style>
      .cls-1, .cls-2 {
        fill: #c73659;
      }

      .cls-3, .cls-2 {
        isolation: isolate;
      }

      .cls-2 {
        opacity: .1;
      }
    </style>
  </defs>
  <!-- Generator: Adobe Illustrator 28.6.0, SVG Export Plug-In . SVG Version: 1.2.0 Build 709)  -->
  <g>
    <g id="Layer_1">
      <g id="Layer_1-3">
        <g id="Layer_1-2">
          <g id="Auction_Icon">
            <g id="Group_885">
              <path id="Path_907" class="cls-2" d="M55.1,28.4c25.8,0,42.5-33.7,42.5-7.9s-20.9,46.7-46.7,46.7S4.2,46.3,4.2,20.5s25,7.9,50.8,7.9h0Z"/>
              <ellipse id="Ellipse_179" class="cls-2" cx="36.5" cy="5" rx="5.5" ry="5"/>
              <circle id="Ellipse_182" class="cls-2" cx="70.5" cy="8.5" r="1.5"/>
              <ellipse id="Ellipse_183" class="cls-2" cx="27.5" cy="12" rx="1.5" ry="2"/>
              <ellipse id="Ellipse_181" class="cls-2" cx="96.5" cy="61" rx="5.5" ry="5"/>
              <ellipse id="Ellipse_180" class="cls-2" cx="5.5" cy="62" rx="5.5" ry="5"/>
            </g>
          </g>
        </g>
      </g>
      <g>
        <path class="cls-1" d="M42,54.1c-.2,0-.4-.1-.6-.2-1.5-.6-2.3-2.3-1.8-3.8,0-.2.1-.3.2-.5-1.8-1.3-2.2-2.7-1.3-4.6-.9-.7-1.4-1.7-1.3-2.8.1-1.2.8-2,1.8-2.5-.3-.7-.4-1.4-.2-2.2.3-1.4,1.5-2.3,3-2.3.7,0,1.4,0,2.2,0v-2.9c-.4,0-.8,0-1.2-.1-1.6-.3-2.5-1.8-2.2-3.3,0-.3,0-.4-.2-.6-3.7-2.6-5.5-6.2-5.5-10.7,0-1.5.4-2.9,1-4.3.3-.6.8-.8,1.4-.6.4.2.7.7.4,1.3-.5,1.3-.8,2.7-.8,4,0,2.5.8,4.8,2.4,6.6.7.8,1.5,1.4,2.3,2,.1.1.4,0,.6,0,.4,0,.8-.2,1.2-.2,2.5,0,5.1,0,7.7,0,.3,0,.7,0,1,.2.3.2.6,0,.9-.1,2.7-1.9,4.3-4.5,4.5-7.9.4-5.2-3.3-9.9-8.3-10.8-1.9-.4-3.8-.2-5.7.5-.1,0-.2,0-.3.1-.5.2-1.1,0-1.2-.4-.2-.6,0-1.1.5-1.4,1.4-.6,2.8-.9,4.3-1,6.4-.2,11.8,4.2,12.6,10.5.7,4.9-1.1,8.9-5.2,11.9-.3.2-.4.4-.4.8.3,1.6-1,3.1-2.7,3.2-.2,0-.5,0-.8,0v2h1.7c2.9,0,5.3.9,7.4,3,.1.1.3.2.5.2,1.3,0,2.6,0,3.9,0,.2,0,.4-.1.5-.2.4-.5,1-.8,1.6-.8,1,0,2,0,3,0,1.2,0,2,.8,2,2v11.5c0,1.2-.8,2-2,2-1,0-2,0-3,0s-1.2-.3-1.6-.8c0-.1-.3-.2-.5-.2-1.3,0-2.6,0-3.9,0-.2,0-.4,0-.5.2-1.7,1.7-3.7,2.7-6.1,3,0,0,0,0-.1,0h-11.1,0ZM50.2,52.2c.7,0,1.5,0,2.2,0,2.4,0,4.4-1,5.9-2.9.6-.7,1-1.6,1.4-2.4.2-.4.5-.7.9-.6.3,0,.7.2.8.5.2.2.1.6,0,.9-.1.5-.4.9-.6,1.3h2.8v-.5c0-.7.5-1.1,1.1-1.1.5,0,.9.5.9,1.1,0,.3,0,.6,0,.9,0,.4.1.5.5.5.7,0,1.3,0,2,0,.4,0,.6-.1.6-.6,0-1.7,0-3.5,0-5.2v-5.4c0-.3,0-.5-.4-.5-.8,0-1.5,0-2.3,0s-.4.2-.4.4c0,.4,0,.8,0,1.1,0,.6-.5,1-.9,1-.6,0-1-.4-1.1-1,0-.2,0-.4,0-.6h-.6c-1.2,0-2.5,0-3.7,0-.6,0-1-.2-1.4-.6-1.6-1.7-3.6-2.6-5.9-2.6-1.6,0-3.3,0-4.9,0s-1.4.4-1.4,1.4v4.8c0,.2,0,.3,0,.5.1.5.6.8,1.1.9.5,0,1-.3,1.2-.9,0-.2,0-.4,0-.7v-2.7c0-.6.4-1,.9-1,.5,0,1,.4,1,1,0,.3,0,.7,0,1,0,2.2,1,3.8,2.8,5,.1,0,.3.2.4.3.3.3.4.7.2,1.1-.2.4-.5.5-.9.5-.1,0-.2,0-.4,0-.3,1.2-1,2.1-2.1,2.4v2.5h0ZM45.2,45.6h-4.1c-.7,0-1.2.5-1.2,1.2,0,.7.5,1.2,1.2,1.2,2.7,0,5.4,0,8.2,0,.6,0,1-.3,1.1-.8.2-.8-.3-1.5-1.1-1.5-1.3,0-2.7,0-4.1,0h0ZM47.1,28.4h-3.6c-.7,0-1.1.4-1.1.9s.4.9,1.1.9h7.2c.7,0,1.1-.4,1.1-.9s-.4-.9-1.1-.9h-3.6ZM44.9,49.8h-2.3c-.7,0-1.2.5-1.2,1.2,0,.7.5,1.2,1.2,1.2,1.5,0,3,0,4.6,0,.7,0,1.2-.5,1.2-1.2,0-.7-.5-1.1-1.2-1.2-.8,0-1.5,0-2.3,0ZM43.9,41.3c-1.3,0-2.6,0-3.9,0-.5,0-.8.3-.9.8-.3.8.3,1.5,1.2,1.5,1.2,0,2.4,0,3.6,0s.2,0,.2,0c0-.8-.1-1.5-.2-2.3h0ZM43.9,39.4v-2.3c-.8,0-1.6,0-2.3,0-.6,0-1,.6-1,1.2,0,.6.4,1.1,1,1.1.8,0,1.5,0,2.3,0h0ZM48.1,34.1v-1.9h-2.2v2c.7,0,1.5,0,2.2-.1h0Z"/>
        <path class="cls-1" d="M52.6,20.6h0c0,1.3-.6,2.2-1.7,2.7-1.1.5-2.1.3-3.1-.4-.3-.2-.5-.6-.8-.6-.2,0-.5.4-.8.6-1.2,1-2.9.9-3.9-.2-1.1-1.1-1.1-2.8-.1-3.9.2-.3.6-.5.6-.8,0-.2-.4-.5-.6-.7-1-1.1-1-2.9.1-3.9,1.1-1.1,2.8-1.2,4-.1.3.2.5.6.8.6.2,0,.5-.4.7-.6,1.2-1,2.9-.9,4,.1,1.1,1.1,1.1,2.8.1,3.9-.2.3-.6.5-.6.8,0,.2.4.5.6.7.4.5.7,1.2.7,1.9h0ZM44.8,14.5c-.3-.2-.7-.1-.9.1-.1.1-.2.2-.3.3-.2.4-.1.7.2,1,.2.2.4.4.6.6.8.8.8,2,0,2.7-.2.2-.4.4-.5.5-.5.5-.5,1,0,1.4.4.4,1,.4,1.4-.1.4-.4.7-.7,1.1-1.1.6-.6,1.1-.6,1.7,0,.4.4.7.7,1.1,1.1.5.4,1,.5,1.4,0,.4-.4.3-1,0-1.4-.4-.4-.8-.8-1.2-1.2-.5-.5-.5-1,0-1.4.4-.4.8-.8,1.2-1.2.4-.4.5-1,0-1.4-.4-.4-1-.4-1.4,0-.3.3-.7.7-1,1-.7.7-1.1.7-1.8,0-.4-.4-.7-.7-1.1-1.1,0,0-.2-.1-.3-.2h0Z"/>
        <path class="cls-1" d="M40,10c0,.6-.4,1-1,1-.5,0-.9-.5-.9-1s.5-1,1-.9c.5,0,1,.4,1,.9h0Z"/>
      </g>
      <g class="cls-3">
        <g class="cls-3">
          <path class="cls-1" d="M11.4,64v-6.4h.9l3.4,5v-5h.8v6.4h-.9l-3.4-5v5h-.8Z"/>
          <path class="cls-1" d="M17.4,61.7c0-.9.2-1.5.7-1.9.4-.3.9-.5,1.5-.5s1.2.2,1.6.6c.4.4.6,1,.6,1.7s0,1.1-.3,1.4c-.2.3-.4.6-.8.8-.3.2-.7.3-1.1.3-.6,0-1.2-.2-1.6-.6s-.6-1-.6-1.8ZM18.3,61.7c0,.6.1,1,.4,1.3.3.3.6.4,1,.4s.7-.1,1-.4c.3-.3.4-.7.4-1.4s-.1-1-.4-1.3c-.3-.3-.6-.4-1-.4s-.7.1-1,.4c-.3.3-.4.7-.4,1.3Z"/>
          <path class="cls-1" d="M28.2,63.5c-.3.2-.6.4-.8.5-.3.1-.6.2-.9.2-.5,0-.9-.1-1.2-.4-.3-.2-.4-.6-.4-1s0-.4.2-.6c.1-.2.2-.3.4-.5s.4-.2.6-.3c.2,0,.4,0,.7-.1.6,0,1.1-.2,1.4-.3,0-.1,0-.2,0-.2,0-.3,0-.5-.2-.7-.2-.2-.5-.3-.9-.3s-.6,0-.8.2c-.2.1-.3.4-.4.7h-.8c0-.4.2-.7.3-.9.2-.2.4-.4.7-.5.3-.1.7-.2,1-.2s.7,0,1,.1.4.2.5.4c.1.1.2.3.2.5,0,.1,0,.4,0,.7v1c0,.7,0,1.2,0,1.4,0,.2,0,.4.2.6h-.8c0-.2-.1-.4-.2-.6ZM28.1,61.7c-.3.1-.7.2-1.3.3-.3,0-.5,0-.7.2-.1,0-.2.1-.3.3,0,.1-.1.2-.1.4,0,.2,0,.4.2.5.2.1.4.2.7.2s.6,0,.8-.2c.2-.1.4-.3.5-.5,0-.2.1-.4.1-.8v-.3Z"/>
          <path class="cls-1" d="M33.2,64v-.7c-.4.5-.8.8-1.5.8s-.5,0-.8-.2c-.2-.1-.4-.2-.5-.4-.1-.2-.2-.4-.2-.6,0-.2,0-.4,0-.7v-2.9h.8v2.6c0,.4,0,.7,0,.8,0,.2.2.4.3.5.2.1.4.2.6.2s.5,0,.7-.2.4-.3.4-.5c0-.2.1-.5.1-.9v-2.5h.8v4.6h-.7Z"/>
          <path class="cls-1" d="M38.1,62.3h.8c0,.6-.3,1-.6,1.3-.3.3-.8.5-1.3.5s-1.1-.2-1.5-.6c-.4-.4-.6-1-.6-1.8s0-.9.2-1.3c.2-.4.4-.7.8-.8.3-.2.7-.3,1.1-.3s.9.1,1.2.4.5.6.6,1.1h-.8c0-.2-.2-.4-.4-.6-.2-.2-.4-.2-.7-.2-.4,0-.7.1-1,.4-.2.3-.4.7-.4,1.3s.1,1.1.4,1.4c.2.3.5.4.9.4s.6,0,.8-.3c.2-.2.3-.5.4-.9Z"/>
          <path class="cls-1" d="M41.3,63.3v.7c-.1,0-.3,0-.5,0-.3,0-.5,0-.7-.1-.2,0-.3-.2-.3-.4s0-.5,0-.9v-2.7h-.6v-.6h.6v-1.1l.8-.5v1.6h.8v.6h-.8v2.7c0,.2,0,.4,0,.4,0,0,0,.1.1.2,0,0,.2,0,.3,0s.2,0,.3,0Z"/>
          <path class="cls-1" d="M42,58.5v-.9h.8v.9h-.8ZM42,64v-4.6h.8v4.6h-.8Z"/>
          <path class="cls-1" d="M43.7,61.7c0-.9.2-1.5.7-1.9.4-.3.9-.5,1.5-.5s1.2.2,1.6.6c.4.4.6,1,.6,1.7s0,1.1-.3,1.4c-.2.3-.4.6-.8.8-.3.2-.7.3-1.1.3-.6,0-1.2-.2-1.6-.6s-.6-1-.6-1.8ZM44.5,61.7c0,.6.1,1,.4,1.3.3.3.6.4,1,.4s.7-.1,1-.4c.3-.3.4-.7.4-1.4s-.1-1-.4-1.3c-.3-.3-.6-.4-1-.4s-.7.1-1,.4c-.3.3-.4.7-.4,1.3Z"/>
          <path class="cls-1" d="M49,64v-4.6h.7v.7c.3-.5.8-.8,1.5-.8s.5,0,.8.2c.2,0,.4.2.5.4.1.2.2.4.2.6,0,.1,0,.4,0,.8v2.8h-.8v-2.8c0-.3,0-.6,0-.7,0-.2-.2-.3-.3-.4-.2,0-.3-.1-.5-.1-.3,0-.6.1-.9.3-.2.2-.4.6-.4,1.2v2.5h-.8Z"/>
          <path class="cls-1" d="M59.4,63.5c-.3.2-.6.4-.8.5s-.6.2-.9.2c-.5,0-.9-.1-1.2-.4s-.4-.6-.4-1,0-.4.2-.6c.1-.2.2-.3.4-.5s.4-.2.6-.3c.2,0,.4,0,.7-.1.6,0,1.1-.2,1.4-.3,0-.1,0-.2,0-.2,0-.3,0-.5-.2-.7-.2-.2-.5-.3-.9-.3s-.6,0-.8.2c-.2.1-.3.4-.4.7h-.8c0-.4.2-.7.3-.9.2-.2.4-.4.7-.5.3-.1.7-.2,1-.2s.7,0,1,.1c.2,0,.4.2.5.4.1.1.2.3.2.5,0,.1,0,.4,0,.7v1c0,.7,0,1.2,0,1.4,0,.2,0,.4.2.6h-.8c0-.2-.1-.4-.2-.6ZM59.3,61.7c-.3.1-.7.2-1.3.3-.3,0-.6,0-.7.2-.1,0-.2.1-.3.3,0,.1-.1.2-.1.4,0,.2,0,.4.2.5.2.1.4.2.7.2s.6,0,.8-.2c.2-.1.4-.3.5-.5,0-.2.1-.4.1-.8v-.3Z"/>
          <path class="cls-1" d="M62.6,64l-1.8-4.6h.8l1,2.8c.1.3.2.6.3.9,0-.2.2-.5.3-.9l1-2.8h.8l-1.8,4.6h-.7Z"/>
          <path class="cls-1" d="M68.8,63.5c-.3.2-.6.4-.8.5s-.6.2-.9.2c-.5,0-.9-.1-1.2-.4s-.4-.6-.4-1,0-.4.2-.6c.1-.2.2-.3.4-.5s.4-.2.6-.3c.2,0,.4,0,.7-.1.6,0,1.1-.2,1.4-.3,0-.1,0-.2,0-.2,0-.3,0-.5-.2-.7-.2-.2-.5-.3-.9-.3s-.6,0-.8.2c-.2.1-.3.4-.4.7h-.8c0-.4.2-.7.3-.9.2-.2.4-.4.7-.5.3-.1.7-.2,1-.2s.7,0,1,.1c.2,0,.4.2.5.4.1.1.2.3.2.5,0,.1,0,.4,0,.7v1c0,.7,0,1.2,0,1.4,0,.2,0,.4.2.6h-.8c0-.2-.1-.4-.2-.6ZM68.8,61.7c-.3.1-.7.2-1.3.3-.3,0-.6,0-.7.2-.1,0-.2.1-.3.3,0,.1-.1.2-.1.4,0,.2,0,.4.2.5.2.1.4.2.7.2s.6,0,.8-.2c.2-.1.4-.3.5-.5,0-.2.1-.4.1-.8v-.3Z"/>
          <path class="cls-1" d="M70.8,58.5v-.9h.8v.9h-.8ZM70.8,64v-4.6h.8v4.6h-.8Z"/>
          <path class="cls-1" d="M72.7,64v-6.4h.8v6.4h-.8Z"/>
          <path class="cls-1" d="M77.7,63.5c-.3.2-.6.4-.8.5s-.6.2-.9.2c-.5,0-.9-.1-1.2-.4s-.4-.6-.4-1,0-.4.2-.6c.1-.2.2-.3.4-.5s.4-.2.6-.3c.2,0,.4,0,.7-.1.6,0,1.1-.2,1.4-.3,0-.1,0-.2,0-.2,0-.3,0-.5-.2-.7-.2-.2-.5-.3-.9-.3s-.6,0-.8.2c-.2.1-.3.4-.4.7h-.8c0-.4.2-.7.3-.9.2-.2.4-.4.7-.5.3-.1.7-.2,1-.2s.7,0,1,.1c.2,0,.4.2.5.4.1.1.2.3.2.5,0,.1,0,.4,0,.7v1c0,.7,0,1.2,0,1.4,0,.2,0,.4.2.6h-.8c0-.2-.1-.4-.2-.6ZM77.7,61.7c-.3.1-.7.2-1.3.3-.3,0-.6,0-.7.2-.1,0-.2.1-.3.3,0,.1-.1.2-.1.4,0,.2,0,.4.2.5.2.1.4.2.7.2s.6,0,.8-.2c.2-.1.4-.3.5-.5,0-.2.1-.4.1-.8v-.3Z"/>
          <path class="cls-1" d="M80.4,64h-.7v-6.4h.8v2.3c.3-.4.8-.6,1.3-.6s.6,0,.8.2c.3.1.5.3.6.5.2.2.3.5.4.8s.1.6.1.9c0,.8-.2,1.4-.6,1.8s-.9.6-1.4.6-1-.2-1.3-.7v.6ZM80.4,61.7c0,.6,0,1,.2,1.2.2.4.6.6,1,.6s.6-.1.9-.4c.2-.3.4-.7.4-1.3s-.1-1-.4-1.3-.5-.4-.9-.4-.6.1-.9.4c-.2.3-.4.7-.4,1.3Z"/>
          <path class="cls-1" d="M84.6,64v-6.4h.8v6.4h-.8Z"/>
          <path class="cls-1" d="M89.8,62.5h.8c-.1.6-.4.9-.7,1.2-.3.3-.8.4-1.3.4s-1.2-.2-1.6-.6c-.4-.4-.6-1-.6-1.8s.2-1.4.6-1.8c.4-.4.9-.6,1.6-.6s1.1.2,1.5.6c.4.4.6,1,.6,1.8s0,.1,0,.2h-3.4c0,.5.2.9.4,1.2.3.3.6.4,1,.4s.5,0,.7-.2c.2-.2.4-.4.5-.7ZM87.2,61.3h2.6c0-.4-.1-.7-.3-.9-.2-.3-.6-.5-1-.5s-.7.1-.9.4c-.2.2-.4.6-.4,1Z"/>
        </g>
      </g>
    </g>
  </g>
</svg>