<?xml version="1.0" encoding="UTF-8"?>
<svg id="Layer_1" xmlns="http://www.w3.org/2000/svg" viewBox="0 0 102 67.1">
  <defs>
    <style>
      .cls-1 {
        font-family: MyriadPro-Regular, 'Myriad Pro';
        font-size: 11.35px;
      }

      .cls-1, .cls-2, .cls-3 {
        fill: #c73659;
      }

      .cls-3 {
        isolation: isolate;
        opacity: .1;
      }
    </style>
  </defs>
  <g id="Layer_1-3" data-name="Layer_1">
    <g id="Layer_1-2">
      <g id="Auction_Icon">
        <g id="Group_885">
          <path id="Path_907" class="cls-3" d="M55.1,28.4c25.8,0,42.5-33.7,42.5-7.9s-20.9,46.7-46.7,46.7S4.2,46.3,4.2,20.5s25,7.9,50.8,7.9h.1Z"/>
          <ellipse id="Ellipse_179" class="cls-3" cx="36.5" cy="5" rx="5.5" ry="5"/>
          <circle id="Ellipse_182" class="cls-3" cx="70.5" cy="8.5" r="1.5"/>
          <ellipse id="Ellipse_183" class="cls-3" cx="27.5" cy="12" rx="1.5" ry="2"/>
          <ellipse id="Ellipse_181" class="cls-3" cx="96.5" cy="61" rx="5.5" ry="5"/>
          <ellipse id="Ellipse_180" class="cls-3" cx="5.5" cy="62" rx="5.5" ry="5"/>
        </g>
      </g>
    </g>
  </g>
  <g>
    <path class="cls-2" d="M40.22,52.36c-.19-.07-.38-.14-.57-.21-1.52-.59-2.32-2.27-1.81-3.83.05-.16.11-.32.17-.47-1.85-1.33-2.24-2.68-1.28-4.57-.91-.72-1.42-1.66-1.29-2.85.12-1.17.77-2,1.85-2.54-.31-.7-.42-1.42-.24-2.16.34-1.38,1.52-2.31,3-2.35.71-.02,1.41,0,2.19,0,0-.52,0-1,0-1.48s0-.94,0-1.42c-.44-.04-.85-.03-1.25-.11-1.56-.32-2.52-1.76-2.21-3.31.05-.28-.02-.42-.24-.58-3.73-2.58-5.54-6.16-5.48-10.68.02-1.49.37-2.93.95-4.31.26-.61.78-.82,1.39-.59.44.17.65.73.42,1.29-.54,1.3-.84,2.65-.83,4.04.03,2.48.76,4.75,2.42,6.63.67.76,1.5,1.38,2.28,2.03.14.11.42.09.63.06.4-.05.79-.22,1.19-.22,2.55-.02,5.1-.02,7.65,0,.35,0,.73.06,1.05.21.34.16.58.09.86-.1,2.73-1.93,4.28-4.53,4.53-7.89.39-5.24-3.3-9.86-8.34-10.82-1.94-.37-3.85-.2-5.69.53-.12.05-.24.09-.35.13-.54.18-1.08-.01-1.24-.44-.23-.6-.03-1.13.54-1.37,1.37-.59,2.81-.93,4.3-.97,6.39-.18,11.75,4.18,12.64,10.51.69,4.95-1.14,8.94-5.19,11.88-.32.23-.44.41-.36.83.29,1.61-1.01,3.15-2.67,3.22-.25.01-.5,0-.78,0v1.99c.58,0,1.14,0,1.7,0,2.86-.03,5.32.94,7.37,2.95.13.13.35.22.53.22,1.29.02,2.58.02,3.87,0,.16,0,.36-.11.46-.23.43-.5.96-.75,1.61-.76.99,0,1.98-.02,2.98,0,1.17.02,1.97.84,1.97,2.02,0,3.84,0,7.68,0,11.52,0,1.18-.81,2-1.98,2.02-.99.02-1.98,0-2.98,0-.65,0-1.18-.26-1.61-.76-.1-.12-.31-.22-.47-.22-1.29-.02-2.58-.02-3.87,0-.16,0-.36.05-.46.16-1.69,1.68-3.71,2.67-6.08,2.95-.04,0-.09.04-.13.06h-11.15ZM48.44,50.46c.72,0,1.48.03,2.23,0,2.39-.1,4.41-1.03,5.92-2.89.59-.72.98-1.6,1.44-2.42.2-.36.46-.66.87-.61.29.04.66.21.81.45.15.23.14.63.06.93-.12.45-.36.88-.56,1.34h2.78c0-.19,0-.34,0-.5.03-.68.47-1.12,1.1-1.1.48.01.86.49.89,1.11.01.31.02.63,0,.94-.03.36.1.51.48.5.66-.02,1.32-.03,1.98,0,.44.02.6-.11.6-.58-.03-1.73-.01-3.46-.01-5.19,0-1.79,0-3.59,0-5.38,0-.27-.02-.46-.37-.46-.77.01-1.54,0-2.31,0-.3,0-.38.15-.37.41,0,.38.02.76,0,1.13-.04.56-.45.99-.9,1-.59,0-1.03-.41-1.08-1.03-.01-.18,0-.37,0-.6-.23,0-.4,0-.57,0-1.23,0-2.46-.02-3.68,0-.56.01-.98-.16-1.37-.58-1.59-1.72-3.58-2.58-5.91-2.6-1.64-.02-3.27,0-4.91,0-.94,0-1.39.44-1.39,1.39,0,1.61,0,3.21,0,4.82,0,.17.02.35.05.51.12.5.58.85,1.11.86.54.01,1.03-.35,1.15-.87.05-.21.05-.44.06-.66,0-.9,0-1.79,0-2.69.01-.59.39-.99.91-1.01.53-.02.95.39.99.99.02.33,0,.66.01.99.08,2.17,1.05,3.84,2.85,5.04.14.1.3.18.42.31.31.32.36.7.17,1.09-.18.38-.51.54-.93.52-.12,0-.24-.04-.39-.07-.28,1.25-1.05,2.06-2.11,2.41v2.49ZM43.43,43.84s0,0,0,0c-1.35,0-2.7,0-4.06,0-.74,0-1.22.48-1.23,1.15,0,.67.47,1.2,1.19,1.2,2.72.02,5.44.01,8.16,0,.57,0,.99-.35,1.14-.83.23-.78-.29-1.5-1.14-1.51-1.35-.02-2.7,0-4.06,0ZM45.32,26.67c-1.19,0-2.39,0-3.58,0-.69,0-1.12.37-1.12.94,0,.56.44.93,1.13.93,2.39,0,4.78,0,7.17,0,.68,0,1.12-.37,1.12-.94,0-.56-.44-.93-1.13-.93-1.19,0-2.39,0-3.58,0ZM43.14,48.11c-.77,0-1.54,0-2.31,0-.72,0-1.23.49-1.25,1.15-.02.67.51,1.2,1.24,1.2,1.53.01,3.05.01,4.58,0,.74,0,1.25-.52,1.24-1.2-.01-.66-.52-1.14-1.24-1.15-.75-.01-1.51,0-2.26,0ZM42.18,39.59c-1.3,0-2.59-.02-3.87.01-.46.01-.77.33-.92.77-.27.79.27,1.53,1.19,1.55,1.19.02,2.39,0,3.58,0,.08,0,.17-.04.2-.05-.06-.77-.11-1.5-.17-2.28ZM42.2,37.63v-2.32c-.79,0-1.56-.04-2.32.01-.62.05-1.01.57-1,1.17,0,.59.42,1.1.99,1.13.76.04,1.53,0,2.34,0ZM46.41,32.36v-1.85h-2.2v2c.74-.05,1.46-.09,2.2-.14Z"/>
    <path class="cls-2" d="M50.91,18.88s0,.07,0,.1c-.08,1.17-.6,2.08-1.69,2.59-1.1.5-2.14.34-3.09-.41-.28-.22-.54-.61-.83-.63-.25-.01-.51.4-.78.63-1.16.98-2.88.9-3.94-.18-1.06-1.07-1.11-2.79-.11-3.94.22-.26.59-.52.6-.79.01-.24-.38-.49-.6-.74-1-1.15-.95-2.87.11-3.94,1.08-1.09,2.8-1.16,3.97-.15.26.22.52.59.79.6.24.01.49-.38.74-.6,1.17-1.01,2.9-.95,3.97.14,1.06,1.07,1.11,2.79.12,3.94-.22.26-.59.52-.6.79-.01.24.38.49.6.74.44.5.71,1.19.73,1.85ZM43.06,12.79c-.3-.16-.67-.12-.94.1-.12.1-.23.2-.3.32-.22.35-.13.74.16,1.04.21.22.42.44.64.65.76.76.76,1.98,0,2.74-.18.18-.36.36-.54.55-.45.46-.47,1.04-.08,1.42.39.39.96.35,1.42-.1.36-.35.71-.71,1.07-1.07.6-.59,1.07-.6,1.66-.02.37.36.73.74,1.1,1.1.46.44,1.04.46,1.42.06.37-.39.34-.95-.08-1.39-.39-.41-.81-.8-1.2-1.21-.46-.48-.46-.97,0-1.45.39-.41.81-.8,1.2-1.21.43-.44.45-1.01.08-1.39-.38-.4-.96-.38-1.42.07-.35.34-.69.69-1.04,1.03-.66.66-1.1.67-1.76.02-.36-.35-.7-.73-1.08-1.06-.09-.08-.2-.14-.32-.21Z"/>
    <path class="cls-2" d="M38.3,8.25c0,.59-.42,1-1.01.99-.48,0-.92-.48-.92-.99,0-.51.46-.96.97-.95.52.01.97.45.97.94Z"/>
  </g>
  <text class="cls-1" transform="translate(2.18 66)"><tspan x="0" y="0">No Auction available</tspan></text>
</svg>