<?xml version="1.0" encoding="UTF-8"?>
<svg id="Layer_1" xmlns="http://www.w3.org/2000/svg" viewBox="0 0 102 67.1">
  <defs>
    <style>
      .cls-1 {
        font-family: MyriadPro-Regular, 'Myriad Pro';
        font-size: 11.35px;
      }

      .cls-1, .cls-2, .cls-3 {
        fill: #c73659;
      }

      .cls-3 {
        isolation: isolate;
        opacity: .1;
      }
    </style>
  </defs>
  <g id="Layer_1-2" data-name="Layer_1">
    <g id="Layer_1-2">
      <g id="Auction_Icon">
        <g id="Group_885">
          <path id="Path_907" class="cls-3" d="M55.1,28.4c25.8,0,42.5-33.7,42.5-7.9s-20.9,46.7-46.7,46.7S4.2,46.3,4.2,20.5s25,7.9,50.8,7.9h.1Z"/>
          <ellipse id="Ellipse_179" class="cls-3" cx="36.5" cy="5" rx="5.5" ry="5"/>
          <circle id="Ellipse_182" class="cls-3" cx="70.5" cy="8.5" r="1.5"/>
          <ellipse id="Ellipse_183" class="cls-3" cx="27.5" cy="12" rx="1.5" ry="2"/>
          <ellipse id="Ellipse_181" class="cls-3" cx="96.5" cy="61" rx="5.5" ry="5"/>
          <ellipse id="Ellipse_180" class="cls-3" cx="5.5" cy="62" rx="5.5" ry="5"/>
        </g>
      </g>
    </g>
  </g>
  <g>
    <path class="cls-2" d="M36.97,10.22v25.68c.83,0,1.64,0,2.44,0,1.17,0,2.33,0,3.5,0,.79,0,1.04.26,1.04,1.06,0,1.96,0,3.92,0,5.95h.54c2.5,0,4.99,0,7.49,0,.16,0,.33-.02.48.02.39.09.63.34.63.75,0,.41-.23.66-.62.76-.14.04-.29.02-.44.02-2.85,0-5.7,0-8.56,0-.44,0-.77-.14-1.07-.45-2.19-2.21-4.39-4.41-6.6-6.6-.28-.28-.42-.58-.42-.99,0-8.91,0-17.83,0-26.74,0-.76.26-1.02,1.02-1.02,1.15,0,2.3,0,3.45,0,.61,0,.97.3.97.78,0,.48-.36.77-.97.78-.95,0-1.91,0-2.89,0ZM38.21,37.47c1.39,1.39,2.77,2.78,4.16,4.17v-4.17h-4.16Z"/>
    <path class="cls-2" d="M65.59,50.68c-6.12,0-10.84-4.23-11.46-9.52-.65-5.54,2.94-10.85,8.62-12.05,6.26-1.32,12.41,3.23,13.01,9.6.25,2.67-.38,5.11-1.92,7.31-.16.22-.46.43-.72.47-.21.03-.58-.17-.66-.35-.1-.26-.08-.66.06-.89.6-.93,1.1-1.9,1.4-2.97,1.55-5.47-2.25-11.12-7.89-11.75-5.86-.65-10.82,4.02-10.4,9.91.25,3.5,2.02,6.13,5.16,7.7,3.13,1.56,6.23,1.32,9.21-.52.15-.09.29-.2.45-.29.42-.24.83-.17,1.08.18.25.36.2.85-.22,1.1-.8.48-1.61.97-2.47,1.34-1.23.53-2.55.73-3.26.73Z"/>
    <path class="cls-2" d="M32.28,31.01c0-4.21,0-8.43,0-12.64,0-.16-.02-.33.02-.48.08-.4.33-.63.73-.66.38-.03.72.26.79.65.03.17.02.36.02.53,0,8.31,0,16.63,0,24.94,0,1.74.92,2.66,2.68,2.66,5.59,0,11.18,0,16.77,0,.15,0,.29,0,.44,0,.46.03.79.34.8.76.01.43-.33.77-.81.79-.16,0-.32,0-.49,0-5.58,0-11.15,0-16.73,0-2.6,0-4.22-1.61-4.22-4.21,0-4.12,0-8.23,0-12.35Z"/>
    <path class="cls-2" d="M49.39,4c1.99,0,3.99,0,5.98,0,.77,0,1.03.26,1.03,1.01,0,1.44,0,2.88,0,4.33,0,1.45-1,2.44-2.45,2.44-3.03,0-6.06,0-9.09,0-1.48,0-2.46-.99-2.46-2.48,0-1.44,0-2.88,0-4.33,0-.7.27-.97.97-.97,2.01,0,4.02,0,6.03,0ZM43.95,5.57c0,1.32-.01,2.6,0,3.88,0,.48.33.77.82.77,3.08,0,6.15,0,9.23,0,.54,0,.83-.31.83-.86.01-.99,0-1.97,0-2.96,0-.27,0-.54,0-.82h-10.89Z"/>
    <path class="cls-2" d="M66.51,17.85c0,2.84.01,5.67-.02,8.51,0,.3-.16.68-.38.87-.41.35-1.05.03-1.14-.52-.03-.17-.02-.36-.02-.53,0-5.48,0-10.96,0-16.43,0-1.69-.93-2.63-2.61-2.63-1.15,0-2.3,0-3.45,0-.58,0-.93-.29-.94-.76-.01-.49.35-.79.95-.8,1.23,0,2.46-.01,3.7,0,2.21.02,3.89,1.71,3.91,3.93.01,2.79,0,5.57,0,8.36Z"/>
    <path class="cls-2" d="M64.98,40.87c-1.05,1.05-2.06,2.06-3.07,3.07-.57.57-.99.65-1.37.28-.39-.38-.31-.8.26-1.37,1.01-1.01,2.01-2.01,3.05-3.05-.13-.14-.23-.26-.34-.37-.87-.87-1.74-1.74-2.61-2.61-.67-.67-.77-1.08-.36-1.47.4-.39.8-.28,1.47.39.86.86,1.72,1.72,2.58,2.58.11.11.23.22.38.36.84-.84,1.66-1.66,2.48-2.49.25-.25.5-.51.76-.75.41-.39.86-.41,1.2-.07.31.32.29.78-.09,1.16-.99,1-1.99,2-2.99,2.99-.08.08-.15.16-.25.27.98.98,1.94,1.94,2.9,2.9.14.14.28.27.41.41.31.35.31.8.02,1.09-.31.32-.76.33-1.13-.01-.45-.42-.88-.87-1.31-1.3-.65-.65-1.3-1.31-2-2.02Z"/>
    <path class="cls-2" d="M61.84,10.22c-1.03,0-1.99,0-2.94,0-.58,0-.93-.29-.94-.75-.02-.49.35-.8.95-.8,1.18,0,2.36,0,3.55,0,.67,0,.95.28.95.95,0,5.65,0,11.31,0,16.96,0,.63-.27.96-.77.97-.51,0-.78-.34-.78-1,0-5.23,0-10.46,0-15.7,0-.19,0-.38,0-.62Z"/>
    <path class="cls-2" d="M32.36,12c0-1.1-.12-2.22.03-3.3.24-1.8,1.85-3.11,3.67-3.14,1.3-.02,2.59-.01,3.89,0,.54,0,.88.31.89.76,0,.47-.34.79-.91.79-1.22,0-2.43,0-3.65,0-1.45,0-2.44,1-2.44,2.45,0,1.7,0,3.4,0,5.11,0,.64-.3,1.01-.8,1-.48-.01-.75-.36-.76-.99,0-.89,0-1.78,0-2.67h.08Z"/>
    <path class="cls-2" d="M41.61,19.55c-.5,0-1,.01-1.51,0-.52-.02-.81-.31-.82-.82-.01-1-.01-2.01,0-3.01,0-.52.31-.81.82-.82,1-.01,2.01-.01,3.01,0,.51,0,.81.31.82.82.01,1,.01,2.01,0,3.01,0,.52-.31.81-.82.82-.5.01-1,0-1.51,0ZM40.87,16.46v1.51h1.49v-1.51h-1.49Z"/>
    <path class="cls-2" d="M53.28,14.89c1.77,0,3.53,0,5.3,0,.53,0,.86.25.92.68.06.48-.31.87-.87.87-1.09,0-2.17,0-3.26,0-2.43,0-4.86,0-7.29,0-.25,0-.58-.04-.71-.2-.17-.2-.28-.55-.24-.81.06-.39.41-.54.81-.54,1.49,0,2.98,0,4.47,0,.29,0,.58,0,.88,0Z"/>
    <path class="cls-2" d="M41.66,26.56c-.5,0-1,0-1.51,0-.57-.01-.86-.3-.87-.88,0-.97,0-1.94,0-2.92,0-.57.3-.86.88-.87.97,0,1.94,0,2.92,0,.57,0,.86.3.87.88,0,.97.01,1.94,0,2.92,0,.57-.3.86-.88.87-.47,0-.94,0-1.41,0ZM40.86,24.98h1.5v-1.5h-1.5v1.5Z"/>
    <path class="cls-2" d="M53.23,23.45c-1.75,0-3.5,0-5.25,0-.53,0-.86-.25-.92-.68-.06-.48.3-.87.87-.87,1.15,0,2.3,0,3.45,0,2.38,0,4.76,0,7.15,0,.59,0,.94.27.97.73.03.48-.34.82-.92.82-1.78,0-3.57,0-5.35,0Z"/>
    <path class="cls-2" d="M41.61,33.56c-.5,0-1,.01-1.51,0-.52-.01-.82-.31-.82-.82-.01-1-.01-2.01,0-3.01,0-.52.31-.82.82-.82,1-.01,2.01-.01,3.01,0,.52,0,.82.31.82.82.01,1,.01,2.01,0,3.01,0,.52-.31.81-.82.82-.5.01-1,0-1.51,0ZM42.35,31.98v-1.51h-1.49v1.51h1.49Z"/>
    <path class="cls-2" d="M52.07,30.45c-1.34,0-2.69,0-4.03,0-.61,0-.97-.29-.97-.78,0-.48.36-.78.97-.78,2.72,0,5.44,0,8.17,0,.61,0,.97.29.97.78,0,.48-.36.78-.97.78-1.38,0-2.75,0-4.13,0Z"/>
    <path class="cls-2" d="M50.94,19.56c-.97,0-1.94,0-2.92,0-.61,0-.97-.3-.96-.78,0-.48.36-.77.97-.77,1.94,0,3.89,0,5.83,0,.61,0,.97.3.97.78,0,.48-.36.77-.97.77-.97,0-1.94,0-2.92,0Z"/>
    <path class="cls-2" d="M50.96,25c.97,0,1.94,0,2.92,0,.61,0,.97.3.96.79,0,.48-.36.77-.98.77-1.94,0-3.89,0-5.83,0-.61,0-.97-.3-.96-.79,0-.48.36-.76.98-.77.97,0,1.94,0,2.92,0Z"/>
    <path class="cls-2" d="M50.98,32c.97,0,1.94,0,2.92,0,.58,0,.93.29.94.76.01.48-.35.79-.95.8-1.96,0-3.92,0-5.88,0-.58,0-.93-.29-.94-.76-.01-.49.35-.79.95-.8.99,0,1.98,0,2.97,0Z"/>
  </g>
  <text class="cls-1" transform="translate(-.11 66)"><tspan x="0" y="0">No Products available</tspan></text>
</svg>