<?xml version="1.0" encoding="UTF-8"?>
<svg xmlns="http://www.w3.org/2000/svg" version="1.1" viewBox="0 0 102 67.1">
  <defs>
    <style>
      .cls-1, .cls-2 {
        fill: #c73659;
      }

      .cls-3, .cls-2 {
        isolation: isolate;
      }

      .cls-2 {
        opacity: .1;
      }
    </style>
  </defs>
  <!-- Generator: Adobe Illustrator 28.6.0, SVG Export Plug-In . SVG Version: 1.2.0 Build 709)  -->
  <g>
    <g id="Layer_1">
      <g id="Layer_1-2">
        <g id="Layer_1-2-2" data-name="Layer_1-2">
          <g id="Auction_Icon">
            <g id="Group_885">
              <path id="Path_907" class="cls-2" d="M55.1,29.1c25.8,0,42.5-33.7,42.5-7.9s-20.9,46.7-46.7,46.7S4.2,47,4.2,21.2s25,7.9,50.8,7.9h0Z"/>
              <ellipse id="Ellipse_179" class="cls-2" cx="36.5" cy="5.7" rx="5.5" ry="5"/>
              <circle id="Ellipse_182" class="cls-2" cx="70.5" cy="9.2" r="1.5"/>
              <ellipse id="Ellipse_183" class="cls-2" cx="27.5" cy="12.7" rx="1.5" ry="2"/>
              <ellipse id="Ellipse_181" class="cls-2" cx="96.5" cy="61.7" rx="5.5" ry="5"/>
              <ellipse id="Ellipse_180" class="cls-2" cx="5.5" cy="62.7" rx="5.5" ry="5"/>
            </g>
          </g>
        </g>
      </g>
      <g>
        <path class="cls-1" d="M37,14.4v25.7h5.9c.8,0,1,.3,1,1.1v6h8c.2,0,.3,0,.5,0,.4,0,.6.3.6.8s-.2.7-.6.8c-.1,0-.3,0-.4,0h-8.6c-.4,0-.8-.1-1.1-.5-2.2-2.2-4.4-4.4-6.6-6.6-.3-.3-.4-.6-.4-1V13.9c0-.8.3-1,1-1h3.5c.6,0,1,.3,1,.8s-.4.8-1,.8h-2.9,0ZM38.2,41.6c1.4,1.4,2.8,2.8,4.2,4.2v-4.2h-4.2Z"/>
        <path class="cls-1" d="M65.6,54.9c-6.1,0-10.8-4.2-11.5-9.5-.7-5.5,2.9-10.9,8.6-12,6.3-1.3,12.4,3.2,13,9.6.2,2.7-.4,5.1-1.9,7.3-.2.2-.5.4-.7.5-.2,0-.6-.2-.7-.3,0-.3,0-.7,0-.9.6-.9,1.1-1.9,1.4-3,1.6-5.5-2.2-11.1-7.9-11.8-5.9-.6-10.8,4-10.4,9.9.2,3.5,2,6.1,5.2,7.7,3.1,1.6,6.2,1.3,9.2-.5.2,0,.3-.2.4-.3.4-.2.8-.2,1.1.2.2.4.2.8-.2,1.1-.8.5-1.6,1-2.5,1.3-1.2.5-2.6.7-3.3.7h0Z"/>
        <path class="cls-1" d="M32.3,35.2v-12.6c0-.2,0-.3,0-.5,0-.4.3-.6.7-.7.4,0,.7.3.8.6,0,.2,0,.4,0,.5v24.9c0,1.7.9,2.7,2.7,2.7h17.2c.5,0,.8.3.8.8,0,.4-.3.8-.8.8h-17.2c-2.6,0-4.2-1.6-4.2-4.2v-12.4h0Z"/>
        <path class="cls-1" d="M49.4,8.2h6c.8,0,1,.3,1,1v4.3c0,1.4-1,2.4-2.5,2.4h-9.1c-1.5,0-2.5-1-2.5-2.5v-4.3c0-.7.3-1,1-1h6,0ZM44,9.7c0,1.3,0,2.6,0,3.9,0,.5.3.8.8.8h9.2c.5,0,.8-.3.8-.9,0-1,0-2,0-3v-.8h-10.9,0Z"/>
        <path class="cls-1" d="M66.5,22c0,2.8,0,5.7,0,8.5,0,.3-.2.7-.4.9-.4.4-1.1,0-1.1-.5,0-.2,0-.4,0-.5V13.9c0-1.7-.9-2.6-2.6-2.6h-3.5c-.6,0-.9-.3-.9-.8,0-.5.3-.8,1-.8,1.2,0,2.5,0,3.7,0,2.2,0,3.9,1.7,3.9,3.9,0,2.8,0,5.6,0,8.4h0Z"/>
        <path class="cls-1" d="M65,45l-3.1,3.1c-.6.6-1,.7-1.4.3-.4-.4-.3-.8.3-1.4l3-3c-.1-.1-.2-.3-.3-.4l-2.6-2.6c-.7-.7-.8-1.1-.4-1.5.4-.4.8-.3,1.5.4l2.6,2.6c.1.1.2.2.4.4.8-.8,1.7-1.7,2.5-2.5.2-.2.5-.5.8-.8.4-.4.9-.4,1.2,0,.3.3.3.8,0,1.2-1,1-2,2-3,3,0,0-.2.2-.2.3,1,1,1.9,1.9,2.9,2.9.1.1.3.3.4.4.3.3.3.8,0,1.1-.3.3-.8.3-1.1,0-.4-.4-.9-.9-1.3-1.3-.7-.7-1.3-1.3-2-2h0Z"/>
        <path class="cls-1" d="M61.8,14.4h-2.9c-.6,0-.9-.3-.9-.8,0-.5.3-.8,1-.8h3.5c.7,0,1,.3,1,.9v17c0,.6-.3,1-.8,1-.5,0-.8-.3-.8-1V14.4h0Z"/>
        <path class="cls-1" d="M32.4,16.2c0-1.1-.1-2.2,0-3.3.2-1.8,1.8-3.1,3.7-3.1,1.3,0,2.6,0,3.9,0,.5,0,.9.3.9.8,0,.5-.3.8-.9.8h-3.7c-1.5,0-2.4,1-2.4,2.4v5.1c0,.6-.3,1-.8,1-.5,0-.8-.4-.8-1v-2.7h0Z"/>
        <path class="cls-1" d="M41.6,23.7c-.5,0-1,0-1.5,0-.5,0-.8-.3-.8-.8,0-1,0-2,0-3,0-.5.3-.8.8-.8,1,0,2,0,3,0,.5,0,.8.3.8.8,0,1,0,2,0,3,0,.5-.3.8-.8.8-.5,0-1,0-1.5,0h0ZM40.9,20.6v1.5h1.5v-1.5h-1.5Z"/>
        <path class="cls-1" d="M53.3,19.1h5.3c.5,0,.9.2.9.7,0,.5-.3.9-.9.9h-10.5c-.2,0-.6,0-.7-.2-.2-.2-.3-.6-.2-.8,0-.4.4-.5.8-.5h5.4,0Z"/>
        <path class="cls-1" d="M41.7,30.7h-1.5c-.6,0-.9-.3-.9-.9v-2.9c0-.6.3-.9.9-.9h2.9c.6,0,.9.3.9.9,0,1,0,1.9,0,2.9,0,.6-.3.9-.9.9h-1.4ZM40.9,29.2h1.5v-1.5h-1.5v1.5Z"/>
        <path class="cls-1" d="M53.2,27.6h-5.2c-.5,0-.9-.2-.9-.7,0-.5.3-.9.9-.9h10.6c.6,0,.9.3,1,.7,0,.5-.3.8-.9.8-1.8,0-3.6,0-5.4,0Z"/>
        <path class="cls-1" d="M41.6,37.7c-.5,0-1,0-1.5,0-.5,0-.8-.3-.8-.8,0-1,0-2,0-3,0-.5.3-.8.8-.8,1,0,2,0,3,0,.5,0,.8.3.8.8,0,1,0,2,0,3,0,.5-.3.8-.8.8-.5,0-1,0-1.5,0h0ZM42.3,36.2v-1.5h-1.5v1.5h1.5Z"/>
        <path class="cls-1" d="M52.1,34.6h-4c-.6,0-1-.3-1-.8s.4-.8,1-.8h8.2c.6,0,1,.3,1,.8s-.4.8-1,.8h-4.1Z"/>
        <path class="cls-1" d="M50.9,23.7h-2.9c-.6,0-1-.3-1-.8,0-.5.4-.8,1-.8h5.8c.6,0,1,.3,1,.8s-.4.8-1,.8h-2.9Z"/>
        <path class="cls-1" d="M51,29.2h2.9c.6,0,1,.3,1,.8,0,.5-.4.8-1,.8h-5.8c-.6,0-1-.3-1-.8,0-.5.4-.8,1-.8h2.9,0Z"/>
        <path class="cls-1" d="M51,36.2h2.9c.6,0,.9.3.9.8,0,.5-.3.8-1,.8h-5.9c-.6,0-.9-.3-.9-.8,0-.5.3-.8,1-.8h3,0Z"/>
      </g>
      <g class="cls-3">
        <g class="cls-3">
          <path class="cls-1" d="M12.3,63.6v-6.2h.8l3.2,4.9v-4.9h.8v6.2h-.8l-3.2-4.9v4.9h-.8Z"/>
          <path class="cls-1" d="M18.2,61.4c0-.8.2-1.4.7-1.8.4-.3.9-.5,1.4-.5s1.1.2,1.5.6c.4.4.6,1,.6,1.7s0,1-.3,1.4c-.2.3-.4.6-.8.8s-.7.3-1.1.3c-.6,0-1.1-.2-1.5-.6-.4-.4-.6-1-.6-1.7ZM19,61.4c0,.6.1,1,.4,1.3s.6.4.9.4.7-.1.9-.4c.2-.3.4-.7.4-1.3s-.1-1-.4-1.3c-.3-.3-.6-.4-.9-.4s-.7.1-.9.4c-.2.3-.4.7-.4,1.3Z"/>
          <path class="cls-1" d="M25.7,65.3v-6.2h.7v.6c.2-.2.3-.4.6-.5.2-.1.5-.2.7-.2s.7,0,1,.3c.3.2.5.5.7.8.1.4.2.8.2,1.2s0,.9-.2,1.2c-.2.4-.4.6-.7.8-.3.2-.6.3-1,.3s-.5,0-.7-.2c-.2-.1-.4-.2-.5-.4v2.2h-.8ZM26.3,61.4c0,.6.1,1,.3,1.3.2.3.5.4.8.4s.6-.1.9-.4.4-.7.4-1.3-.1-1-.4-1.3c-.2-.3-.5-.4-.8-.4s-.6.2-.9.5c-.2.3-.4.7-.4,1.3Z"/>
          <path class="cls-1" d="M30.5,63.6v-4.5h.7v.7c.2-.3.3-.5.5-.6.1-.1.3-.2.5-.2.3,0,.5,0,.8.2l-.3.7c-.2-.1-.4-.2-.6-.2s-.3,0-.4.1c-.1,0-.2.2-.3.4,0,.3-.1.6-.1.9v2.3h-.8Z"/>
          <path class="cls-1" d="M33.1,61.4c0-.8.2-1.4.7-1.8.4-.3.9-.5,1.4-.5s1.1.2,1.5.6c.4.4.6,1,.6,1.7s0,1-.3,1.4c-.2.3-.4.6-.8.8s-.7.3-1.1.3c-.6,0-1.1-.2-1.5-.6-.4-.4-.6-1-.6-1.7ZM33.8,61.4c0,.6.1,1,.4,1.3s.6.4.9.4.7-.1.9-.4c.2-.3.4-.7.4-1.3s-.1-1-.4-1.3c-.3-.3-.6-.4-.9-.4s-.7.1-.9.4c-.2.3-.4.7-.4,1.3Z"/>
          <path class="cls-1" d="M41,63.6v-.6c-.3.4-.7.7-1.3.7s-.7,0-1-.3c-.3-.2-.5-.5-.7-.8-.2-.4-.2-.8-.2-1.2s0-.9.2-1.2c.1-.4.4-.6.7-.8.3-.2.6-.3,1-.3s.5,0,.7.2c.2.1.4.3.5.4v-2.2h.8v6.2h-.7ZM38.6,61.4c0,.6.1,1,.4,1.3.2.3.5.4.9.4s.6-.1.8-.4c.2-.3.3-.7.3-1.2s-.1-1.1-.4-1.3c-.2-.3-.5-.4-.9-.4s-.6.1-.8.4-.3.7-.3,1.3Z"/>
          <path class="cls-1" d="M45.9,63.6v-.7c-.3.5-.8.8-1.4.8s-.5,0-.7-.2c-.2-.1-.4-.2-.5-.4-.1-.2-.2-.3-.2-.6,0-.1,0-.4,0-.7v-2.8h.8v2.5c0,.4,0,.7,0,.8,0,.2.1.4.3.5.2.1.3.2.6.2s.4,0,.6-.2c.2-.1.3-.3.4-.5,0-.2.1-.5.1-.9v-2.4h.8v4.5h-.7Z"/>
          <path class="cls-1" d="M50.7,62h.7c0,.6-.3,1-.6,1.3-.3.3-.7.4-1.2.4s-1.1-.2-1.5-.6c-.4-.4-.6-1-.6-1.7s0-.9.2-1.3.4-.6.7-.8c.3-.2.7-.3,1.1-.3s.9.1,1.2.4c.3.2.5.6.6,1h-.7c0-.2-.2-.4-.4-.6-.2-.2-.4-.2-.6-.2-.4,0-.7.1-.9.4-.2.3-.4.7-.4,1.3s.1,1,.3,1.3c.2.3.5.4.9.4s.5,0,.7-.3c.2-.2.3-.5.4-.8Z"/>
          <path class="cls-1" d="M53.7,62.9v.7c-.1,0-.3,0-.5,0-.3,0-.5,0-.6-.1-.2,0-.3-.2-.3-.3,0-.1,0-.4,0-.9v-2.6h-.6v-.6h.6v-1.1l.8-.5v1.6h.8v.6h-.8v2.6c0,.2,0,.4,0,.4,0,0,0,.1.1.1,0,0,.1,0,.3,0s.2,0,.3,0Z"/>
          <path class="cls-1" d="M59.8,63.1c-.3.2-.6.4-.8.5-.3,0-.5.1-.8.1-.5,0-.9-.1-1.1-.4-.3-.2-.4-.5-.4-.9s0-.4.1-.6c.1-.2.2-.3.4-.4.2-.1.3-.2.5-.2.1,0,.4,0,.7-.1.6,0,1.1-.2,1.4-.3,0-.1,0-.2,0-.2,0-.3,0-.5-.2-.7-.2-.2-.5-.3-.9-.3s-.6,0-.8.2-.3.3-.4.7h-.7c0-.4.2-.7.3-.9s.4-.3.7-.5.6-.2,1-.2.7,0,.9.1c.2,0,.4.2.5.3.1.1.2.3.2.5,0,.1,0,.4,0,.7v1c0,.7,0,1.2,0,1.3s0,.4.2.5h-.8c0-.2-.1-.3-.2-.6ZM59.7,61.4c-.3.1-.7.2-1.2.3-.3,0-.5,0-.7.2s-.2.1-.3.2c0,.1-.1.2-.1.4,0,.2,0,.4.2.5s.4.2.7.2.6,0,.8-.2.4-.3.5-.5c0-.2.1-.4.1-.8v-.3Z"/>
          <path class="cls-1" d="M62.9,63.6l-1.7-4.5h.8l1,2.7c.1.3.2.6.3.9,0-.2.2-.5.3-.9l1-2.7h.8l-1.7,4.5h-.7Z"/>
          <path class="cls-1" d="M68.9,63.1c-.3.2-.6.4-.8.5-.3,0-.5.1-.8.1-.5,0-.9-.1-1.1-.4-.3-.2-.4-.5-.4-.9s0-.4.1-.6c.1-.2.2-.3.4-.4.2-.1.3-.2.5-.2.1,0,.4,0,.7-.1.6,0,1.1-.2,1.4-.3,0-.1,0-.2,0-.2,0-.3,0-.5-.2-.7-.2-.2-.5-.3-.9-.3s-.6,0-.8.2-.3.3-.4.7h-.7c0-.4.2-.7.3-.9s.4-.3.7-.5.6-.2,1-.2.7,0,.9.1c.2,0,.4.2.5.3.1.1.2.3.2.5,0,.1,0,.4,0,.7v1c0,.7,0,1.2,0,1.3s0,.4.2.5h-.8c0-.2-.1-.3-.2-.6ZM68.8,61.4c-.3.1-.7.2-1.2.3-.3,0-.5,0-.7.2s-.2.1-.3.2c0,.1-.1.2-.1.4,0,.2,0,.4.2.5s.4.2.7.2.6,0,.8-.2.4-.3.5-.5c0-.2.1-.4.1-.8v-.3Z"/>
          <path class="cls-1" d="M70.8,58.3v-.9h.8v.9h-.8ZM70.8,63.6v-4.5h.8v4.5h-.8Z"/>
          <path class="cls-1" d="M72.7,63.6v-6.2h.8v6.2h-.8Z"/>
          <path class="cls-1" d="M77.5,63.1c-.3.2-.6.4-.8.5-.3,0-.5.1-.8.1-.5,0-.9-.1-1.1-.4-.3-.2-.4-.5-.4-.9s0-.4.1-.6c.1-.2.2-.3.4-.4.2-.1.3-.2.5-.2.1,0,.4,0,.7-.1.6,0,1.1-.2,1.4-.3,0-.1,0-.2,0-.2,0-.3,0-.5-.2-.7-.2-.2-.5-.3-.9-.3s-.6,0-.8.2-.3.3-.4.7h-.7c0-.4.2-.7.3-.9s.4-.3.7-.5.6-.2,1-.2.7,0,.9.1c.2,0,.4.2.5.3.1.1.2.3.2.5,0,.1,0,.4,0,.7v1c0,.7,0,1.2,0,1.3s0,.4.2.5h-.8c0-.2-.1-.3-.2-.6ZM77.4,61.4c-.3.1-.7.2-1.2.3-.3,0-.5,0-.7.2s-.2.1-.3.2c0,.1-.1.2-.1.4,0,.2,0,.4.2.5s.4.2.7.2.6,0,.8-.2.4-.3.5-.5c0-.2.1-.4.1-.8v-.3Z"/>
          <path class="cls-1" d="M80.1,63.6h-.7v-6.2h.8v2.2c.3-.4.7-.6,1.2-.6s.5,0,.8.2c.2.1.4.3.6.5.2.2.3.4.4.7,0,.3.1.6.1.9,0,.8-.2,1.4-.6,1.8-.4.4-.8.6-1.4.6s-.9-.2-1.2-.7v.6ZM80.1,61.3c0,.5,0,.9.2,1.2.2.4.6.6,1,.6s.6-.1.9-.4.4-.7.4-1.3-.1-1-.3-1.3c-.2-.3-.5-.4-.8-.4s-.6.1-.9.4c-.2.3-.4.7-.4,1.2Z"/>
          <path class="cls-1" d="M84.2,63.6v-6.2h.8v6.2h-.8Z"/>
          <path class="cls-1" d="M89.2,62.2h.8c-.1.6-.4.9-.7,1.2-.3.3-.8.4-1.3.4s-1.2-.2-1.6-.6c-.4-.4-.6-1-.6-1.7s.2-1.3.6-1.8c.4-.4.9-.6,1.5-.6s1.1.2,1.5.6c.4.4.6,1,.6,1.7s0,.1,0,.2h-3.3c0,.5.2.9.4,1.1.2.3.6.4.9.4s.5,0,.7-.2c.2-.1.4-.4.5-.7ZM86.7,60.9h2.5c0-.4-.1-.7-.3-.8-.2-.3-.6-.4-.9-.4s-.6.1-.9.3-.4.5-.4.9Z"/>
        </g>
      </g>
    </g>
  </g>
</svg>