<?xml version="1.0" encoding="UTF-8"?>
<svg xmlns="http://www.w3.org/2000/svg" version="1.1" viewBox="0 0 102 74.1">
  <defs>
    <style>
      .cls-1 {
        stroke: #fff;
        stroke-miterlimit: 10;
        stroke-width: .8px;
      }

      .cls-1, .cls-2, .cls-3 {
        fill: #c73659;
      }

      .cls-4, .cls-3 {
        isolation: isolate;
      }

      .cls-3 {
        opacity: .1;
      }
    </style>
  </defs>
  <!-- Generator: Adobe Illustrator 28.6.0, SVG Export Plug-In . SVG Version: 1.2.0 Build 709)  -->
  <g>
    <g id="Layer_1">
      <g id="Group_885" class="cls-4">
        <path id="Path_907" class="cls-3" d="M55.1,32.5c25.4,0,41.8-33.2,41.8-7.8s-20.6,45.9-45.9,45.9c-25.4,0-45.9-20.5-45.9-45.9s24.6,7.8,50,7.8Z"/>
        <ellipse id="Ellipse_179" class="cls-3" cx="36.7" cy="9.5" rx="5.4" ry="4.9"/>
        <circle id="Ellipse_182" class="cls-3" cx="70.2" cy="13" r="1.5"/>
        <ellipse id="Ellipse_183" class="cls-3" cx="27.9" cy="16.4" rx="1.5" ry="2"/>
        <ellipse id="Ellipse_181" class="cls-3" cx="95.8" cy="64.6" rx="5.4" ry="4.9"/>
        <ellipse id="Ellipse_180" class="cls-3" cx="6.2" cy="65.6" rx="5.4" ry="4.9"/>
      </g>
      <g class="cls-4">
        <g class="cls-4">
          <path class="cls-2" d="M23.7,67.3v-6.4h.9l3.4,5.1v-5.1h.8v6.4h-.9l-3.4-5.1v5.1h-.8Z"/>
          <path class="cls-2" d="M29.8,65c0-.9.2-1.5.7-1.9.4-.3.9-.5,1.5-.5s1.2.2,1.6.6c.4.4.6,1,.6,1.7s0,1.1-.3,1.4c-.2.3-.4.6-.8.8-.3.2-.7.3-1.1.3-.7,0-1.2-.2-1.6-.6-.4-.4-.6-1-.6-1.8ZM30.6,65c0,.6.1,1,.4,1.3.3.3.6.4,1,.4s.7-.1,1-.4.4-.8.4-1.4-.1-1-.4-1.3c-.3-.3-.6-.4-1-.4s-.7.1-1,.4-.4.7-.4,1.3Z"/>
          <path class="cls-2" d="M40.6,67.3v-.6c-.3.5-.7.7-1.3.7s-.7-.1-1-.3c-.3-.2-.6-.5-.7-.9-.2-.4-.3-.8-.3-1.3s0-.9.2-1.3c.2-.4.4-.7.7-.9.3-.2.7-.3,1-.3s.5,0,.8.2c.2.1.4.3.5.5v-2.3h.8v6.4h-.7ZM38.1,65c0,.6.1,1,.4,1.3s.5.4.9.4.6-.1.9-.4c.2-.3.4-.7.4-1.3s-.1-1.1-.4-1.4-.5-.4-.9-.4-.6.1-.9.4c-.2.3-.4.7-.4,1.4Z"/>
          <path class="cls-2" d="M42.6,67.3v-4.7h.7v.7c.2-.3.3-.5.5-.7.2-.1.3-.2.5-.2.3,0,.5,0,.8.3l-.3.7c-.2-.1-.4-.2-.6-.2s-.3,0-.5.2c-.1.1-.2.2-.3.4,0,.3-.1.6-.1.9v2.4h-.8Z"/>
          <path class="cls-2" d="M48.7,66.7c-.3.2-.6.4-.8.5-.3.1-.6.2-.9.2-.5,0-.9-.1-1.2-.4-.3-.2-.4-.6-.4-1s0-.4.2-.6c.1-.2.2-.3.4-.5s.4-.2.6-.3c.2,0,.4,0,.7-.1.6,0,1.1-.2,1.4-.3,0-.1,0-.2,0-.2,0-.3,0-.5-.2-.7-.2-.2-.5-.3-.9-.3s-.6,0-.8.2c-.2.1-.3.4-.4.7h-.8c0-.4.2-.7.3-.9.2-.2.4-.4.7-.5.3-.1.7-.2,1.1-.2s.7,0,1,.1.4.2.5.4c.1.1.2.3.2.5,0,.1,0,.4,0,.7v1.1c0,.7,0,1.2,0,1.4,0,.2.1.4.2.6h-.8c0-.2-.1-.4-.2-.6ZM48.6,64.9c-.3.1-.7.2-1.3.3-.3,0-.6,0-.7.2s-.2.1-.3.3c0,.1-.1.2-.1.4,0,.2,0,.4.2.5s.4.2.7.2.6,0,.8-.2c.2-.1.4-.3.5-.5,0-.2.1-.4.1-.8v-.3Z"/>
          <path class="cls-2" d="M50.8,67.3v-4.1h-.7v-.6h.7v-.5c0-.3,0-.5,0-.7,0-.2.2-.4.4-.5.2-.1.5-.2.8-.2s.5,0,.7,0v.7c-.3,0-.4,0-.6,0-.2,0-.4,0-.5.2,0,.1-.1.3-.1.6v.4h.9v.6h-.9v4.1h-.8Z"/>
          <path class="cls-2" d="M54.9,66.6v.7c-.1,0-.3,0-.5,0-.3,0-.5,0-.7-.1-.2,0-.3-.2-.3-.4,0-.1,0-.5,0-.9v-2.7h-.6v-.6h.6v-1.2l.8-.5v1.6h.8v.6h-.8v2.7c0,.2,0,.4,0,.4,0,0,0,.1.1.2,0,0,.2,0,.3,0s.2,0,.3,0Z"/>
          <path class="cls-2" d="M57.8,65.9h.8c0,.2.2.4.4.6.2.2.5.2.8.2s.6,0,.8-.2c.2-.1.3-.3.3-.5s0-.3-.2-.4c-.1,0-.4-.2-.8-.3-.6-.1-1-.3-1.2-.4-.2-.1-.4-.3-.5-.4-.1-.2-.2-.4-.2-.6s0-.4.1-.6c0-.2.2-.3.4-.4.1,0,.3-.2.5-.2.2,0,.4,0,.7,0,.4,0,.7,0,1,.2.3.1.5.2.6.4.1.2.2.4.3.7h-.8c0-.1-.1-.3-.3-.5-.2-.1-.4-.2-.7-.2s-.6,0-.8.2-.2.3-.2.4,0,.2,0,.3c0,0,.2.2.3.2,0,0,.3,0,.7.2.6.1.9.3,1.2.4.2,0,.4.2.5.4s.2.4.2.7,0,.5-.2.7c-.2.2-.4.4-.7.5-.3.1-.6.2-1,.2-.6,0-1.1-.1-1.4-.4-.3-.3-.5-.6-.6-1.1Z"/>
          <path class="cls-2" d="M65.7,66.7c-.3.2-.6.4-.8.5-.3.1-.6.2-.9.2-.5,0-.9-.1-1.2-.4-.3-.2-.4-.6-.4-1s0-.4.2-.6c.1-.2.2-.3.4-.5.2-.1.4-.2.6-.3.2,0,.4,0,.7-.1.6,0,1.1-.2,1.4-.3,0-.1,0-.2,0-.2,0-.3,0-.5-.2-.7-.2-.2-.5-.3-.9-.3s-.6,0-.8.2c-.2.1-.3.4-.4.7h-.8c0-.4.2-.7.3-.9.2-.2.4-.4.7-.5.3-.1.7-.2,1.1-.2s.7,0,1,.1.4.2.5.4c.1.1.2.3.2.5,0,.1,0,.4,0,.7v1.1c0,.7,0,1.2,0,1.4,0,.2.1.4.2.6h-.8c0-.2-.1-.4-.2-.6ZM65.6,64.9c-.3.1-.7.2-1.3.3-.3,0-.6,0-.7.2s-.2.1-.3.3c0,.1-.1.2-.1.4,0,.2,0,.4.2.5.2.1.4.2.7.2s.6,0,.8-.2c.2-.1.4-.3.5-.5,0-.2.1-.4.1-.8v-.3Z"/>
          <path class="cls-2" d="M68.9,67.3l-1.8-4.7h.8l1,2.8c.1.3.2.6.3.9,0-.2.2-.5.3-.9l1-2.8h.8l-1.8,4.7h-.7Z"/>
          <path class="cls-2" d="M75.3,65.8h.8c-.1.6-.4.9-.7,1.2s-.8.4-1.3.4-1.2-.2-1.6-.6c-.4-.4-.6-1-.6-1.8s.2-1.4.6-1.8.9-.7,1.6-.7,1.1.2,1.5.6.6,1,.6,1.8,0,.1,0,.2h-3.5c0,.5.2.9.4,1.2.3.3.6.4,1,.4s.5,0,.7-.2.4-.4.5-.7ZM72.7,64.5h2.6c0-.4-.1-.7-.3-.9-.3-.3-.6-.5-1-.5s-.7.1-.9.4c-.2.2-.4.6-.4,1Z"/>
          <path class="cls-2" d="M80.2,67.3v-.6c-.3.5-.7.7-1.3.7s-.7-.1-1-.3c-.3-.2-.6-.5-.7-.9-.2-.4-.3-.8-.3-1.3s0-.9.2-1.3c.2-.4.4-.7.7-.9.3-.2.7-.3,1-.3s.5,0,.8.2c.2.1.4.3.5.5v-2.3h.8v6.4h-.7ZM77.7,65c0,.6.1,1,.4,1.3s.5.4.9.4.6-.1.9-.4c.2-.3.4-.7.4-1.3s-.1-1.1-.4-1.4-.5-.4-.9-.4-.6.1-.9.4c-.2.3-.4.7-.4,1.4Z"/>
        </g>
      </g>
      <g>
        <g>
          <path class="cls-1" d="M55.2,21.8l-17.4,17.4c-1.3,1.3-2.1,3.1-2.1,5v1.9c0,.8.6,1.4,1.4,1.4h1.9c1.9,0,3.7-.8,5-2.1l17.4-17.4c1.7-1.7,1.7-4.6,0-6.3-1.8-1.7-4.5-1.7-6.3,0ZM59.4,26.1l-17.3,17.4c-.8.8-1.9,1.2-3,1.2h-.5v-.5c0-1.1.5-2.2,1.2-3l17.3-17.4c.6-.6,1.6-.6,2.3,0,.6.6.6,1.6,0,2.3Z"/>
          <path class="cls-1" d="M49.4,51.8h-13.6c-2.4,0-4.3-1.9-4.3-4.3v-19.9c0-2.4,1.9-4.3,4.3-4.3h12.9c.8,0,1.4-.6,1.4-1.4s-.6-1.4-1.4-1.4h-12.9c-3.9,0-7.1,3.2-7.1,7.1v19.9c0,3.9,3.2,7.1,7.1,7.1h16.2c.5,0,1,0,1.5-.2-1.5-.6-2.8-1.6-4-2.7h0Z"/>
        </g>
        <g id="Layer_1-2">
          <g>
            <path class="cls-2" d="M61.6,57.1c-6.1,0-10.8-4.2-11.5-9.5-.7-5.5,2.9-10.9,8.6-12,6.3-1.3,12.4,3.2,13,9.6.2,2.7-.4,5.1-1.9,7.3-.2.2-.5.4-.7.5-.2,0-.6-.2-.7-.3v-.9c.6-.9,1.1-1.9,1.4-3,1.6-5.5-2.2-11.1-7.9-11.8-5.9-.6-10.8,4-10.4,9.9.2,3.5,2,6.1,5.2,7.7,3.1,1.6,6.2,1.3,9.2-.5.2,0,.3-.2.4-.3.4-.2.8-.2,1.1.2.2.4.2.8-.2,1.1-.8.5-1.6,1-2.5,1.3-1.2.5-2.6.7-3.3.7h.2,0Z"/>
            <path class="cls-2" d="M61,47.2l-3.1,3.1c-.6.6-1,.7-1.4.3s-.3-.8.3-1.4l3-3c0,0-.2-.3-.3-.4l-2.6-2.6c-.7-.7-.8-1.1-.4-1.5.4-.4.8-.3,1.5.4l2.6,2.6.4.4,2.5-2.5c.2-.2.5-.5.8-.8.4-.4.9-.4,1.2,0,.3.3.3.8,0,1.2l-3,3s-.2.2-.2.3l2.9,2.9c0,0,.3.3.4.4.3.3.3.8,0,1.1s-.8.3-1.1,0l-1.3-1.3-2-2h0s-.2-.2-.2-.2Z"/>
          </g>
        </g>
      </g>
    </g>
  </g>
</svg>