<?xml version="1.0" encoding="UTF-8"?>
<svg id="Layer_1" xmlns="http://www.w3.org/2000/svg" viewBox="0 0 102 67.1">
  <defs>
    <style>
      .cls-1 {
        font-family: MyriadConceptRoman-Regular, 'Myriad Variable Concept';
        font-size: 9px;
        font-variation-settings: 'wght' 400, 'wdth' 100;
      }

      .cls-1, .cls-2, .cls-3 {
        fill: #c73659;
      }

      .cls-3 {
        isolation: isolate;
        opacity: .1;
      }
    </style>
  </defs>
  <g id="Layer_1-3">
    <g id="Layer_1-2">
      <g id="Auction_Icon">
        <g id="Group_885">
          <path id="Path_907" class="cls-3" d="M54.81,28.4c25.8,0,42.5-33.7,42.5-7.9s-20.9,46.7-46.7,46.7S3.91,46.3,3.91,20.5s25,7.9,50.8,7.9h.1Z"/>
          <ellipse id="Ellipse_179" class="cls-3" cx="36.21" cy="5" rx="5.5" ry="5"/>
          <circle id="Ellipse_182" class="cls-3" cx="70.21" cy="8.5" r="1.5"/>
          <ellipse id="Ellipse_183" class="cls-3" cx="27.21" cy="12" rx="1.5" ry="2"/>
          <ellipse id="Ellipse_181" class="cls-3" cx="96.21" cy="61" rx="5.5" ry="5"/>
          <ellipse id="Ellipse_180" class="cls-3" cx="5.21" cy="62" rx="5.5" ry="5"/>
        </g>
      </g>
    </g>
  </g>
  <text class="cls-1" transform="translate(18.78 63.64)"><tspan x="0" y="0">No expired auction</tspan></text>
  <g>
    <g>
      <path class="cls-2" d="M50.05,12.96c0,.38-.29.62-.79.62-1.84,0-3.67,0-5.51,0h-.44v12.94c-.41-.03-.83-.05-1.25-.05v-12.68c0-.18,0-.36.03-.53.09-.55.55-.9,1.19-.9h6c.49,0,.76.22.77.59Z"/>
      <path class="cls-2" d="M70.45,48.11c.02.69-.22,1.16-.86,1.44h-11.15c.15-.41.27-.83.38-1.25h10.4v-5.05c0-.1,0-.21,0-.3.04-.37.29-.61.61-.61.35,0,.6.25.6.64,0,.71,0,1.42,0,2.13,0,.99-.03,2,0,3Z"/>
      <path class="cls-2" d="M77,40.5c-4.25-2.2-8.49-4.39-12.74-6.6-.12-.06-.23-.12-.36-.2.11-.23.22-.41.31-.61.18-.38.19-.79-.08-1.12-.23-.28-.22-.5.03-.73.78.3.88.25,1.29-.52.2-.38.39-.74.57-1.12.19-.38.1-.69-.27-.89-2.26-1.17-4.51-2.35-6.78-3.51-.4-.21-.69-.09-.91.31-.25.46-.49.92-.71,1.38-.21.42-.12.69.27.93.08.05.14.09.2.14-.08.31-.2.47-.55.44-.44-.05-.79.19-.99.57-.53,1-1.04,2-1.55,2.99.3.32.58.65.85.99.58-1.12,1.15-2.22,1.74-3.34,1.94,1,3.86,2,5.79,3-.71,1.38-1.41,2.72-2.12,4.09-1.45-.75-2.87-1.49-4.32-2.24.4.62.76,1.26,1.08,1.93.61.32,1.23.64,1.84.96-.08.17-.15.29-.24.46-.42-.23-.84-.44-1.27-.66.23.54.43,1.11.6,1.68.31.16.63.33.95.49-.09.17-.16.29-.24.46-.17-.08-.34-.18-.51-.26.12.51.23,1.01.31,1.53.05.03.09.05.14.08.37.19.67.09.86-.26.27-.49.53-.99.77-1.48.19-.38.08-.64-.27-.87-.08-.05-.14-.08-.33-.2.21-.15.37-.37.52-.37.58,0,.97-.23,1.22-.74.07-.15.15-.29.23-.44.13.07.25.11.36.17,3.28,1.7,6.56,3.4,9.84,5.1,1.04.53,2.06,1.08,3.11,1.6,1.25.62,2.6-.3,2.49-1.68-.06-.71-.5-1.15-1.11-1.46ZM62.82,31.1c-1.37-.71-2.72-1.41-4.12-2.13.08-.15.15-.29.23-.46,1.41.72,2.76,1.43,4.13,2.13-.08.16-.16.29-.24.46ZM58.66,27c.09-.18.15-.29.24-.46,1.92.99,3.84,1.98,5.78,2.98-.08.16-.14.29-.23.47-1.93-1-3.84-1.99-5.79-2.99ZM63.88,36.18c-.34-.17-.66-.33-.99-.5.15-.3.29-.57.45-.88.33.17.64.33.99.51-.16.31-.3.57-.45.87ZM76.82,42.38c-.09.13-.33.18-.51.22-.09.02-.22-.08-.31-.13-3.63-1.88-7.26-3.75-10.88-5.63-.03-.02-.07-.04-.14-.09.13-.27.27-.55.43-.87,2.17,1.12,4.29,2.22,6.41,3.31,1.53.8,3.07,1.6,4.61,2.39.14.08.32.16.38.28.07.15.08.4,0,.53Z"/>
      <path class="cls-2" d="M67.88,15.81v17.66c0,.14,0,.28-.03.42-.08.29-.28.45-.58.44-.3,0-.51-.16-.57-.46-.04-.17-.03-.35-.03-.53v-17.18h-20.81v10.73c-.4-.09-.82-.17-1.24-.23v-10.87c0-.7.17-.86.88-.86h21.51c.69,0,.86.17.86.88Z"/>
      <path class="cls-2" d="M67.88,41.18c0,.8,0,1.6,0,2.39,0,.87,0,1.75,0,2.63,0,.57-.21.77-.78.77h-7.99c.08-.41.14-.83.19-1.25h7.37v-1.26c0-1.09,0-2.18,0-3.27,0-.44.22-.69.57-.7.38-.02.63.23.64.69Z"/>
      <path class="cls-2" d="M69.22,13.58c-.44,0-.83,0-1.22,0-1.53,0-3.06,0-4.6,0-.11,0-.23,0-.34-.01-.33-.05-.55-.32-.54-.63.02-.32.25-.56.6-.57.51-.01,1.01,0,1.52,0,1.52,0,3.04,0,4.56,0,.79,0,1.23.44,1.23,1.21,0,7.2,0,14.41,0,21.61,0,.48-.23.75-.61.74-.38,0-.6-.28-.6-.77,0-3.75,0-7.5,0-11.24,0-3.28,0-6.56,0-9.84v-.51Z"/>
      <path class="cls-2" d="M61.39,12.64c-.17-.5-.36-.99-.53-1.5-.11-.37-.36-.52-.73-.52-2.57,0-5.14,0-7.71,0-.39,0-.63.18-.76.54-.15.47-.32.93-.48,1.4-.23.68,0,1.01.72,1.01,1.45,0,2.91,0,4.36,0s2.97,0,4.44,0c.63,0,.88-.35.69-.94ZM52.57,12.35c.03-.34.12-.52.53-.52,2.11.02,4.22.03,6.34,0,.4,0,.49.18.52.52h-7.39Z"/>
      <path class="cls-2" d="M63.59,42.11c.02.3-.11.52-.4.61-.14.05-.3.05-.45.05-1.12,0-2.24,0-3.37,0-.02-.41-.06-.82-.11-1.22h3.45c.12,0,.25,0,.38,0,.3.06.48.23.51.54Z"/>
      <path class="cls-2" d="M56.14,18.91c2.19,0,4.38,0,6.57,0,.11,0,.23,0,.34,0,.31.04.51.22.53.54.03.32-.13.54-.44.63-.13.04-.27.04-.41.04-4.41,0-8.82,0-13.23,0-.1,0-.2,0-.3,0-.34-.05-.55-.3-.54-.63.01-.33.24-.55.59-.58.18-.01.35,0,.53,0,2.12,0,4.23,0,6.35,0Z"/>
      <path class="cls-2" d="M56.13,24.65c-2.18,0-4.36,0-6.54,0-.15,0-.31,0-.45-.03-.3-.06-.46-.26-.46-.56,0-.3.14-.51.43-.59.14-.04.3-.04.45-.04,4.38,0,8.76,0,13.15,0,.13,0,.26,0,.38.02.33.06.51.27.5.61-.01.32-.19.52-.51.57-.14.02-.28.02-.42.02-2.18,0-4.36,0-6.54,0Z"/>
      <path class="cls-2" d="M55.21,28.56c0,.38-.27.62-.78.62h-5.01c-.49,0-.75-.23-.75-.62,0-.3.17-.5.48-.57.08-.02.18-.03.28-.03h5.01c.48,0,.77.23.77.6Z"/>
    </g>
    <path class="cls-2" d="M46.15,52.96c-6.4,0-11.34-4.43-11.99-9.96-.68-5.8,3.08-11.35,9.02-12.61,6.55-1.38,12.99,3.38,13.61,10.05.26,2.79-.4,5.35-2.01,7.65-.17.23-.48.45-.75.49-.22.03-.61-.18-.69-.37-.1-.27-.08-.69.06-.93.63-.97,1.15-1.99,1.47-3.11,1.62-5.72-2.35-11.64-8.26-12.3-6.13-.68-11.32,4.21-10.88,10.37.26,3.66,2.11,6.41,5.4,8.06,3.28,1.63,6.52,1.38,9.64-.54.16-.09.3-.21.47-.3.44-.25.87-.18,1.13.19.26.38.21.89-.23,1.15-.84.5-1.68,1.02-2.58,1.4-1.29.55-2.67.76-3.41.76h.01Z"/>
    <path class="cls-2" d="M45.51,42.7l-3.21,3.21c-.6.6-1.04.68-1.43.29-.41-.4-.32-.84.27-1.43,1.06-1.06,2.1-2.1,3.19-3.19-.14-.15-.24-.27-.36-.39-.91-.91-1.82-1.82-2.73-2.73-.7-.7-.81-1.13-.38-1.54.42-.41.84-.29,1.54.41l2.7,2.7c.12.12.24.23.4.38.88-.88,1.74-1.74,2.6-2.61.26-.26.52-.53.8-.78.43-.41.9-.43,1.26-.07.32.33.3.82-.09,1.21-1.04,1.05-2.08,2.09-3.13,3.13-.08.08-.16.17-.26.28,1.03,1.03,2.03,2.03,3.03,3.03.15.15.29.28.43.43.32.37.32.84.02,1.14-.32.33-.8.35-1.18-.01-.47-.44-.92-.91-1.37-1.36-.68-.68-1.36-1.37-2.09-2.11h.01Z"/>
    <path class="cls-2" d="M49.15,27.99c.77.35,1.5.74,2.2,1.19h-1.92c-.49,0-.75-.23-.75-.62,0-.3.17-.5.48-.57Z"/>
  </g>
</svg>