<?xml version="1.0" encoding="UTF-8"?>
<svg id="Layer_1" xmlns="http://www.w3.org/2000/svg" viewBox="0 0 102 67.1">
  <defs>
    <style>
      .cls-1 {
        font-family: MyriadConceptRoman-Regular, 'Myriad Variable Concept';
        font-size: 9px;
        font-variation-settings: 'wght' 400, 'wdth' 100;
      }

      .cls-1, .cls-2, .cls-3 {
        fill: #c73659;
      }

      .cls-3 {
        isolation: isolate;
        opacity: .1;
      }
    </style>
  </defs>
  <g id="Layer_1-3">
    <g id="Layer_1-2">
      <g id="Auction_Icon">
        <g id="Group_885">
          <path id="Path_907" class="cls-3" d="M55.1,28.4c25.8,0,42.5-33.7,42.5-7.9s-20.9,46.7-46.7,46.7S4.2,46.3,4.2,20.5s25,7.9,50.8,7.9h.1Z"/>
          <ellipse id="Ellipse_179" class="cls-3" cx="36.5" cy="5" rx="5.5" ry="5"/>
          <circle id="Ellipse_182" class="cls-3" cx="70.5" cy="8.5" r="1.5"/>
          <ellipse id="Ellipse_183" class="cls-3" cx="27.5" cy="12" rx="1.5" ry="2"/>
          <ellipse id="Ellipse_181" class="cls-3" cx="96.5" cy="61" rx="5.5" ry="5"/>
          <ellipse id="Ellipse_180" class="cls-3" cx="5.5" cy="62" rx="5.5" ry="5"/>
        </g>
      </g>
    </g>
  </g>
  <text class="cls-1" transform="translate(10.11 63.64)"><tspan x="0" y="0">No upcoming auction</tspan></text>
  <g>
    <path class="cls-2" d="M29.46,49.96c.07-.3.13-.6.22-.89.72-2.56,3-4.3,5.66-4.32.45,0,.89,0,1.32,0,.1-.38.01-.58-.32-.77-1.91-1.12-2.94-2.81-2.99-5.03-.02-1.05-.03-2.12.17-3.14.57-2.76,3.15-4.64,6.03-4.52,2.75.12,5.11,2.28,5.49,5.03.08.56.08,1.14.11,1.69h3.29c.1-.38.01-.58-.32-.77-1.91-1.12-2.94-2.81-2.99-5.03-.03-1.46-.07-2.93.09-4.37.32-2.83,2.91-4.99,5.82-4.98,2.88.01,5.45,2.17,5.76,5,.2,1.83.27,3.7-.07,5.53-.31,1.7-1.33,2.97-2.82,3.85-.39.23-.4.23-.37.77.62,0,1.25,0,1.87,0,.08,0,.17-.12.22-.21.96-1.9,1.91-3.8,2.85-5.71.08-.15.08-.35.08-.53,0-2.5,0-4.99,0-7.49,0-1.43.39-2.08,1.67-2.75v-4c-.16,0-.31,0-.46,0-1.74,0-3.48,0-5.22,0-.75,0-1.05-.29-1.05-1.04,0-1.51.02-3.03,0-4.54,0-.52.14-.9.6-1.14h3.45c.18.19.42.35.52.57.24.53-.18,1.1-.81,1.11-.68.02-1.36,0-2.03,0v3.34h11.72v-3.34c-.7,0-1.37.01-2.04,0-.63-.01-1.05-.58-.81-1.11.1-.22.34-.38.52-.57,1.15,0,2.3,0,3.45,0,.46.25.61.63.6,1.14-.03,1.51,0,3.03,0,4.54,0,.75-.29,1.04-1.05,1.04-1.74,0-3.48,0-5.22,0-.15,0-.3,0-.46,0v4c1.2.53,1.7,1.46,1.68,2.75-.03,2.27,0,4.54,0,6.81v.45c.17.04.29.07.41.1,2.26.56,3.73,1.95,4.42,4.17.33,1.07.23,2.17.21,3.26-.04,2.25-1.06,3.97-2.99,5.12-.33.19-.43.39-.32.77.46,0,.93,0,1.41,0,2.67.03,5.08,1.92,5.6,4.53.21,1.06.15,2.17.18,3.26.03.86-.26,1.13-1.13,1.13-13.6,0-27.2,0-40.8,0-.52,0-.9-.14-1.14-.6,0-1.04,0-2.08,0-3.11ZM40.06,51.96c0-.18,0-.34,0-.49,0-2.54-.02-5.08,0-7.61.02-1.91.83-3.46,2.32-4.64.34-.27.84-.45,1-.8.17-.38.05-.91.04-1.37-.05-2.09-1.65-3.81-3.77-4.07-1.98-.24-3.98,1.08-4.45,3.05-.19.8-.16,1.67-.18,2.5-.04,2.04.87,3.48,2.77,4.27.39.16.59.45.59.88,0,.59,0,1.18,0,1.77,0,.66-.32.97-.99.97-.71,0-1.43,0-2.14,0-.85.02-1.62.28-2.32.77-1.65,1.18-1.94,2.87-1.75,4.76h8.88ZM60.26,26.25c0,1.91,0,3.77,0,5.64,0,.22-.02.46-.11.65-1.1,2.22-2.21,4.44-3.32,6.65-.17.35-.46.51-.85.51-.31,0-.61,0-.94,0-.99,4.1-1.97,8.17-2.95,12.26h8.18v-.52c0-3.52,0-7.04,0-10.56,0-.29.04-.59.1-.87.34-1.4.67-2.81,1.06-4.19.4-1.4.57-2.81.53-4.27-.05-1.61-.01-3.22-.01-4.84v-.46h-1.68ZM70.85,51.97c0-.57.03-1.11,0-1.64-.12-1.91-1.59-3.56-3.49-3.81-.92-.12-1.87-.06-2.81-.09-.58-.02-.91-.34-.92-.92,0-.53.02-1.07,0-1.6-.03-.6.21-.95.77-1.18,1.42-.6,2.31-1.69,2.52-3.22.12-.88.11-1.79.05-2.68-.12-1.85-1.61-3.5-3.3-3.73-.05.41-.06.84-.15,1.24-.33,1.4-.67,2.81-1.06,4.19-.4,1.4-.55,2.81-.53,4.27.05,2.9.01,5.8.01,8.71v.46h8.91ZM43.43,51.96c0-1.19,0-2.35,0-3.51,0-1.47,0-2.94,0-4.42,0-.58.33-.96.83-.97.51,0,.85.38.86.98,0,.1,0,.2,0,.29,0,2.38,0,4.77,0,7.15v.47h4.82c-.99-4.1-1.97-8.17-2.96-12.27-.29,0-.54,0-.79,0-2.64,0-4.43,1.79-4.43,4.43,0,2.47,0,4.93,0,7.4v.43h1.68ZM46.82,31.29c-.01.09-.03.13-.03.18,0,.25-.01.51,0,.76.08,1.61.78,2.91,2.24,3.58.95.43,1.26,1,1.12,1.95,0,.01,0,.03,0,.04-.16.76.37,1.12.83,1.5.67-.41,1-.95.86-1.72-.03-.16,0-.34,0-.5-.03-.52.21-.83.69-1.03,1.95-.81,2.99-2.74,2.65-4.74-.58-.3-1.15-.52-1.62-.87-.48-.36-.86-.85-1.28-1.3-1.47,1.51-3.3,2.21-5.45,2.15ZM55.2,29.41c.12-1.9-.51-3.41-2.19-4.33-1.51-.83-3.03-.73-4.44.26-1.46,1.03-1.91,2.51-1.76,4.22,1.99.23,3.98-.85,5.04-2.72.27-.48.61-.68,1-.59.43.09.64.4.68.98.07,1.01.72,1.88,1.67,2.19ZM50.95,49.01s.07,0,.11,0c.74-3.09,1.49-6.19,2.23-9.28-.03-.02-.06-.04-.1-.06-.12.08-.25.14-.35.24-.37.36-.73.73-1.1,1.1-.53.52-.94.52-1.48-.01-.37-.36-.73-.74-1.1-1.1-.1-.09-.24-.14-.47-.27.78,3.23,1.52,6.31,2.26,9.39ZM60.26,24.53h1.68c-.04-.55.18-1.13-.39-1.52-.3-.2-.61-.2-.91,0-.56.39-.35.97-.38,1.51Z"/>
    <path class="cls-2" d="M61.35,10.58c.07.05.13.09.2.14.33.24.47.55.34.95-.12.39-.41.6-.82.59-.39,0-.66-.22-.78-.59-.12-.39.02-.71.34-.95.07-.05.13-.09.2-.14.17,0,.34,0,.5,0Z"/>
    <path class="cls-2" d="M56.86,46.43c-.27,0-.53,0-.8,0-.5-.02-.86-.38-.85-.85,0-.45.35-.81.83-.82.56-.02,1.12-.02,1.68,0,.5.01.86.38.85.85,0,.46-.36.81-.87.83-.28.01-.56,0-.84,0Z"/>
  </g>
</svg>