<?xml version="1.0" encoding="UTF-8"?>
<svg id="Layer_1" xmlns="http://www.w3.org/2000/svg" viewBox="0 0 68.99 68.99">
  <defs>
    <style>
      .cls-1 {
        fill: none;
      }

      .cls-2 {
        fill: #c73659;
      }
    </style>
  </defs>
  <g>
    <path class="cls-2" d="M18,52.64c-.68,0-1.35-.26-1.87-.78-1.03-1.03-1.03-2.71,0-3.74l13.63-13.63-13.63-13.63c-1.03-1.03-1.03-2.71,0-3.74,1.03-1.03,2.71-1.03,3.74,0l15.36,15.36c.54.54.83,1.25.83,2.02s-.3,1.48-.83,2.02l-15.36,15.36c-.52.52-1.19.78-1.87.78ZM31.48,36.22h0,0Z"/>
    <path class="cls-2" d="M35.57,52.64c-.68,0-1.35-.26-1.87-.78-1.03-1.03-1.03-2.71,0-3.74l13.63-13.63-13.63-13.63c-1.03-1.03-1.03-2.71,0-3.74,1.03-1.03,2.71-1.03,3.74,0l15.36,15.36c.54.54.83,1.25.83,2.02s-.3,1.48-.83,2.02l-15.36,15.36c-.52.52-1.19.78-1.87.78ZM49.06,36.22h0,0Z"/>
  </g>
  <rect class="cls-1" width="68.99" height="68.99" transform="translate(68.99 68.99) rotate(180)"/>
</svg>