<?xml version="1.0" encoding="UTF-8"?>
<svg xmlns="http://www.w3.org/2000/svg" version="1.1" viewBox="0 0 102 67.1" width="100" height="78.85">
  <defs>
    <style>
      .cls-1, .cls-2 {
        fill: #c73659;
      }

      .cls-2 {
        isolation: isolate;
        opacity: .1;
      }
    </style>
  </defs>
  <!-- Generator: Adobe Illustrator 28.6.0, SVG Export Plug-In . SVG Version: 1.2.0 Build 709)  -->
  <g>
    <g id="Layer_1">
      <g id="Auction_Icon">
        <g id="hammer">
          <g id="Group_849">
            <g id="Group_848">
              <path id="Path_902" class="cls-1" d="M52.6,67.1H20.1c-2.4,0-4.4-2-4.4-4.4v-3c0-2.4,2-4.4,4.4-4.4h32.5c2.4,0,4.4,2,4.4,4.4v3c0,2.4-2,4.4-4.4,4.4ZM20.1,58.2c-.8,0-1.5.7-1.5,1.5v3c0,.8.7,1.5,1.5,1.5h32.5c.8,0,1.5-.7,1.5-1.5v-3c0-.8-.7-1.5-1.5-1.5H20.1Z"/>
            </g>
          </g>
          <g id="Group_860">
            <g id="Group_856">
              <g id="Group_851">
                <g id="Group_850">
                  <path id="Path_903" class="cls-1" d="M47.2,45.3c-.7,0-1.4-.2-1.9-.7l-10.4-10.4c-1.8-1.8.2-5,.8-6,1.6-2.3,3.4-4.5,5.4-6.5,2-2,4.1-3.8,6.5-5.4,1-.7,4.2-2.7,6-.8l10.4,10.4c1.8,1.8-.2,5-.8,6-1.6,2.3-3.4,4.5-5.4,6.5-2,2-4.1,3.8-6.5,5.4-1.2.9-2.6,1.4-4.1,1.6h0ZM51.6,17.6c-.5,0-3.8,1.7-8.3,6.2s-6.2,7.8-6.1,8.5l10.2,10.1c.5,0,3.8-1.7,8.3-6.2,4.3-4.4,6.1-7.5,6.1-8.4l-10.3-10.2Z"/>
                </g>
              </g>
              <g id="Group_853">
                <g id="Group_852">
                  <path id="Path_904" class="cls-1" d="M42.3,52.1c-1.2,0-2.3-.5-3.1-1.3l-10.4-10.4c-1.7-1.7-1.7-4.5,0-6.2,0,0,0,0,0,0l2.1-2.1c1.7-1.7,4.5-1.7,6.2,0l10.4,10.4c1.7,1.7,1.7,4.5,0,6.2l-2.1,2.1c-.8.8-1.9,1.3-3.1,1.3h0ZM34,33.8c-.4,0-.8.2-1,.4l-2.1,2.1c-.6.6-.6,1.5,0,2.1,0,0,0,0,0,0l10.4,10.4c.6.6,1.5.6,2.1,0l2.1-2.1c.6-.6.6-1.5,0-2.1l-10.4-10.4c-.3-.3-.6-.4-1-.4h0Z"/>
                </g>
              </g>
              <g id="Group_855">
                <g id="Group_854">
                  <path id="Path_905" class="cls-1" d="M65.1,29.2c-1.2,0-2.3-.5-3.1-1.3l-10.4-10.4c-1.7-1.7-1.7-4.5,0-6.2l2.1-2.1c1.7-1.7,4.5-1.7,6.2,0l10.4,10.4c1.7,1.7,1.7,4.5,0,6.2l-2.1,2.1c-.8.8-1.9,1.3-3.1,1.3ZM56.8,10.9c-.4,0-.8.2-1,.4l-2.1,2.1c-.6.6-.6,1.5,0,2.1l10.4,10.4c.6.6,1.5.6,2.1,0l2.1-2.1c.6-.6.6-1.5,0-2.1l-10.4-10.4c-.3-.3-.6-.4-1-.4ZM69.2,24.8h0,0Z"/>
                </g>
              </g>
            </g>
            <g id="Group_859">
              <g id="Group_858">
                <g id="Group_857">
                  <path id="Path_906" class="cls-1" d="M80.9,67.1c-1.8,0-3.7-1-5.7-3.1s-14-15.2-21.5-24c-.5-.6-.4-1.6.2-2.1.6-.5,1.5-.4,2,.2,7.8,9.1,19.5,22.1,21.3,23.8,3.3,3.3,4.6,2,5.4,1.3.5-.4.8-.9.9-1.5,0-1-.7-2.3-2.2-3.9-1.7-1.7-14.6-13.5-23.8-21.3-.6-.5-.8-1.4-.2-2.1.5-.6,1.4-.8,2.1-.2,0,0,0,0,0,0,8.8,7.5,22,19.4,24,21.5,2.2,2.2,3.2,4.3,3,6.2-.2,1.3-.8,2.5-1.8,3.3-1,1.1-2.4,1.7-3.8,1.8h0Z"/>
                </g>
              </g>
            </g>
          </g>
        </g>
        <g id="Group_885">
          <path id="Path_907" class="cls-2" d="M55.1,28.4c25.8,0,42.5-33.7,42.5-7.9,0,25.8-20.9,46.7-46.7,46.7-25.8,0-46.7-20.9-46.7-46.7,0-25.8,25,7.9,50.8,7.9Z"/>
          <ellipse id="Ellipse_179" class="cls-2" cx="36.5" cy="5" rx="5.5" ry="5"/>
          <circle id="Ellipse_182" class="cls-2" cx="70.5" cy="8.5" r="1.5"/>
          <ellipse id="Ellipse_183" class="cls-2" cx="27.5" cy="12" rx="1.5" ry="2"/>
          <ellipse id="Ellipse_181" class="cls-2" cx="96.5" cy="61" rx="5.5" ry="5"/>
          <ellipse id="Ellipse_180" class="cls-2" cx="5.5" cy="62" rx="5.5" ry="5"/>
        </g>
      </g>
    </g>
  </g>
</svg>
