<?xml version="1.0" encoding="UTF-8"?>
<svg id="Layer_1" xmlns="http://www.w3.org/2000/svg" viewBox="0 0 102 72.96" width="110" height="78.85">
  <defs>
    <style>
      .cls-1, .cls-2 {
        fill: #c73659;
      }

      .cls-3 {
        fill: #a2547a;
      }

      .cls-3, .cls-2 {
        isolation: isolate;
        opacity: .1;
      }
    </style>
  </defs>
  <g id="Bids_icon">
    <g id="Group_885">
      <path id="Path_907" class="cls-2" d="M55.15,28.36c25.77,0,42.51-33.71,42.51-7.94,0,25.77-20.89,46.66-46.66,46.66-25.77,0-46.66-20.89-46.66-46.66,0-25.77,25.04,7.94,50.81,7.94Z"/>
      <ellipse id="Ellipse_179" class="cls-2" cx="36.5" cy="5" rx="5.5" ry="5"/>
      <circle id="Ellipse_182" class="cls-3" cx="70.5" cy="8.5" r="1.5"/>
      <ellipse id="Ellipse_183" class="cls-2" cx="27.5" cy="12" rx="1.5" ry="2"/>
      <ellipse id="Ellipse_181" class="cls-2" cx="96.5" cy="61" rx="5.5" ry="5"/>
      <ellipse id="Ellipse_180" class="cls-2" cx="5.5" cy="62" rx="5.5" ry="5"/>
    </g>
    <g id="bid">
      <path id="Path_939" class="cls-1" d="M47.68,15.08v8.69c0,.53.43.96.96.96.53,0,.96-.43.96-.96h0v-8.7c0-.53-.43-.96-.96-.96-.53,0-.96.43-.96.96Z"/>
      <path id="Path_940" class="cls-1" d="M53.11,23.64c-.06.55.35,1.04.89,1.1.03,0,.05,0,.08,0h0c.07,0,1.77,0,2.45-.02,2.48-.04,4.28-2.21,4.28-5.16,0-3.1-1.76-5.18-4.37-5.18h-2.39c-.53,0-.96.43-.96.96h0s0,8.3,0,8.3ZM56.45,16.3c1.8,0,2.45,1.68,2.45,3.26,0,2.21-1.2,3.22-2.39,3.24-.34,0-.95,0-1.47.01,0-1-.01-5.48-.01-6.51h1.43Z"/>
      <path id="Path_941" class="cls-1" d="M40.71,14.12h-2.52c-.53,0-.96.43-.96.96v8.69c0,.53.43.96.96.96h0s2.32,0,2.96,0c1.82,0,3.3-1.48,3.29-3.31,0-1.04-.49-2.01-1.32-2.63.94-1.33.62-3.18-.71-4.12-.5-.35-1.1-.54-1.71-.54h0ZM40.71,16.04c.58.02,1.03.5,1.01,1.07-.02.55-.46.99-1.01,1.01h-1.57v-2.08h1.57ZM41.15,22.81c-.37,0-1.29,0-2.01,0v-2.77h2.01c.76,0,1.38.62,1.38,1.38s-.62,1.38-1.38,1.38h0Z"/>
      <path id="Path_942" class="cls-1" d="M73.08,7.47h-1.96c-.53,0-.96.43-.96.96,0,.53.43.96.96.96h1.96c1.72,0,3.11,1.4,3.11,3.12v13.81c0,1.72-1.4,3.11-3.11,3.11h-37.19c-1.72,0-3.11-1.4-3.12-3.11v-2.85c0-.53-.43-.96-.96-.96-.53,0-.96.43-.96.96v2.85c0,2.78,2.25,5.03,5.03,5.03h12.47v1.86c0,1.45,1.18,2.63,2.63,2.63h.19v3.98h-2.66c-2.1,0-4.12.83-5.6,2.32l-5.31,5.31h-5.94c-.66-1.36-2.05-2.23-3.56-2.23h-3.15c-.53,0-.96.43-.96.96,0,.53.43.96.96.96h3.15c1.13,0,2.04.91,2.04,2.04v7.03c0,.53.43-.96.96-.96s.96,1.49.96.96v-6.84h5.94c.25,0,.5-.1.68-.28l5.59-5.59c1.12-1.13,2.65-1.76,4.24-1.76h2.67v3.8h-3.6c-.53,0-.96.43-.96.96,0,.53.43.96.96.96h12c.88-.07,1.65.59,1.72,1.48.07.88-.59,1.65-1.48,1.72-.08,0-.16,0-.24,0h-2.93c-.53,0-.96.43-.96.96,0,.53.43.96.96.96h2.4c.88-.07,1.65.59,1.72,1.48.07.88-.59,1.65-1.48,1.72-.08,0-.16,0-.24,0h-2.4c-.53,0-.96.43-.96.96,0,.53.43.96.96.96h1.87c.88.07,1.54.83,1.48,1.72-.06.79-.69,1.42-1.48,1.48h-1.87c-.53,0-.96.43-.96.96,0,.53.43.96.96.96h.68c.88-.07,1.65.59,1.72,1.48.07.88-.59,1.65-1.48,1.72-.08,0-.16,0-.24,0h-13.01c-1.75,0-3.42-.69-4.65-1.93l-.59-.59c-.18-.18-.42-.28-.68-.28h-6.33v-6.97c0-.53-.43-.96-.96-.96-.53,0-.96.43-.96.96h0v7.16c0,1.13-.91,2.04-2.04,2.04h-3.15c-.53,0-.96.43-.96.96,0,.53.43.96.96.96h3.15c1.52,0,2.9-.87,3.56-2.23h6.33l.31.31c1.59,1.6,3.76,2.5,6.01,2.49h6.86v2c0,1.69,1.37,3.06,3.06,3.06h.5c1.69,0,3.06-1.37,3.06-3.06v-2.03c1.92-.26,3.27-2.02,3.01-3.95-.08-.56-.28-1.09-.61-1.55,1.7-.92,2.34-3.05,1.41-4.76-.12-.23-.27-.44-.44-.64,1.55-1.16,1.86-3.36.69-4.91-.05-.07-.1-.13-.16-.2,1.55-1.17,1.86-3.37.69-4.92-.66-.88-1.7-1.4-2.8-1.4h-1.78v-9.7h.19c1.45,0,2.63-1.18,2.63-2.63v-1.86h12.47c2.78,0,5.03-2.25,5.03-5.03v-13.82c0-2.78-2.25-5.03-5.03-5.03ZM54.73,71.04h-.5c-.63,0-1.14-.51-1.14-1.14v-2h2.79v2c0,.63-.51,1.14-1.14,1.14,0,0,0,0,0,0ZM55.87,45.55h-2.78v-9.7h2.79v9.7ZM58.69,33.22c0,.39-.32.71-.71.71h-6.99c-.39,0-.71-.32-.71-.71v-1.86h8.42v1.86h0Z"/>
      <path id="Path_943" class="cls-1" d="M31.81,23.6c.53,0,.96.95.96.42v-11.52c0-1.72,1.4-3.11,3.11-3.12h35.33c.12-.34.18-.69.19-1.04,0-.53.53-.88,0-.88h-35.52c-2.78,0-5.03,2.25-5.03,5.03v11.52c0,.53.43-.42.96-.42Z"/>
      <g id="Group_1056">
        <path id="Path_937" class="cls-1" d="M69.09,24.12h-1.3c-1.27,0-2.38-.83-2.74-2.04-.14-.51.17-1.04.68-1.18.49-.13,1,.14,1.16.63.12.4.48.67.9.67h1.3c.63,0,1.14-.51,1.14-1.14s-.51-1.14-1.14-1.14h-1.15c-1.69,0-3.06-1.37-3.07-3.06s1.37-3.06,3.06-3.07h1.03c1.27,0,2.38.83,2.74,2.04.14.51-.17,1.04-.68,1.18-.49.13-1-.14-1.16-.63-.12-.4-.48-.67-.9-.67h-1.03c-.63,0-1.14.51-1.14,1.14s.51,1.14,1.14,1.14h1.15c1.69,0,3.06,1.37,3.06,3.07,0,1.69-1.37,3.06-3.06,3.06Z"/>
        <path id="Line_600" class="cls-1" d="M68.52,15.71c-.53,0-.96-.43-.96-.96v-2.22c0-.53.43-.96.96-.96s.96.43.96.96v2.22c0,.53-.43.96-.96.96Z"/>
        <path id="Line_601" class="cls-1" d="M68.52,26.33c-.53,0-.96-.43-.96-.96v-2.22c0-.53.43-.96.96-.96s.96.43.96.96v2.22c0,.53-.43.96-.96.96Z"/>
      </g>
    </g>
  </g>
</svg>