<svg id="Layer" xmlns="http://www.w3.org/2000/svg" width="8.191" height="8.223" viewBox="0 0 8.191 8.223">
  <path id="Path_76" data-name="Path 76" d="M4.8,12.61a.554.554,0,0,1,0-.781l7.054-7.054a.554.554,0,1,1,.781.781L5.582,12.61a.554.554,0,0,1-.781,0Z" transform="translate(-4.639 -4.58)" fill="#707070"/>
  <path id="Path_77" data-name="Path 77" d="M4.8,4.8a.554.554,0,0,1,.781,0l7.054,7.054a.554.554,0,1,1-.781.781L4.8,5.582A.554.554,0,0,1,4.8,4.8Z" transform="translate(-4.639 -4.607)" fill="#707070"/>
</svg>
