<svg xmlns="http://www.w3.org/2000/svg" width="141.313" height="101.797" viewBox="0 0 141.313 101.797">
  <g id="Group_1125" data-name="Group 1125" transform="translate(-770.343 -1411.005)">
    <g id="Group_885" data-name="Group 885" transform="translate(770.793 1410.931)">
      <path id="Path_907" data-name="Path 907" d="M70.387,24.441c35.7,0,58.893-46.7,58.893-11A64.64,64.64,0,0,1,0,13.443C0-22.256,34.688,24.441,70.387,24.441Z" transform="translate(5.566 14.917)" fill="#a2547a" opacity="0.1"/>
      <ellipse id="Ellipse_179" data-name="Ellipse 179" cx="7.62" cy="6.927" rx="7.62" ry="6.927" transform="translate(42.498 0.074)" fill="#a2547a" opacity="0.1"/>
      <circle id="Ellipse_182" data-name="Ellipse 182" cx="2.078" cy="2.078" r="2.078" transform="translate(95.144 9.772)" fill="#a2547a" opacity="0.1"/>
      <ellipse id="Ellipse_183" data-name="Ellipse 183" cx="2.078" cy="2.771" rx="2.078" ry="2.771" transform="translate(35.571 13.928)" fill="#a2547a" opacity="0.1"/>
      <ellipse id="Ellipse_181" data-name="Ellipse 181" cx="7.62" cy="6.927" rx="7.62" ry="6.927" transform="translate(125.623 77.658)" fill="#a2547a" opacity="0.1"/>
      <ellipse id="Ellipse_180" data-name="Ellipse 180" cx="7.62" cy="6.927" rx="7.62" ry="6.927" transform="translate(-0.45 79.043)" fill="#a2547a" opacity="0.1"/>
    </g>
    <g id="box" transform="translate(805.442 1444.625)">
      <path id="Path_1025" data-name="Path 1025" d="M63.21,23.975l7.5-7.5a1.389,1.389,0,0,0-.314-2.2L61.38,9.325a1.389,1.389,0,0,0-1.337,2.435l7.394,4.06L61,22.256,37.85,9.544l6.436-6.436,6.506,3.573a1.389,1.389,0,0,0,1.337-2.435L44.709.171a1.388,1.388,0,0,0-1.651.235l-7.5,7.5-7.5-7.5A1.389,1.389,0,0,0,26.407.171L.721,14.276a1.389,1.389,0,0,0-.314,2.2l7.5,7.5-7.5,7.5a1.389,1.389,0,0,0,.314,2.2l7.762,4.262V52.184A1.39,1.39,0,0,0,9.2,53.4l25.687,14.1a1.389,1.389,0,0,0,1.337,0L61.914,53.4a1.39,1.39,0,0,0,.721-1.218V37.937L70.4,33.675a1.389,1.389,0,0,0,.314-2.2ZM35.558,36.495l-22.8-12.52,22.8-12.52,22.8,12.52ZM26.831,3.108l6.435,6.436L10.117,22.256,3.68,15.82ZM10.118,25.694l23.15,12.712-6.437,6.437L3.681,32.131ZM59.856,51.362,36.947,63.942l.026-23.748c0-.767-.647-.15-1.415-.15s-1.443-.01-1.443.757l.054,23.141L11.261,51.362v-11.9L26.407,47.78a1.389,1.389,0,0,0,1.651-.235l7.5-7.5,7.5,7.5a1.389,1.389,0,0,0,1.651.235l15.147-8.317Zm-15.57-6.52L37.85,38.406,61,25.694l6.437,6.436Zm0,0" transform="translate(0)" fill="#a2547a" stroke="#a2547a" stroke-width="1"/>
      <path id="Path_1026" data-name="Path 1026" d="M396.19,50.954a1.39,1.39,0,1,0-.982-.407A1.4,1.4,0,0,0,396.19,50.954Zm0,0" transform="translate(-339.963 -41.485)" fill="#a2547a" stroke="#a2547a" stroke-width="1"/>
      <path id="Path_1027" data-name="Path 1027" d="M247.389,314.926a1.389,1.389,0,1,0,.982.407A1.4,1.4,0,0,0,247.389,314.926Zm0,0" transform="translate(-211.831 -271.183)" fill="#a2547a" stroke="#a2547a" stroke-width="1"/>
    </g>
  </g>
</svg>
