<?xml version="1.0" encoding="UTF-8"?>
<svg id="Layer_1" xmlns="http://www.w3.org/2000/svg" viewBox="0 0 27.52 27.02" width="16.76" height="16.51">
  <defs>
    <style>
      .cls-1 {
        fill: #c73659;
      }

      .cls-2 {
        isolation: isolate;
        opacity: .1;
      }
    </style>
  </defs>
  <path class="cls-1" d="M10.27,12.28H3.05c-1.31,0-2.38-1.07-2.38-2.38V2.68C.67,1.37,1.74.3,3.05.3h7.22c1.31,0,2.38,1.07,2.38,2.38v7.22c0,1.31-1.07,2.38-2.38,2.38ZM3.05,1.8c-.49,0-.88.39-.88.88v7.22c0,.49.39.88.88.88h7.22c.49,0,.88-.4.88-.88V2.68c0-.49-.39-.88-.88-.88H3.05Z"/>
  <path class="cls-1" d="M24.47,12.28h-7.22c-1.31,0-2.38-1.07-2.38-2.38V2.68c0-1.31,1.07-2.38,2.38-2.38h7.22c1.31,0,2.38,1.07,2.38,2.38v7.22c0,1.31-1.07,2.38-2.38,2.38ZM17.25,1.8c-.49,0-.88.39-.88.88v7.22c0,.49.39.88.88.88h7.22c.49,0,.88-.4.88-.88V2.68c0-.49-.39-.88-.88-.88h-7.22Z"/>
  <path class="cls-1" d="M10.27,26.72H3.05c-1.31,0-2.38-1.07-2.38-2.38v-7.22c0-1.31,1.07-2.38,2.38-2.38h7.22c1.31,0,2.38,1.07,2.38,2.38v7.22c0,1.31-1.07,2.38-2.38,2.38ZM3.05,16.24c-.49,0-.88.39-.88.88v7.22c0,.49.39.88.88.88h7.22c.49,0,.88-.39.88-.88v-7.22c0-.49-.39-.88-.88-.88H3.05Z"/>
  <path class="cls-1" d="M24.47,26.72h-7.22c-1.31,0-2.38-1.07-2.38-2.38v-7.22c0-1.31,1.07-2.38,2.38-2.38h7.22c1.31,0,2.38,1.07,2.38,2.38v7.22c0,1.31-1.07,2.38-2.38,2.38ZM17.25,16.24c-.49,0-.88.39-.88.88v7.22c0,.49.39.88.88.88h7.22c.49,0,.88-.39.88-.88v-7.22c0-.49-.39-.88-.88-.88h-7.22Z"/>
  <g class="cls-2">
    <path class="cls-1" d="M13.82,24.11c-5.88,0-10.66-4.78-10.66-10.66S7.94,2.79,13.82,2.79s10.66,4.78,10.66,10.66-4.78,10.66-10.66,10.66ZM13.82,9.79c-2.02,0-3.66,1.64-3.66,3.66s1.64,3.66,3.66,3.66,3.66-1.64,3.66-3.66-1.64-3.66-3.66-3.66Z"/>
  </g>
</svg>
