<?xml version="1.0" encoding="UTF-8"?>
<svg id="Layer_1" xmlns="http://www.w3.org/2000/svg" viewBox="0 0 102 67.1">
  <defs>
    <style>
      .cls-1, .cls-2 {
        fill: #c73659;
      }

      .cls-2 {
        isolation: isolate;
        opacity: .1;
      }
    </style>
  </defs>
  <g id="Layer_1-2" data-name="Layer_1">
    <g id="Auction_Icon">
      <g id="Group_885">
        <path id="Path_907" class="cls-2" d="M55.1,28.4c25.8,0,42.5-33.7,42.5-7.9s-20.9,46.7-46.7,46.7S4.2,46.3,4.2,20.5s25,7.9,50.8,7.9h.1Z"/>
        <ellipse id="Ellipse_179" class="cls-2" cx="36.5" cy="5" rx="5.5" ry="5"/>
        <circle id="Ellipse_182" class="cls-2" cx="70.5" cy="8.5" r="1.5"/>
        <ellipse id="Ellipse_183" class="cls-2" cx="27.5" cy="12" rx="1.5" ry="2"/>
        <ellipse id="Ellipse_181" class="cls-2" cx="96.5" cy="61" rx="5.5" ry="5"/>
        <ellipse id="Ellipse_180" class="cls-2" cx="5.5" cy="62" rx="5.5" ry="5"/>
      </g>
    </g>
  </g>
  <g>
    <path class="cls-1" d="M28.69,46.99c0-8.93,0-17.86,0-26.79.07-.38.13-.77.21-1.15,1.05-4.59,4.86-7.7,9.56-7.71,8.33-.03,16.67-.01,25,0,2.06,0,3.95.57,5.62,1.78,2.76,2,4.13,4.74,4.14,8.15.01,8.22,0,16.43,0,24.65,0,.23,0,.46-.02.7-.37,4.19-2.49,7.1-6.42,8.64-.77.3-1.62.41-2.43.61h-26.79c-.12-.03-.25-.07-.37-.09-3.82-.61-6.48-2.7-7.88-6.31-.31-.78-.42-1.64-.62-2.47ZM51.01,14.11c-4.16,0-8.32-.01-12.48,0-3.96.01-7.03,3.03-7.04,6.98-.02,8.33-.02,16.67,0,25,0,3.92,3.07,6.97,7,6.98,8.32.02,16.64.02,24.96,0,3.95,0,6.99-3.06,7-7.02.02-8.3.01-16.61-.01-24.91,0-.77-.13-1.57-.37-2.3-.97-2.9-3.57-4.71-6.66-4.72-4.13-.01-8.26,0-12.39,0Z"/>
    <path class="cls-1" d="M46.8,25.21v-2.73h16.66v2.73h-16.66Z"/>
    <path class="cls-1" d="M46.81,34.95v-2.73h16.65v2.73h-16.65Z"/>
    <path class="cls-1" d="M63.47,41.97v2.73h-16.66v-2.73h16.66Z"/>
    <path class="cls-1" d="M41.22,26.63c-.46,0-.93.01-1.39,0-.79-.02-1.37-.59-1.39-1.38-.02-.94-.02-1.88,0-2.82.02-.77.59-1.34,1.36-1.35.94-.02,1.88-.02,2.82,0,.77.02,1.35.59,1.36,1.35.02.96.02,1.91,0,2.87-.02.75-.59,1.3-1.34,1.33-.48.02-.96,0-1.43,0,0,0,0,0,0,0Z"/>
    <path class="cls-1" d="M41.22,36.37c-.46,0-.93.01-1.39,0-.79-.02-1.37-.59-1.38-1.38-.02-.93-.02-1.85,0-2.78.01-.81.59-1.38,1.41-1.4.91-.01,1.83-.01,2.74,0,.82.01,1.39.59,1.41,1.4.02.91.01,1.82,0,2.74-.01.84-.59,1.4-1.44,1.42-.45,0-.9,0-1.35,0Z"/>
    <path class="cls-1" d="M44,43.33c0,.46.01.93,0,1.39-.02.79-.59,1.37-1.38,1.39-.94.02-1.88.02-2.82,0-.77-.02-1.34-.59-1.35-1.36-.02-.94-.02-1.88,0-2.82.02-.77.59-1.35,1.35-1.36.96-.02,1.91-.02,2.87,0,.75.02,1.3.59,1.33,1.34.02.48,0,.96,0,1.43h0Z"/>
  </g>
</svg>