<?xml version="1.0" encoding="UTF-8"?>
<svg id="Layer_1" xmlns="http://www.w3.org/2000/svg" viewBox="0 0 55.82 38.14" width="90" height="66.07">
  <defs>
    <style>
      .cls-1, .cls-2 {
        fill: #c73659;
      }

      .cls-2 {
        isolation: isolate;
        opacity: .1;
      }
    </style>
  </defs>
  <g id="money_in_hands_icon">
    <g id="Group_1046">
      <path id="Path_907" class="cls-2" d="M30.18,15.52c14.1,0,23.26-18.45,23.26-4.34-.09,14.1-11.59,25.46-25.69,25.37-13.98-.09-25.29-11.4-25.37-25.37,0-14.1,13.7,4.34,27.81,4.34Z"/>
      <ellipse id="Ellipse_179" class="cls-2" cx="19.98" cy="2.74" rx="3.01" ry="2.74"/>
      <circle id="Ellipse_182" class="cls-2" cx="38.58" cy="4.65" r=".82"/>
      <ellipse id="Ellipse_183" class="cls-2" cx="15.05" cy="6.57" rx=".82" ry="1.1"/>
      <ellipse id="Ellipse_181" class="cls-2" cx="52.81" cy="33.38" rx="3.01" ry="2.74"/>
      <ellipse id="Ellipse_180" class="cls-2" cx="3.01" cy="33.93" rx="3.01" ry="2.74"/>
    </g>
    <g id="money_in_hands_icon-2">
      <path id="Path_930" class="cls-1" d="M39.21,22.54c-.61-.55-1.41-.84-2.23-.8-.82.04-1.59.4-2.14,1l-3.3,3.62c-.58-.97-1.63-1.56-2.76-1.56l-8.66.84c-2.27,0-2.7.75-3.21,2.95l-1.3,5.44c0,2.26,1.84,4.1,4.1,4.1h5.09c2.93,0,5.71-1.25,7.66-3.43l6.98-7.83c1.11-1.27,1.01-3.19-.23-4.33h0ZM37.91,25.52l-6.98,7.83c-1.56,1.74-3.78,2.74-6.12,2.75h-5.1c-1.13,0-2.05-.92-2.05-2.05l1.09-4.67c.26-1.17,1.33-1.98,2.53-1.92l7.52-.59c.65,0,1.17.53,1.17,1.17,0,.58-.43,1.07-1,1.15l-5.29.76c-.56.08-.95.6-.87,1.16.08.56.6.95,1.16.87l5.29-.76c1.18-.17,2.17-.99,2.57-2.11l4.54-4.98c.18-.21.44-.33.72-.34.27,0,.54.09.75.27.42.38.45,1.03.07,1.46h0Z"/>
      <path id="Path_931" class="cls-1" d="M28.77,21.39h.33c1.24-.01,2.23-1.03,2.22-2.27-.01-1.08-.79-1.99-1.85-2.18l-2.81-.47c-.29-.05-.49-.32-.44-.61.04-.26.27-.45.53-.45h2.26c.31,0,.59.16.74.43.23.41.75.56,1.17.33.41-.23.56-.75.33-1.17,0,0,0-.02-.02-.03-.46-.79-1.31-1.28-2.22-1.29h-.23c0-.47-.38-.86-.86-.86s-.86.38-.86.86h-.32c-1.24,0-2.24,1.01-2.24,2.25,0,1.09.79,2.03,1.87,2.21l2.8.47c.29.05.49.32.44.61-.04.26-.27.45-.53.45h-2.26c-.31,0-.59-.16-.74-.43-.25-.4-.77-.53-1.18-.29-.39.24-.53.75-.3,1.15.46.79,1.31,1.28,2.22,1.29h.23c0,.47.38.86.86.86s.86-.38.86-.86h0Z"/>
      <path id="Ellipse_201" class="cls-1" d="M27.91,11.11c-3.78,0-6.84,3.07-6.84,6.85,0,3.78,3.07,6.84,6.85,6.84,3.78,0,6.84-3.07,6.84-6.84,0-3.78-3.07-6.84-6.85-6.84M27.91,9.4c4.72,0,8.55,3.83,8.55,8.55s-3.83,8.55-8.55,8.55-8.55-3.83-8.55-8.55c0-4.72,3.83-8.55,8.55-8.55h0Z"/>
    </g>
  </g>
</svg>