<?xml version="1.0" encoding="UTF-8" standalone="no"?>
<!-- Created with Inkscape (http://www.inkscape.org/) -->

<svg
   width="207.552"
   height="87.400009"
   viewBox="0 0 54.914799 23.124585"
   xmlns="http://www.w3.org/2000/svg"><defs
     id="defs1" /><text
     xml:space="preserve"
     style="font-style:normal;font-variant:normal;font-weight:normal;font-stretch:normal;font-size:19.5164px;font-family:'Eras Demi ITC';-inkscape-font-specification:'Eras Demi ITC, Normal';font-variant-ligatures:normal;font-variant-caps:normal;font-variant-numeric:normal;font-variant-east-asian:normal;letter-spacing:-0.670343px;writing-mode:lr-tb;direction:ltr;fill:#ffffff;fill-opacity:1;stroke-width:0.327273"
     x="-0.92061609"
     y="16.279209"
     id="text2"
     transform="scale(1.0012032,0.99879824)"><tspan
       id="tspan2"
       style="font-style:normal;font-variant:normal;font-weight:normal;font-stretch:normal;font-size:19.5164px;font-family:'Eras Demi ITC';-inkscape-font-specification:'Eras Demi ITC, Normal';font-variant-ligatures:normal;font-variant-caps:normal;font-variant-numeric:normal;font-variant-east-asian:normal;letter-spacing:-0.670343px;writing-mode:lr-tb;direction:ltr;fill:#ffffff;fill-opacity:1;stroke-width:0.327273"
       x="-0.92061609"
       y="16.279209"
       dx="3.1956816 0 0 0"
       rotate="0 0 0"><tspan
   id="tspan173"
   style="letter-spacing:-0.670343px;stroke-width:0.327273">ar</tspan>  </tspan></text><g
     id="g215"
     transform="matrix(0.60504356,0.02069171,-0.02143797,0.48848168,-5.6494386,-0.97370644)"
     style="stroke-width:1.83811"><path
       style="opacity:1;fill:#d4af37;fill-opacity:1;stroke-width:0.919024;stroke-dasharray:none;paint-order:stroke fill markers"
       d="m 20.532978,37.677987 c -0.36997,-0.04561 -0.45366,-0.0785 -0.52747,-0.207288 -0.0643,-0.112249 -0.11182,-5.691854 -0.12171,-14.305891 l -0.006,-4.898493 0.12187,-0.03059 c 0.51107,-0.128273 3.3334,0.51172 3.58304,0.81249 0.0856,0.103092 0.0893,18.164172 0.004,18.355585 -0.10882,0.243631 -0.22233,0.264967 -1.53905,0.289293 -0.66596,0.0123 -1.34763,0.0055 -1.51485,-0.01511 z"
       id="path201"
       transform="translate(29.37292,7.1093695)" /><path
       style="opacity:1;fill:#ffffff;fill-opacity:1;stroke-width:0.919024;stroke-dasharray:none;paint-order:stroke fill markers"
       d="m 24.555388,33.878922 c 0,-1.294066 0.014,-1.722757 0.0585,-1.778098 0.0336,-0.04195 0.23725,-0.106936 0.47942,-0.153008 2.34339,-0.445834 4.10271,-2.278584 4.66323,-4.857917 0.14248,-0.655516 0.1542,-2.273321 0.0209,-2.8853 -0.49615,-2.278522 -1.71834,-3.838313 -4.06514,-5.188008 -1.32572,-0.762444 -2.92711,-1.299046 -4.61661,-1.546947 -0.71602,-0.105063 -1.23751,-0.13675 -2.69087,-0.16351 -1.18231,-0.02177 -1.38803,-0.05164 -1.60332,-0.232791 -0.2069,-0.17409 -0.24895,-0.384029 -0.2767,-1.381278 -0.0388,-1.39472 0.0466,-1.878298 0.37494,-2.123244 0.11748,-0.08765 0.18926,-0.09759 0.65482,-0.09073 2.92732,0.04312 3.66871,0.03506 4.24124,-0.04611 3.98653,-0.565171 6.44343,-2.525591 6.94682,-5.5430395 0.10986,-0.658505 0.0746,-2.150112 -0.067,-2.834888 -0.44989,-2.175566 -1.66552,-3.556738 -3.71099,-4.21638202 l -0.40926,-0.131982 v -1.697543 c 0,-1.66531898 0.003,-1.69754198 0.0934,-1.69754198 0.18991,0 1.16218,0.229539 1.66851,0.393911 0.67008,0.217538 1.78607,0.779846 2.35066,1.18441 0.52457,0.37590698 1.34359,1.14813598 1.74327,1.64370598 1.83615,2.27665202 2.57259,5.37459502 1.97725,8.31756802 -0.58404,2.8871565 -2.35698,5.2067245 -5.0039,6.5466745 -0.37277,0.188714 -0.53697,0.296559 -0.53711,0.352783 -1.6e-4,0.05264 0.11557,0.142658 0.33068,0.257249 1.54432,0.822671 2.41178,1.444651 3.4132,2.447329 1.40161,1.403387 2.41369,3.187507 2.84536,5.015894 0.27569,1.167747 0.34353,2.58693 0.17576,3.676619 -0.33319,2.163902 -1.29773,4.11657 -2.76616,5.599985 -0.8808,0.88977 -1.68873,1.451467 -2.80636,1.95104 -0.97422,0.435478 -2.27433,0.792914 -3.12206,0.858348 l -0.36248,0.02798 z"
       id="path202"
       transform="translate(29.37292,7.1093695)" /><path
       style="opacity:1;fill:#d4af37;fill-opacity:1;stroke-width:0.919024;stroke-dasharray:none;paint-order:stroke fill markers"
       d="m 18.376118,34.572509 c -1.65671,-0.850474 -2.62636,-1.698368 -3.55761,-3.110847 -0.61452,-0.932052 -1.00851,-1.754848 -1.37004,-2.860973 -0.31586,-0.966462 -0.28583,-1.15692 0.21034,-1.333717 0.49028,-0.174702 2.27222,-0.465778 2.63692,-0.430737 0.34274,0.03293 0.48392,0.208981 0.70601,0.880258 0.39114,1.182217 0.84532,1.948138 1.54425,2.604096 l 0.44352,0.416258 v 2.042517 c 0,1.693971 -0.0109,2.042517 -0.0638,2.042517 -0.0351,0 -0.28242,-0.112217 -0.5496,-0.249372 z"
       id="path203"
       transform="translate(29.37292,7.1093695)" /><path
       style="opacity:1;fill:#d4af37;fill-opacity:1;stroke-width:0.919024;stroke-dasharray:none;paint-order:stroke fill markers"
       d="m 19.948488,12.652132 c -0.0439,-0.07109 -0.0408,-14.7924095 0.003,-15.7018295 0.0379,-0.78195 0.0631,-0.83108 0.45103,-0.879531 0.13587,-0.01696 0.84786,-0.02384 1.58221,-0.01524 1.46802,0.01717 1.54395,0.03159 1.60586,0.305086 0.0467,0.206185 0.0854,13.228211 0.0433,14.5606895 l -0.0377,1.192689 -0.2564,0.08501 c -0.90393,0.299667 -3.28952,0.618386 -3.39167,0.453128 z"
       id="path204"
       transform="translate(29.37292,7.1093695)" /><path
       style="opacity:1;fill:#d4af37;fill-opacity:1;stroke-width:0.919024;stroke-dasharray:none;paint-order:stroke fill markers"
       d="m 15.247738,3.6679195 c -1.90997,-0.262964 -1.99437,-0.31845 -1.7272,-1.135499 0.19738,-0.603554 0.66699,-1.54853702 1.0028,-2.01792402 0.75303,-1.052502 1.67367,-1.83790698 2.87163,-2.44973498 0.44355,-0.226533 1.43473,-0.613841 1.57094,-0.613841 0.0614,0 0.0704,0.220274 0.0704,1.72392198 v 1.723922 l -0.28455,0.17564302 c -0.81273,0.50164 -1.34107,1.14603 -1.79946,2.194685 -0.15314,0.350324 -0.20582,0.426 -0.33364,0.479414 -0.19135,0.07995 -0.21498,0.07856 -1.37089,-0.08059 z"
       id="path205"
       transform="translate(29.37292,7.1093695)" /><path
       style="opacity:1;fill:#ffffff;fill-opacity:1;stroke-width:3.47354;stroke-dasharray:none;paint-order:stroke fill markers"
       d="m 186.5,44.78255 c 0,-18.50491 0.18876,-30.463932 0.49349,-31.265442 l 0.4935,-1.297991 6.1315,0.140441 L 199.75,12.5 l 0.12888,30.061724 0.12888,30.061726 -1.62888,0.348755 c -2.77945,0.595105 -10.08351,1.77389 -11.00388,1.77589 -0.82362,0.0018 -0.875,-1.757725 -0.875,-29.965545 z"
       id="path206"
       transform="scale(0.26458333)" /><path
       style="opacity:1;fill:#ffffff;fill-opacity:1;stroke-width:3.47354;stroke-dasharray:none;paint-order:stroke fill markers"
       d="m 187.93639,168.94361 c -0.47585,-0.14229 -0.9406,-1.01137 -1.1195,-2.09345 -0.16824,-1.01759 -0.30836,-17.30016 -0.31139,-36.18349 -0.004,-26.28224 0.13534,-34.380283 0.59509,-34.533535 0.93,-0.31 5.78978,0.526676 9.52441,1.639754 L 200,98.778783 v 34.706097 c 0,27.22237 -0.13477,34.79067 -0.625,35.09831 -0.70101,0.4399 -10.17458,0.73841 -11.43861,0.36042 z"
       id="path207"
       transform="scale(0.26458333)" /><path
       style="opacity:1;fill:#d4af37;fill-opacity:1;stroke-width:3.47353;stroke-dasharray:none;paint-order:stroke fill markers"
       d="m 203.82353,154.98667 0.0625,-6.9007 6.6901,-1.88668 c -0.68907,0.19432 3.59766,-1.54391 6.83164,-5.03691 6.36893,-6.87904 8.13709,-17.32786 4.9867,-26.6548 -2.81066,-8.32117 -10.90664,-15.086176 -22.02595,-18.945378 -5.42493,-1.882838 -9.98965,-2.806085 -18.22569,-2.689005 -9.09205,0.129249 -8.86929,-0.451085 -8.90167,-7.428288 -0.0118,-2.535223 0.2806,-4.390426 0.51933,-5.401092 0.39446,-1.669941 0.98996,-1.7113 0.90644,-1.661042 -0.13406,0.08067 -0.0686,0.0038 0.23041,-0.288406 0.13764,-0.134498 -0.019,-0.03923 0.33614,-0.166523 0.38326,-0.137371 0.67008,-0.1461 0.67008,-0.1461 l 9.38013,0.104513 c 9.4685,0.105498 10.52903,-0.907034 13.89214,-1.663084 1.9296,-0.433787 3.91912,-0.944876 5.12307,-1.445759 7.65788,-3.185937 13.12129,-8.953315 14.92722,-16.057822 0.80764,-3.177235 0.73784,-10.623326 -0.1457,-14.077917 -0.94654,-3.700919 -2.91413,-7.298044 -5.25981,-9.643728 -1.97852,-1.978515 -5.38746,-3.893251 -8.0677,-4.816073 l -1.94043,-0.584594 v -6.689734 -6.314734 l 1.1601,0.215336 c 0.39668,0.07363 0.78444,0.149212 1.16372,0.226843 8.15173,1.668495 12.38837,4.471722 17.20472,9.046776 10.98168,10.43151 14.0555,28.596036 7.2303,43.002131 -3.43252,7.245084 -7.99972,12.010159 -16.10646,16.07069 -0.95632,0.479004 -1.95231,0.972016 -1.89835,1.246579 0.0527,0.26823 2.23623,1.412028 4.4321,2.732741 8.60665,5.176491 13.95427,10.76177 17.86961,18.89718 2.04674,4.25277 2.88734,7.65061 3.44226,12.4239 1.44914,12.46497 -4.55171,26.23484 -14.63876,33.71267 -2.19752,1.6291 -5.23953,3.34525 -8.47326,4.61512 -3.28274,1.28911 -6.76001,2.12167 -9.342,2.39186 l -2.03293,0.21273 z"
       id="path211"
       
       transform="scale(0.26458333)" /><path
       style="opacity:1;fill:#d4af37;fill-opacity:1;stroke-width:3.47353;stroke-dasharray:none;paint-order:stroke fill markers"
       d="m 188.67299,169.1193 c -1.99458,-0.0155 -1.45706,-0.66543 -1.81942,-1.85638 -0.17428,-0.57279 -0.3652,-7.96161 -0.3652,-34.6583 0,-18.66762 0.15921,-34.460696 0.23905,-35.109228 0.0825,-0.670431 0.23634,-1.415142 0.36382,-1.46406 0.74623,-0.286356 6.49817,0.754199 10.35798,1.947715 l 2.60675,0.80605 -0.0277,32.629073 c -0.0153,29.77476 -0.0197,36.65456 -0.38328,37.01814 -0.29739,0.29739 -0.68986,0.76686 -9.16263,0.70105 z"
       id="path214"
       
       transform="scale(0.26458333)" /><path
       style="opacity:1;fill:#d4af37;fill-opacity:1;stroke-width:3.47353;stroke-dasharray:none;paint-order:stroke fill markers"
       d="m 186.63894,71.517333 c -0.31812,-3.818974 -0.28406,-57.257604 0.0641,-58.303855 0.43135,-1.053483 -0.68235,-1.340408 6.88497,-0.863357 l 6.33668,0.09655 0.0591,30.2449 c 0.0322,16.48005 0.74573,30.048247 -0.0469,29.985747 -0.105,-0.0083 -2.89129,0.640815 -5.7158,1.126951 -2.82451,0.486136 -6.16819,0.954656 -6.72218,0.954656 -1.0064,0 -0.61684,-0.322813 -0.85997,-3.241592 z"
       id="path212"
       
       transform="scale(0.26458333)" /><path
       style="opacity:1;fill:#ffffff;fill-opacity:1;stroke-width:3.47354;stroke-dasharray:none;paint-order:stroke fill markers"
       d="m 178.25,155.93024 c -6.94692,-4.0525 -12.49684,-11.00841 -15.59635,-19.54746 -1.68271,-4.63581 -1.46627,-5.68068 1.34635,-6.49955 1.2375,-0.3603 3.8299,-0.79134 5.76089,-0.95788 4.04798,-0.34912 4.00703,-0.37814 5.74973,4.07465 1.49708,3.8252 2.98368,6.21073 5.22968,8.39202 l 1.78641,1.73494 -0.13836,7.56834 -0.13835,7.56835 z"
       id="path209"
       transform="scale(0.26458333)" /><path
       style="opacity:1;fill:#ffffff;fill-opacity:1;stroke-width:3.47353;stroke-dasharray:none;paint-order:stroke fill markers"
       d="m 168.02625,40.552584 c -4.12103,-0.605113 -5.2631,-0.898336 -5.87251,-1.50774 -0.55295,-0.552949 -0.48408,-1.179246 0.37396,-3.400751 3.26179,-8.444956 8.80129,-13.944438 17.5411,-17.414373 0.887,-0.352162 1.84857,-0.687463 2.13682,-0.745114 l 0.52409,-0.104818 0.11668,4.126416 c 0.0642,2.269529 0.11686,5.133338 0.11708,6.364019 l 4.1e-4,2.237603 -1.45841,0.973309 c -1.57459,1.050849 -3.29219,2.686223 -4.30343,4.097427 -0.34835,0.486136 -1.1408,1.891804 -1.761,3.123706 -0.6202,1.231904 -1.30704,2.365485 -1.52632,2.519068 -0.56122,0.393097 -1.75082,0.338803 -5.88847,-0.268752 z"
       id="path210"
       transform="scale(0.26458333)" /><path
       style="opacity:1;fill:#d4af37;fill-opacity:1;stroke-width:3.47353;stroke-dasharray:none;paint-order:stroke fill markers"
       d="m 164.56089,40.06101 c -1.9955,-0.351136 -2.21574,-0.872017 -2.51372,-1.119319 -0.70073,-0.581557 -0.35613,-1.795016 1.15429,-5.090536 3.38969,-7.395782 8.58308,-12.829607 16.92627,-15.725101 l 2.60402,-0.903721 0.10508,1.569004 c 0.0486,0.725222 0.20219,3.575418 0.19931,6.297779 l -0.0802,5.051406 -0.34154,0.220875 -1.41301,0.999919 c -2.30981,1.634543 -3.8281,3.19218 -5.57423,6.691166 l -1.25647,2.517769 c 0,0 -1.3751,1.059153 -2.30118,0.392485 -0.16543,-0.11909 0.97155,0.199919 0.66395,0.189208 -0.43496,-0.01515 -6.19655,-0.720996 -6.75038,-0.912537 -1.18095,-0.408427 1.19738,0.193189 0.0624,-0.0065 z"
       id="path213"
       transform="scale(0.26458333)"
        /><path
       style="opacity:1;fill:#d4af37;fill-opacity:1;stroke-width:3.47353;stroke-dasharray:none;paint-order:stroke fill markers"
       d="m 179.33495,156.79159 c -3.44507,-1.84658 -5.10999,-3.31896 -7.28761,-5.42097 -4.42009,-4.26662 -7.86719,-10.01811 -9.93179,-16.33605 -0.5851,-1.79045 -0.92565,-3.27056 -0.49428,-3.88643 0.15227,-0.21739 0.66365,-0.73097 1.02183,-0.91212 1.34649,-0.68099 6.11676,-1.6116 8.89217,-1.61772 1.53267,-0.003 1.76351,0.10175 2.3196,0.66482 0.37381,0.37834 0.91963,1.60927 1.53815,3.12262 1.93173,4.7264 4.16619,7.55321 5.43576,8.87879 l 1.86132,1.94345 -0.13586,7.48092 -0.26086,7.66843 z"
       id="path215"
       transform="scale(0.26458333)"
        /></g><text
     xml:space="preserve"
     style="font-style:normal;font-variant:normal;font-weight:normal;font-stretch:normal;font-size:19.0228px;font-family:'Eras Demi ITC';-inkscape-font-specification:'Eras Demi ITC, Normal';font-variant-ligatures:normal;font-variant-caps:normal;font-variant-numeric:normal;font-variant-east-asian:normal;letter-spacing:-0.5625px;writing-mode:lr-tb;direction:ltr;opacity:1;fill:#ffffff;fill-opacity:1;stroke-width:0.499997;stroke-dasharray:none;paint-order:stroke fill markers"
     x="32.874683"
     y="15.819444"
     id="text215"
     transform="scale(0.975887,1.0247088)"><tspan
       
       id="tspan215"
       style="fill:#ffffff;fill-opacity:1;stroke-width:0.499997"
       x="32.874683"
       y="15.819444">on</tspan></text></svg>
