<?xml version="1.0" encoding="UTF-8" standalone="no"?>
<!-- Created with Inkscape (http://www.inkscape.org/) -->

<svg
   width="448.10089"
   height="168.92419"
   viewBox="0 0 118.56002 44.694526"
   version="1.1"
   id="svg1"
   xml:space="preserve"
   xmlns="http://www.w3.org/2000/svg"><defs
     id="defs1"><rect
       x="252.5"
       y="11.5"
       width="461.5"
       height="212.5"
       id="rect217" /><rect
       x="277.5"
       y="29"
       width="391.5"
       height="142"
       id="rect216" /><rect
       x="220.5"
       y="23"
       width="443.5"
       height="160"
       id="rect171" /><rect
       x="-344"
       y="-164"
       width="560"
       height="212"
       id="rect169" /></defs><g
     id="g217"
     transform="translate(-49.210823,-2.9689548)"><path
       d="m 52.215122,19.112345 q 0.309249,-1.503416 0.375512,-2.108961 0.08844,-0.605542 0.287162,-1.837508 3.00421,-0.668187 5.301549,-0.939636 2.297339,-0.271451 4.440065,-0.271451 2.429864,0 4.462129,0.5429 2.032264,0.52202 3.180934,1.691346 1.14867,1.169326 1.14867,3.361805 0,1.190203 -0.35345,6.07631 -0.35342,4.865221 -0.41971,10.064539 -1.67882,-0.04177 -3.09256,-0.04177 -1.34748,0 -3.158846,0.04177 0.287185,-2.526577 0.463885,-5.846622 l 0.287185,-5.199316 q -0.83942,0.522022 -1.281218,0.730829 -0.441797,0.208829 -0.994033,0.396733 -0.552259,0.167059 -1.943915,0.542903 -1.391655,0.354972 -2.231052,0.626423 -0.839421,0.271449 -1.524205,0.626423 -0.662696,0.334091 -1.126582,0.772588 -0.463885,0.417616 -0.684784,0.897875 -0.198881,0.459375 -0.198881,1.002278 0,0.876993 0.530148,1.524297 0.552259,0.626423 1.369569,0.876994 0.817332,0.250568 1.921827,0.250568 0.706871,0 1.480006,-0.104403 0.795245,-0.104404 2.120615,-0.522018 -0.463885,1.190205 -1.082384,3.549735 -1.568379,0.250568 -2.49615,0.31321 -0.92777,0.06266 -1.723015,0.06266 -2.783312,0 -4.572567,-0.709946 -1.789279,-0.709946 -2.650787,-2.255125 -0.83942,-1.54518 -0.83942,-3.111239 0,-0.897873 0.33136,-1.774867 0.331337,-0.876991 0.971946,-1.607818 0.640609,-0.730831 1.65673,-1.399013 1.016143,-0.689068 2.937947,-1.315491 1.921804,-0.647306 5.080651,-1.29461 0.83942,-0.167059 1.745103,-0.396733 0.905683,-0.250571 1.435831,-0.480261 0.552235,-0.229687 0.949858,-0.584659 0.397623,-0.375855 0.574323,-0.772588 0.198881,-0.396737 0.198881,-0.814353 0,-0.814349 -0.574323,-1.378131 -0.552236,-0.563779 -1.457919,-0.772586 -0.883595,-0.22969 -1.966002,-0.22969 -4.020331,0 -8.880083,1.816628 z m 22.369341,16.579344 0.64061,-9.918376 0.17665,-5.763097 q 0.0442,-1.774866 0.0442,-3.570613 0,-0.31321 -0.0442,-1.983675 2.05435,0.04177 3.0263,0.04177 1.12658,0 2.98212,-0.04177 l -0.11044,2.944194 q 0.83942,-1.127565 1.43583,-1.670467 0.59644,-0.563779 1.3254,-0.960515 0.75103,-0.396735 1.65671,-0.605542 0.90569,-0.208807 1.85555,-0.208807 0.88359,0 1.81137,0.208807 0,1.941912 0.19888,4.927866 -1.30329,-0.334093 -2.36361,-0.334093 -1.28122,0 -2.27525,0.375855 -0.97193,0.354974 -1.76718,1.10668 -0.77313,0.730826 -1.28119,1.816627 -0.41971,0.876994 -0.61853,2.276007 -0.17665,1.085801 -0.30924,3.71678 -0.11044,2.630979 -0.11044,5.178436 0,0.981397 0.0662,2.463933 -1.67881,-0.04177 -3.07047,-0.04177 -1.36957,0 -3.26931,0.04177 z"
       id="text2"
       style="font-size:19.5164px;font-family:'Eras Demi ITC';letter-spacing:-0.670343px;fill:#ffffff;stroke-width:0.327274"
       aria-label="ar  " /><text
       xml:space="preserve"
       style="font-style:normal;font-variant:normal;font-weight:normal;font-stretch:normal;font-size:31.0989px;font-family:'Eras Demi ITC';font-variant-ligatures:normal;font-variant-caps:normal;font-variant-numeric:normal;font-variant-east-asian:normal;letter-spacing:-1.09802px;writing-mode:lr-tb;direction:ltr;fill:#d4af37;fill-opacity:1;stroke-width:0.356146;stroke-dasharray:none;paint-order:stroke fill markers"
       x="142.18556"
       y="30.292608"
       id="text146"
       transform="matrix(0.92100261,-0.01068322,0.0125928,1.0856272,0,0)"><tspan
         id="tspan146"
         style="font-style:normal;font-variant:normal;font-weight:normal;font-stretch:normal;font-size:31.0989px;font-family:'Eras Demi ITC';font-variant-ligatures:normal;font-variant-caps:normal;font-variant-numeric:normal;font-variant-east-asian:normal;letter-spacing:-1.09802px;writing-mode:lr-tb;direction:ltr;fill:#ffffff;fill-opacity:1;stroke-width:0.356147"
         x="142.18556"
         y="30.292608"
         rotate="0" /></text><text
       xml:space="preserve"
       transform="scale(0.26458333)"
       id="text169"
       style="font-style:normal;font-variant:normal;font-weight:normal;font-stretch:normal;font-size:140.343px;font-family:Ravie;font-variant-ligatures:normal;font-variant-caps:normal;font-variant-numeric:normal;font-variant-east-asian:normal;letter-spacing:-13.84px;writing-mode:lr-tb;direction:ltr;white-space:pre;shape-inside:url(#rect169);opacity:1;fill:#000000;fill-opacity:1;stroke-width:1.88976;stroke-dasharray:none;paint-order:stroke fill markers" /><text
       xml:space="preserve"
       transform="scale(0.26458333)"
       id="text171"
       style="font-style:normal;font-variant:normal;font-weight:normal;font-stretch:normal;font-size:140.343px;font-family:'Eras Demi ITC';font-variant-ligatures:normal;font-variant-caps:normal;font-variant-numeric:normal;font-variant-east-asian:normal;letter-spacing:-4.64px;writing-mode:lr-tb;direction:ltr;white-space:pre;shape-inside:url(#rect171);opacity:1;fill:#000000;fill-opacity:1;stroke-width:1.88976;stroke-dasharray:none;paint-order:stroke fill markers" /><g
       id="g215"
       transform="matrix(0.60504356,0.02069171,-0.02143797,0.48848168,85.803788,45.43421)"
       style="stroke-width:1.83811"><path
         style="opacity:1;fill:#d4af37;fill-opacity:1;stroke-width:0.919023;stroke-dasharray:none;paint-order:stroke fill markers"
         d="M 21.20145,3.4654583 C 20.345137,3.3672903 20.151529,3.2955601 19.981207,3.0133792 19.83283,2.7674359 19.746791,-9.4739378 19.760907,-28.373031 l 0.0072,-10.747232 0.28227,-0.06774 c 1.183718,-0.284055 7.714879,1.105588 8.291522,1.764193 0.197728,0.225744 0.128691,39.8516206 -0.06961,40.2720176 -0.252974,0.5350839 -0.51585,0.582478 -3.564263,0.6426127 -1.541801,0.030407 -3.11989,0.018989 -3.506929,-0.02537 z"
         id="path201" /><path
         style="opacity:1;fill:#ffffff;fill-opacity:1;stroke-width:0.919023;stroke-dasharray:none;paint-order:stroke fill markers"
         d="m 30.529962,-4.8903283 c 0.0056,-2.8391725 0.03981,-3.7797895 0.143071,-3.9014365 0.07797,-0.09221 0.549712,-0.235835 1.110552,-0.338161 5.427044,-0.9901942 9.50788,-5.0202732 10.816609,-10.6821932 0.332669,-1.43893 0.366753,-4.988444 0.06078,-6.330437 -1.138835,-4.996515 -3.961597,-8.412408 -9.38882,-11.361576 -3.065868,-1.665987 -6.770903,-2.835063 -10.681161,-3.370278 -1.65719,-0.226829 -2.864343,-0.293672 -6.228868,-0.344917 -2.737045,-0.04169 -3.213174,-0.106168 -3.710809,-0.502507 -0.478241,-0.380889 -0.574688,-0.841278 -0.634647,-3.029093 -0.08383,-3.059808 0.115953,-4.121214 0.877138,-4.66031 0.272352,-0.192907 0.438571,-0.215084 1.516349,-0.202425 6.776785,0.07957 8.493195,0.05808 9.818994,-0.122951 9.231552,-1.260459 14.927888,-5.574229 16.10624,-12.197079 0.257163,-1.44532 0.181943,-4.717715 -0.14293,-6.219382 -1.032182,-4.770867 -3.840525,-7.794905 -8.573111,-9.231653 l -0.946901,-0.287466 0.0073,-3.724398 c 0.0072,-3.6537 0.01424,-3.724412 0.223522,-3.724876 0.439656,-9.76e-4 2.68955,0.497637 3.861036,0.855667 1.550352,0.473835 4.131539,1.701803 5.43687,2.586514 1.212805,0.822043 3.105581,2.512101 4.028742,3.597326 4.241037,4.985528 5.932647,11.778612 4.541747,18.238535 -1.36451,6.337404 -5.478961,11.435629 -11.612542,14.389067 -0.863802,0.415952 -1.244401,0.653407 -1.244967,0.776763 -5.96e-4,0.115492 0.266941,0.312397 0.764445,0.562704 3.571684,1.797002 5.577249,3.157166 7.891305,5.351892 3.238799,3.071822 5.574179,6.980971 6.565669,10.990224 0.63323,2.560613 0.78419,5.673943 0.3911,8.065576 -0.78066,4.749299 -3.02203,9.038394 -6.427928,12.3005402 -2.042942,1.956675 -3.915776,3.1931844 -6.505322,4.2949854 -2.257265,0.9604403 -5.268655,1.7513309 -7.231497,1.8992472 l -0.839289,0.06325 z"
         id="path202" /><path
         style="opacity:1;fill:#d4af37;fill-opacity:1;stroke-width:0.919023;stroke-dasharray:none;paint-order:stroke fill markers"
         d="m 16.221496,-3.3368617 c -3.831757,-1.8574246 -6.072928,-3.7127181 -8.2227741,-6.8069043 -1.418657,-2.04176 -2.327238,-3.844945 -3.159455,-6.26992 -0.727088,-2.118789 -0.656748,-2.536807 0.492683,-2.927247 1.135787,-0.385813 5.2623661,-1.033585 6.1065241,-0.958579 0.793328,0.07049 1.119414,0.456017 1.630685,1.927654 0.900439,2.591767 1.94861,4.26986 3.563868,5.705438 l 1.024995,0.910989 -0.0088,4.4812692 c -0.0073,3.7165621 -0.03401,4.4813258 -0.156478,4.4815976 -0.08126,1.803e-4 -0.653342,-0.2447527 -1.271295,-0.5442975 z"
         id="path203" /><path
         style="opacity:1;fill:#d4af37;fill-opacity:1;stroke-width:0.919023;stroke-dasharray:none;paint-order:stroke fill markers"
         d="m 19.955839,-51.438108 c -0.101327,-0.155745 -0.0309,-32.454245 0.07441,-34.449731 0.0911,-1.715788 0.149653,-1.823709 1.047949,-1.932003 0.314622,-0.03791 1.962963,-0.05666 3.663003,-0.04156 3.398505,0.03013 3.574227,0.06138 3.716379,0.661108 0.107228,0.452128 0.14087,29.022173 0.03768,31.945839 l -0.0924,2.616946 -0.593951,0.187829 c -2.093955,0.66211 -7.618149,1.373632 -7.853924,1.011582 z"
         id="path204" /><path
         style="opacity:1;fill:#d4af37;fill-opacity:1;stroke-width:0.919023;stroke-dasharray:none;paint-order:stroke fill markers"
         d="m 9.1118429,-71.125268 c -4.420597,-0.567131 -4.615752,-0.688433 -3.993722,-2.482406 0.459543,-1.325207 1.550787,-3.400906 2.33023,-4.432463 1.747844,-2.313051 3.8825711,-4.040954 6.6585701,-5.389454 1.027825,-0.499291 3.324147,-1.354133 3.639484,-1.354833 0.142146,-3.15e-4 0.162035,0.482918 0.155574,3.781912 l -0.0074,3.782274 -0.65951,0.386822 c -1.883688,1.10477 -3.109604,2.521271 -4.175318,4.824368 -0.356036,0.769395 -0.478319,0.935699 -0.774462,1.053545 -0.443333,0.176393 -0.498033,0.173465 -3.1733691,-0.169772 z"
         id="path205" /><path
         style="opacity:1;fill:#ffffff;fill-opacity:1;stroke-width:0.919041;stroke-dasharray:none;paint-order:stroke fill markers"
         d="m 20.043971,-68.798831 c 0.02104,-10.74199 0.150247,-17.684389 0.33782,-18.150075 l 0.30376,-0.754147 3.755574,0.0732 3.755578,0.0732 0.04477,17.45048 0.04477,17.45048 -0.998135,0.204653 c -1.703174,0.349233 -6.178477,1.043438 -6.742233,1.045849 -0.504494,0.0022 -0.533967,-1.01916 -0.5019,-17.393635 z"
         id="path206" /><path
         style="opacity:1;fill:#ffffff;fill-opacity:1;stroke-width:0.919041;stroke-dasharray:none;paint-order:stroke fill markers"
         d="M 20.782654,3.2739883 C 20.491343,3.1920313 20.207658,2.6881715 20.099306,2.0602742 19.997419,1.4697986 19.930086,-7.9819488 19.949701,-18.943607 c 0.02733,-15.256682 0.121988,-19.957738 0.40377,-20.047325 0.570007,-0.181215 3.545821,0.297865 5.83213,0.938924 l 2.066148,0.57933 -0.03946,20.146685 C 28.181339,-1.5235649 28.090182,2.8699722 27.789558,3.0492208 27.359667,3.3055324 21.556474,3.4916917 20.782647,3.2739861 Z"
         id="path207" /><path
         style="opacity:1;fill:#d4af37;fill-opacity:1;stroke-width:0.919039;stroke-dasharray:none;paint-order:stroke fill markers"
         d="m 30.529882,-4.8495266 0.04614,-4.0059002 4.100037,-1.104299 c -0.422299,0.113729 2.205433,-0.9011212 4.190316,-2.9331812 3.908986,-4.0019 5.003915,-10.069781 3.084809,-15.479734 -1.712156,-4.826571 -6.663501,-8.742614 -13.470036,-10.967745 -3.320796,-1.085605 -6.115775,-1.615339 -11.160737,-1.536182 -5.569307,0.08739 -5.432201,-0.249799 -5.444103,-4.299979 -0.0043,-1.471667 0.176863,-2.548999 0.324246,-3.136009 0.243518,-0.969928 0.608326,-0.994746 0.557111,-0.965457 -0.08221,0.047 -0.04202,0.0023 0.141455,-0.167737 0.08447,-0.07827 -0.01153,-0.02275 0.206092,-0.09712 0.234914,-0.08027 0.410611,-0.08573 0.410611,-0.08573 l 5.745499,0.04791 c 5.799627,0.04837 6.450386,-0.540837 8.511254,-0.98429 1.182433,-0.254434 2.401654,-0.553823 3.13968,-0.846218 4.69431,-1.859826 8.047373,-5.21518 9.161637,-9.341759 0.498316,-1.845463 0.464026,-6.167782 -0.07324,-8.171951 -0.575576,-2.147076 -1.776697,-4.232511 -3.210832,-5.59098 -1.209654,-1.145827 -3.295559,-2.252686 -4.936239,-2.784738 l -1.187908,-0.336714 0.0076,-3.883352 0.0072,-3.665667 0.710352,0.123437 c 0.242895,0.0422 0.480324,0.08555 0.712556,0.130102 4.991289,0.957473 7.583174,2.578971 10.528136,5.22822 6.714757,6.040504 8.576917,16.580728 4.379897,24.952659 -2.110764,4.210393 -4.913731,6.982697 -9.883974,9.35083 -0.586319,0.27936 -1.196956,0.566903 -1.164216,0.726212 0.03197,0.155636 1.368154,0.816635 2.711692,1.580317 5.265953,2.993225 8.535178,6.22818 10.924198,10.945417 1.24886,2.465926 1.75989,4.43721 2.09437,7.207323 0.87347,7.233872 -2.81789,15.2353572 -9.005015,19.5899028 -1.3479,0.9486703 -3.213178,1.9490182 -5.19538,2.6905664 -2.012244,0.7527824 -4.143126,1.2408034 -5.72498,1.4011568 l -1.245476,0.1262628 z"
         id="path211" /><path
         style="opacity:1;fill:#d4af37;fill-opacity:1;stroke-width:0.919039;stroke-dasharray:none;paint-order:stroke fill markers"
         d="M 21.233644,3.374975 C 20.011922,3.368695 20.341906,2.9906763 20.121304,2.2998304 20.015207,1.9675653 19.90665,-2.3213429 19.936999,-17.818615 c 0.02122,-10.836445 0.136687,-20.00445 0.186342,-20.381026 0.0513,-0.389294 0.146371,-0.821803 0.224514,-0.850373 0.457414,-0.167231 3.979473,0.428975 6.342367,1.11656 l 1.595799,0.464364 -0.05399,18.941024 C 28.188921,-1.2439715 28.178321,2.7497175 27.955175,2.9612695 27.772687,3.1342971 27.531744,3.407364 22.341986,3.3806774 Z"
         id="path214" /><path
         style="opacity:1;fill:#d4af37;fill-opacity:1;stroke-width:0.919039;stroke-dasharray:none;paint-order:stroke fill markers"
         d="m 20.098682,-53.279634 c -0.190518,-2.21646 -0.108909,-33.237317 0.105546,-33.845134 0.265412,-0.612127 -0.416436,-0.77717 4.218239,-0.510531 l 3.881299,0.04744 0.0018,17.556907 c 9.43e-4,9.56653 0.422623,17.441818 -0.06282,17.406615 -0.0643,-0.0047 -1.771732,0.375919 -3.502384,0.661956 -1.730651,0.286039 -3.77929,0.562557 -4.118628,0.56331 -0.616449,0.0014 -0.377465,-0.18655 -0.523073,-1.880558 z"
         id="path212" /><path
         style="opacity:1;fill:#ffffff;fill-opacity:1;stroke-width:0.919041;stroke-dasharray:none;paint-order:stroke fill markers"
         d="M 14.864237,-4.2670329 C 10.613642,-6.6100438 7.2220519,-10.640365 5.3332159,-15.593023 c -1.025442,-2.688773 -0.891679,-3.295608 0.832067,-3.774779 0.758417,-0.210835 2.346832,-0.464575 3.529813,-0.563873 2.4799091,-0.208161 2.4548581,-0.224955 3.5172531,2.357495 0.91266,2.218471 1.820535,3.601238 3.193801,4.864412 l 1.092258,1.004694 -0.09336,4.3935662 -0.09334,4.3935708 z"
         id="path209" /><path
         style="opacity:1;fill:#ffffff;fill-opacity:1;stroke-width:0.919039;stroke-dasharray:none;paint-order:stroke fill markers"
         d="m 8.7330399,-71.229193 c -2.52357,-0.345664 -3.22279,-0.514326 -3.595378,-0.867253 -0.338072,-0.320232 -0.295175,-0.683888 0.232919,-1.974624 2.007549,-4.906682 5.4069151,-8.106627 10.7642621,-10.132782 0.543714,-0.205642 1.133088,-0.40158 1.309715,-0.435437 l 0.321139,-0.06155 0.06678,2.395202 c 0.03675,1.317362 0.06575,2.979715 0.06449,3.694118 l -0.0023,1.298914 -0.894427,0.566982 c -0.965679,0.612154 -2.019623,1.563811 -2.640642,2.384381 -0.213933,0.282674 -0.700926,1.099732 -1.082217,1.815688 -0.381293,0.715955 -0.803291,1.374927 -0.937782,1.464378 -0.344213,0.228953 -1.072817,0.199049 -3.6065641,-0.148012 z"
         id="path210" /><path
         style="opacity:1;fill:#d4af37;fill-opacity:1;stroke-width:0.919039;stroke-dasharray:none;paint-order:stroke fill markers"
         d="m 6.6109579,-71.509838 c -1.221906,-0.201132 -1.356215,-0.503191 -1.538457,-0.646342 -0.428557,-0.336639 -0.216109,-1.041513 0.712825,-2.956595 2.084696,-4.297816 5.2719861,-7.459179 10.3857381,-9.151334 l 1.596069,-0.528145 0.06258,0.910656 c 0.02895,0.42092 0.119792,2.075235 0.114914,3.655553 l -0.05487,2.932421 -0.209465,0.128681 -0.866649,0.582368 c -1.416687,0.95198 -2.348457,1.858243 -3.421993,3.891758 l -0.772489,1.463257 c 0,0 -0.843496,0.616702 -1.40999,0.230962 -0.101196,-0.06891 0.594877,0.114742 0.406474,0.108929 -0.266408,-0.0082 -3.7947581,-0.410113 -4.1337771,-0.520548 -0.722903,-0.235484 0.733212,0.110508 0.03823,-0.0038 z"
         id="path213" /><path
         style="opacity:1;fill:#d4af37;fill-opacity:1;stroke-width:0.919039;stroke-dasharray:none;paint-order:stroke fill markers"
         d="M 15.527821,-3.7684985 C 13.41971,-4.8357446 12.401569,-5.6881898 11.070099,-6.9054348 8.3675089,-9.3761768 6.2625929,-12.710197 5.0051439,-16.374919 c -0.356355,-1.038551 -0.56327,-1.897282 -0.298343,-2.255377 0.09352,-0.126406 0.407338,-0.425227 0.626939,-0.53087 0.825541,-0.397142 3.748536,-0.943836 5.4485671,-0.951163 0.938811,-0.0038 1.080087,0.05667 1.420071,0.382773 0.228531,0.219116 0.561471,0.932922 0.938613,1.810572 1.177872,2.741021 2.543334,4.378931 3.319477,5.146699 l 1.137906,1.12563 -0.09173,4.3428162 -0.168505,4.4518338 z"
         id="path215" /></g><path
       d="m 130.88801,13.846724 q 2.41347,0 4.61709,0.730822 2.22457,0.709942 3.7566,2.129829 1.55301,1.399001 2.3295,3.445308 0.77654,2.025422 0.77654,4.280536 0,2.380395 -0.8185,4.593745 -0.81846,2.21335 -2.37149,3.842044 -1.55303,1.60781 -3.88253,2.422157 -2.30854,0.793465 -4.93187,0.793465 -2.43445,0 -4.63804,-0.709942 -2.18264,-0.730825 -3.73565,-2.171591 -1.55301,-1.440766 -2.3715,-3.507951 -0.79749,-2.067187 -0.79749,-4.322298 0,-2.296872 0.73454,-4.38494 0.73454,-2.088062 2.28755,-3.716755 1.57398,-1.628693 4.00845,-2.526561 2.43445,-0.897868 5.0368,-0.897868 z m 0,4.301414 q -1.82584,0 -3.27391,0.89787 -1.42711,0.876987 -2.14065,2.630963 -0.69256,1.753976 -0.69256,3.821161 0,1.816619 0.56664,3.236502 0.58763,1.419888 1.88881,2.296875 1.32215,0.876987 3.12701,0.876987 1.84684,0 3.23196,-0.897868 1.40608,-0.918751 2.09865,-2.672725 0.71356,-1.774855 0.71356,-3.904684 0,-1.733096 -0.54566,-3.152981 -0.54566,-1.419883 -1.84684,-2.275991 -1.28017,-0.856109 -3.12701,-0.856109 z m 13.6506,17.435357 q 0.48269,-4.739912 0.7975,-10.649142 0.33578,-5.909225 0.37775,-10.586495 1.93077,0.04177 3.08504,0.04177 1.36413,0 2.89616,-0.04177 l -0.23083,3.549716 q 0.65056,-0.91875 1.13325,-1.46165 0.5037,-0.542896 1.25922,-1.064914 0.77651,-0.522015 1.63696,-0.835225 0.88144,-0.313211 1.95176,-0.501137 1.0913,-0.187922 2.26657,-0.187922 1.86779,0 3.56772,0.480256 1.72091,0.459375 2.77025,1.482528 1.04932,1.023152 1.38511,2.234231 0.33578,1.211079 0.33578,2.568321 0,0.563779 -0.063,1.795738 l -0.44071,9.12485 q -0.084,1.900139 -0.10488,4.050849 -1.65795,-0.04177 -2.83323,-0.04177 -1.59498,0 -3.21096,0.04177 0.16786,-1.816618 0.41973,-6.326843 0.25186,-4.531103 0.25186,-5.99275 0,-1.649571 -0.52469,-2.651844 -0.52466,-1.00227 -1.63695,-1.524288 -1.0913,-0.522015 -2.37148,-0.522015 -1.2592,0 -2.35049,0.480254 -1.09135,0.480256 -1.88884,1.399004 -0.83946,0.939628 -1.30115,2.317755 -0.48271,1.461644 -0.71354,4.823432 -0.20999,2.985934 -0.33581,7.997295 -1.61598,-0.04177 -2.91713,-0.04177 -1.32217,0 -3.21096,0.04177 z"
       id="text215"
       style="font-size:19.0228px;font-family:'Eras Demi ITC';letter-spacing:-0.5625px;fill:#ffffff;stroke-width:0.499996;paint-order:stroke fill markers"
       aria-label="on" /><text
       xml:space="preserve"
       transform="scale(0.26458333)"
       id="text216"
       style="font-style:normal;font-variant:normal;font-weight:normal;font-stretch:normal;font-size:140.343px;font-family:'Eras Demi ITC';font-variant-ligatures:normal;font-variant-caps:normal;font-variant-numeric:normal;font-variant-east-asian:normal;letter-spacing:-4.15px;writing-mode:lr-tb;direction:ltr;white-space:pre;shape-inside:url(#rect216);opacity:1;fill:#ffffff;fill-opacity:1;stroke-width:1.88976;stroke-dasharray:none;paint-order:stroke fill markers" /><text
       xml:space="preserve"
       transform="scale(0.26458333)"
       id="text217"
       style="font-style:normal;font-variant:normal;font-weight:normal;font-stretch:normal;font-size:140.343px;font-family:'Eras Demi ITC';font-variant-ligatures:normal;font-variant-caps:normal;font-variant-numeric:normal;font-variant-east-asian:normal;letter-spacing:-4.15px;writing-mode:lr-tb;direction:ltr;white-space:pre;shape-inside:url(#rect217);opacity:1;fill:#ffffff;fill-opacity:1;stroke-width:1.88976;stroke-dasharray:none;paint-order:stroke fill markers" /></g></svg>

