<svg width="150" height="42" viewBox="0 0 150 42" fill="none" xmlns="http://www.w3.org/2000/svg">
<path d="M44.256 28.5752C44.1305 28.5752 44.0083 28.535 43.9073 28.4605C43.8064 28.386 43.732 28.2811 43.695 28.1612L42.026 22.6942C41.9893 22.5741 41.9149 22.469 41.8139 22.3945C41.7129 22.3199 41.5905 22.2798 41.465 22.2802H34.428C34.3039 22.2803 34.183 22.3199 34.0829 22.3932C33.9827 22.4666 33.9085 22.5699 33.871 22.6882L32.115 28.1712C32.0774 28.2895 32.0032 28.3928 31.9031 28.4661C31.803 28.5395 31.6821 28.5791 31.558 28.5792C30.8074 28.5792 30.068 28.397 29.4034 28.0482C28.7388 27.6995 28.1688 27.1945 27.7424 26.5768C27.316 25.9591 27.046 25.2471 26.9555 24.502C26.865 23.7569 26.9568 23.001 27.223 22.2992L34.895 2.07718C34.9372 1.96628 35.0121 1.87083 35.1098 1.8035C35.2075 1.73616 35.3233 1.70015 35.442 1.7002C37.1419 1.70008 38.8009 2.22192 40.1946 3.19519C41.5883 4.16846 42.6496 5.54621 43.235 7.14218L48.742 22.1552C49.0061 22.8771 49.0922 23.6521 48.9929 24.4144C48.8936 25.1767 48.6119 25.9038 48.1716 26.5339C47.7312 27.164 47.1454 27.6787 46.4637 28.034C45.7821 28.3894 45.0247 28.575 44.256 28.5752ZM39.401 16.8122C39.494 16.8127 39.5857 16.7909 39.6685 16.7488C39.7514 16.7066 39.823 16.6452 39.8773 16.5698C39.9316 16.4943 39.9671 16.407 39.9808 16.315C39.9945 16.2231 39.986 16.1292 39.956 16.0412C39.6027 15.0019 39.226 13.8482 38.826 12.5802C38.717 12.2372 38.62 11.9262 38.531 11.6482C38.4936 11.5297 38.4195 11.4262 38.3194 11.3528C38.2192 11.2793 38.0982 11.2397 37.974 11.2397C37.8498 11.2397 37.7288 11.2793 37.6286 11.3528C37.5285 11.4262 37.4543 11.5297 37.417 11.6482C37.3263 11.9389 37.224 12.2625 37.11 12.6192C36.71 13.8805 36.3353 15.0205 35.986 16.0392C35.9556 16.1273 35.9468 16.2214 35.9603 16.3137C35.9738 16.4059 36.0092 16.4935 36.0636 16.5692C36.1179 16.6449 36.1897 16.7065 36.2727 16.7488C36.3558 16.7911 36.4478 16.8128 36.541 16.8122H39.401Z" fill="white"/>
<path d="M58.505 28.7212C57.738 28.7885 56.9657 28.6829 56.2449 28.4123C55.5241 28.1416 54.8731 27.7127 54.34 27.1572C53.4581 26.1092 52.9888 24.7755 53.02 23.4062V2.06419C53.0197 1.74831 53.1312 1.44253 53.3347 1.20094C53.5382 0.959355 53.8207 0.79757 54.132 0.744214L58.315 0.0202154C58.5074 -0.0131831 58.7048 -0.0040891 58.8933 0.0468572C59.0819 0.0978035 59.2569 0.18937 59.4063 0.315137C59.5557 0.440905 59.6758 0.597807 59.7582 0.774885C59.8405 0.951962 59.8831 1.14491 59.883 1.34019V22.0862C59.8376 22.4499 59.9242 22.8179 60.127 23.1232C60.3935 23.3175 60.7233 23.4046 61.051 23.3672C61.3475 23.3647 61.6435 23.3423 61.937 23.3002C61.9403 23.3012 61.9438 23.3012 61.947 23.3002C62.2963 23.2514 62.6507 23.3419 62.9338 23.5522C63.2169 23.7625 63.4059 24.0757 63.46 24.4242L63.779 26.5192C63.8273 26.8236 63.7683 27.1354 63.6122 27.4011C63.456 27.6669 63.2124 27.8702 62.923 27.9762C62.536 28.1132 62.108 28.2422 61.636 28.3632C60.6113 28.6125 59.5595 28.7327 58.505 28.7212Z" fill="white"/>
<path d="M71.6819 28.7212C70.9149 28.7885 70.1426 28.6829 69.4218 28.4123C68.701 28.1416 68.0501 27.7127 67.517 27.1572C66.635 26.1092 66.1657 24.7755 66.197 23.4062V2.06419C66.1967 1.74831 66.3081 1.44253 66.5117 1.20094C66.7152 0.959355 66.9976 0.79757 67.309 0.744214L71.492 0.0202154C71.6844 -0.0131831 71.8818 -0.0040891 72.0703 0.0468572C72.2588 0.0978035 72.4339 0.18937 72.5833 0.315137C72.7327 0.440905 72.8528 0.597807 72.9351 0.774885C73.0175 0.951962 73.0601 1.14491 73.06 1.34019V22.0862C73.0145 22.4499 73.1011 22.8179 73.304 23.1232C73.5705 23.3175 73.9003 23.4046 74.228 23.3672C74.5245 23.3647 74.8205 23.3423 75.114 23.3002C75.1172 23.3012 75.1207 23.3012 75.124 23.3002C75.4732 23.2514 75.8277 23.3419 76.1108 23.5522C76.3938 23.7625 76.5829 24.0757 76.637 24.4242L76.956 26.5192C77.0042 26.8236 76.9452 27.1354 76.7891 27.4011C76.633 27.6669 76.3894 27.8702 76.1 27.9762C75.713 28.1132 75.285 28.2422 74.813 28.3632C73.7883 28.6123 72.7364 28.7326 71.6819 28.7212Z" fill="white"/>
<path d="M115.217 27.0484L114.299 23.4644C114.292 23.4317 114.281 23.3999 114.267 23.3694C114.194 23.2269 114.068 23.119 113.916 23.0694C113.894 23.0614 113.868 23.0554 113.843 23.0474C113.672 23.0193 113.497 23.0193 113.326 23.0474C113.241 23.0694 113.15 23.0914 113.06 23.1144C113.05 23.1144 113.038 23.1144 113.028 23.1224C112.802 23.1724 112.556 23.2224 112.293 23.2674C111.896 23.3343 111.495 23.3677 111.093 23.3674C110.165 23.3574 109.7 22.9174 109.699 22.0474V14.5084C109.699 14.419 109.716 14.3305 109.75 14.2478C109.784 14.1652 109.834 14.0901 109.898 14.0269C109.961 13.9638 110.036 13.9137 110.118 13.8796C110.201 13.8455 110.29 13.8281 110.379 13.8284H112.887C113.049 13.8288 113.205 13.7715 113.328 13.6668C113.451 13.5621 113.533 13.417 113.559 13.2574L114.189 9.37637C114.205 9.27906 114.199 9.17949 114.173 9.08453C114.146 8.98958 114.099 8.9015 114.035 8.82645C113.972 8.75139 113.892 8.69115 113.802 8.64987C113.713 8.60859 113.616 8.58726 113.517 8.58737H110.384C110.295 8.58777 110.207 8.57059 110.124 8.5368C110.042 8.50302 109.967 8.4533 109.904 8.3905C109.841 8.3277 109.79 8.25305 109.756 8.17084C109.722 8.08862 109.704 8.00045 109.704 7.91138V4.21136C109.704 4.10953 109.681 4.00899 109.637 3.91714C109.593 3.8253 109.529 3.74448 109.45 3.6806C109.37 3.61673 109.278 3.57144 109.179 3.54803C109.08 3.52463 108.976 3.52373 108.877 3.54538L107.012 3.95938C106.036 4.17358 105.146 4.67482 104.457 5.39868C103.768 6.12254 103.312 7.0359 103.146 8.02136C103.118 8.17931 103.036 8.32239 102.913 8.42538C102.79 8.52838 102.634 8.58469 102.474 8.58438H100.504C100.324 8.58438 100.151 8.65601 100.023 8.78354C99.8956 8.91106 99.824 9.08403 99.824 9.26437V13.1444C99.8237 13.2338 99.8411 13.3223 99.8752 13.4049C99.9093 13.4875 99.9593 13.5626 100.023 13.6258C100.086 13.689 100.161 13.7391 100.243 13.7732C100.326 13.8072 100.415 13.8246 100.504 13.8244H102.197C102.286 13.8241 102.375 13.8415 102.458 13.8756C102.54 13.9097 102.615 13.9598 102.678 14.0229C102.742 14.0861 102.792 14.1612 102.826 14.2438C102.86 14.3265 102.877 14.415 102.877 14.5044V23.0984C102.877 25.1204 103.468 26.5624 104.651 27.4244C106.069 28.3529 107.746 28.8055 109.438 28.7164C110.584 28.7365 111.729 28.6261 112.85 28.3874C113.534 28.2224 114.17 28.0504 114.763 27.8644C114.928 27.812 115.068 27.6984 115.152 27.5466C115.237 27.3949 115.26 27.2166 115.217 27.0484Z" fill="white"/>
<path d="M128.905 8.17239H128.869C127.703 8.14803 126.553 8.44558 125.545 9.03238C125.042 9.31936 124.582 9.67513 124.177 10.0894C124.108 10.16 124.025 10.2145 123.933 10.2493C123.841 10.284 123.742 10.298 123.644 10.2903C123.546 10.2825 123.451 10.2532 123.366 10.2045C123.28 10.1558 123.207 10.0888 123.15 10.0084C123.132 9.97639 123.114 9.94606 123.096 9.91739C122.726 9.3014 122.306 8.71678 121.841 8.1694C121.793 8.1194 121.768 8.08838 121.768 8.08838L116.073 9.9064L116.414 10.2474C116.436 10.2734 116.458 10.2974 116.481 10.3284C116.606 10.5004 116.781 10.7384 117.018 11.0384C117.471 11.7922 117.808 12.6101 118.018 13.4644C118.397 15.0011 118.565 16.5823 118.518 18.1644V27.8974C118.518 27.9857 118.535 28.0731 118.569 28.1547C118.603 28.2363 118.652 28.3104 118.714 28.3729C118.777 28.4353 118.851 28.4848 118.933 28.5185C119.014 28.5522 119.102 28.5695 119.19 28.5694H124.705C124.793 28.5697 124.881 28.5524 124.962 28.5188C125.044 28.4851 125.118 28.4356 125.181 28.3732C125.243 28.3107 125.293 28.2365 125.326 28.1549C125.36 28.0732 125.377 27.9857 125.377 27.8974V18.3524C125.344 17.6228 125.507 16.8977 125.849 16.2524C126.102 15.7821 126.473 15.3853 126.925 15.1004C127.241 14.8967 127.603 14.7773 127.978 14.7534C128.432 14.75 128.882 14.842 129.298 15.0234C129.385 15.0657 129.48 15.0884 129.577 15.0899C129.674 15.0915 129.77 15.0718 129.858 15.0324C129.947 14.9929 130.025 14.9346 130.089 14.8616C130.152 14.7885 130.199 14.7024 130.226 14.6094L131.154 11.2014C131.252 10.8507 131.268 10.4823 131.202 10.1243C131.136 9.76633 130.989 9.42821 130.772 9.13589C130.555 8.84357 130.273 8.60478 129.95 8.43777C129.626 8.27077 129.269 8.18 128.905 8.17239Z" fill="white"/>
<path d="M148.301 22.802C148.243 22.6831 148.148 22.5869 148.029 22.5288C147.911 22.4706 147.776 22.4538 147.647 22.481C147.391 22.5545 147.14 22.642 146.894 22.743C146.291 22.943 145.574 23.143 144.743 23.343C143.985 23.5348 143.206 23.6355 142.424 23.643C141.727 23.6928 141.038 23.4681 140.505 23.017C140.382 22.904 140.267 22.782 140.162 22.652C140.096 22.5649 140.054 22.4619 140.04 22.3534C140.026 22.2449 140.041 22.1347 140.084 22.0338C140.126 21.933 140.194 21.8451 140.281 21.7789C140.368 21.7128 140.471 21.6707 140.58 21.657C142.829 21.4166 144.98 20.6075 146.83 19.306C147.674 18.7585 148.369 18.0108 148.854 17.1295C149.339 16.2483 149.598 15.2608 149.609 14.255C149.659 12.6137 149.06 11.0189 147.942 9.81603C146.83 8.62736 145.005 8.03335 142.467 8.03402C140.668 8.01166 138.893 8.44989 137.311 9.30703C135.752 10.1622 134.475 11.4522 133.636 13.02C132.681 14.8806 132.217 16.9539 132.286 19.044C132.254 20.7946 132.571 22.5341 133.218 24.161C133.811 25.6138 134.857 26.8371 136.199 27.65C137.806 28.5445 139.629 28.9775 141.466 28.901C142.768 28.9124 144.067 28.7612 145.332 28.451C146.298 28.2171 147.249 27.9212 148.177 27.565L149.063 27.206L149.527 26.998L148.327 22.851C148.317 22.8352 148.309 22.8188 148.301 22.802ZM139.438 16.318C139.486 16.052 139.545 15.763 139.624 15.448C139.756 14.8489 140.02 14.2865 140.395 13.801C140.543 13.6035 140.735 13.4434 140.956 13.3333C141.177 13.2233 141.421 13.1663 141.668 13.167C141.826 13.166 141.982 13.1986 142.126 13.2627C142.27 13.3268 142.399 13.4209 142.504 13.5387C142.609 13.6565 142.688 13.7953 142.735 13.9459C142.782 14.0965 142.796 14.2554 142.777 14.412C142.712 15.0666 142.407 15.6739 141.921 16.117C141.452 16.6014 140.843 16.9255 140.179 17.043C140.079 17.062 139.976 17.0565 139.879 17.0271C139.781 16.9977 139.693 16.9452 139.62 16.8741C139.547 16.803 139.493 16.7154 139.461 16.6188C139.43 16.5221 139.422 16.4193 139.439 16.319L139.438 16.318Z" fill="white"/>
<path d="M95.301 22.802C95.2435 22.6831 95.1478 22.5869 95.0293 22.5288C94.9108 22.4706 94.7762 22.4538 94.647 22.481C94.3914 22.5545 94.14 22.642 93.894 22.743C93.2907 22.943 92.5737 23.143 91.743 23.343C90.9847 23.5348 90.2061 23.6355 89.424 23.643C88.7271 23.6928 88.0385 23.4681 87.505 23.017C87.3818 22.904 87.2671 22.782 87.162 22.652C87.0958 22.5649 87.0537 22.4619 87.04 22.3534C87.0262 22.2449 87.0413 22.1347 87.0837 22.0338C87.1261 21.933 87.1942 21.8451 87.2813 21.7789C87.3684 21.7128 87.4714 21.6707 87.58 21.657C89.8291 21.4166 91.98 20.6075 93.83 19.306C94.6737 18.7585 95.369 18.0108 95.8538 17.1295C96.3387 16.2483 96.5981 15.2608 96.609 14.255C96.6587 12.6137 96.0598 11.0189 94.942 9.81603C93.83 8.62736 92.005 8.03335 89.467 8.03402C87.6679 8.01166 85.8929 8.44989 84.311 9.30703C82.7519 10.1622 81.4751 11.4522 80.636 13.02C79.6812 14.8806 79.2165 16.9539 79.286 19.044C79.2539 20.7946 79.5707 22.5341 80.218 24.161C80.8114 25.6138 81.8566 26.8371 83.199 27.65C84.8058 28.5445 86.6286 28.9775 88.466 28.901C89.7684 28.9124 91.067 28.7612 92.332 28.451C93.2984 28.2171 94.2487 27.9212 95.177 27.565L96.063 27.206L96.527 26.998L95.327 22.851C95.3174 22.8352 95.3087 22.8188 95.301 22.802ZM86.438 16.318C86.486 16.052 86.545 15.763 86.624 15.448C86.7565 14.8489 87.0197 14.2865 87.395 13.801C87.5432 13.6035 87.7354 13.4434 87.9564 13.3333C88.1774 13.2233 88.4211 13.1663 88.668 13.167C88.8257 13.166 88.9819 13.1986 89.1261 13.2627C89.2703 13.3268 89.3992 13.4209 89.5041 13.5387C89.609 13.6565 89.6876 13.7953 89.7347 13.9459C89.7817 14.0965 89.7962 14.2554 89.777 14.412C89.712 15.0666 89.4071 15.6739 88.921 16.117C88.4523 16.6014 87.8427 16.9255 87.179 17.043C87.0791 17.062 86.9761 17.0565 86.8788 17.0271C86.7815 16.9977 86.6927 16.9452 86.6201 16.8741C86.5474 16.803 86.493 16.7154 86.4614 16.6188C86.4299 16.5221 86.4222 16.4193 86.439 16.319L86.438 16.318Z" fill="white"/>
<path fill-rule="evenodd" clip-rule="evenodd" d="M12.949 7.5083C12.949 7.5083 16.844 11.9983 16.805 15.5473C16.766 19.0963 13.157 20.9783 13.157 20.9783C13.157 20.9783 9.48998 19.2143 9.34298 15.6673C9.19598 12.1203 12.949 7.51331 12.949 7.51331" fill="white"/>
<path fill-rule="evenodd" clip-rule="evenodd" d="M10.661 28.2825C10.629 28.2645 10.592 28.2465 10.554 28.2285L10.654 28.2545L10.661 28.2825Z" fill="white"/>
<path fill-rule="evenodd" clip-rule="evenodd" d="M11.678 28.2781V28.5261L10.655 28.2521L10.555 28.2261C9.73333 27.9325 8.87024 27.7711 7.99799 27.7481C7.00729 27.8086 6.01935 27.5918 5.14499 27.1221C2.02499 25.4221 -0.00100708 19.8371 -0.00100708 19.8371C-0.00100708 19.8371 5.85099 18.8061 8.87799 20.6601C11.905 22.5141 11.657 26.5771 11.657 26.5771L11.671 27.7842L11.678 28.2781Z" fill="white"/>
<path fill-rule="evenodd" clip-rule="evenodd" d="M14.103 28.1941V28.4421L15.126 28.1681L15.226 28.1421C16.0477 27.8485 16.9107 27.6871 17.783 27.6641C18.7737 27.7246 19.7616 27.5079 20.636 27.0381C23.756 25.3381 25.782 19.7531 25.782 19.7531C25.782 19.7531 19.93 18.7221 16.903 20.5761C13.876 22.4301 14.124 26.4931 14.124 26.4931L14.11 27.7001L14.103 28.1941Z" fill="white"/>
<path d="M5.07599 36.5815H5.67599L6.15399 39.0666C6.24199 39.5566 6.33201 40.0455 6.42001 40.5385H6.44699C6.54699 40.0485 6.659 39.5566 6.767 39.0666L7.39899 36.5815H7.92499L8.55701 39.0666C8.66601 39.5506 8.77799 40.0455 8.88599 40.5385H8.91299C9.00099 40.0455 9.08201 39.5536 9.17001 39.0666L9.64801 36.5815H10.207L9.26401 41.1425H8.564L7.875 38.4016C7.796 38.0446 7.72399 37.7155 7.65399 37.3615H7.62698C7.55698 37.7125 7.476 38.0446 7.397 38.4016L6.72 41.1425H6.03601L5.07599 36.5815Z" fill="white"/>
<path d="M14.268 36.5815H14.848V38.4915H16.97V36.5815H17.55V41.1425H16.97V38.9966H14.848V41.1425H14.268V36.5815Z" fill="white"/>
<path d="M22.06 36.5815H24.69V37.0716H22.64V38.5016H24.369V38.9915H22.64V40.6505H24.759V41.1406H22.059L22.06 36.5815Z" fill="white"/>
<path d="M28.984 36.5815H30.414C31.342 36.5815 32.014 36.9145 32.014 37.8665C32.014 38.7765 31.346 39.2176 30.414 39.2176H29.565V41.1455H28.985L28.984 36.5815ZM30.329 38.7426C31.039 38.7426 31.429 38.4555 31.429 37.8625C31.429 37.2695 31.039 37.0496 30.329 37.0496H29.564V38.7426H30.329ZM30.299 39.0565L30.752 38.7566L32.142 41.1446H31.483L30.299 39.0565Z" fill="white"/>
<path d="M36.199 36.5815H38.829V37.0716H36.779V38.5016H38.508V38.9915H36.779V40.6505H38.898V41.1406H36.198L36.199 36.5815Z" fill="white"/>
<path d="M47.443 40.5494L47.791 40.1494C47.9525 40.3223 48.1469 40.4613 48.3627 40.5583C48.5785 40.6553 48.8115 40.7083 49.048 40.7144C49.648 40.7144 50 40.4144 50 39.9734C50 39.5084 49.67 39.3594 49.238 39.1734L48.582 38.8834C48.2762 38.8051 48.0125 38.6115 47.8463 38.3431C47.68 38.0748 47.6241 37.7525 47.6901 37.4438C47.7562 37.1352 47.9391 36.864 48.2006 36.6872C48.4621 36.5104 48.7819 36.4416 49.093 36.4954C49.3431 36.4953 49.5906 36.5452 49.8211 36.6423C50.0515 36.7393 50.2603 36.8815 50.435 37.0604L50.127 37.4324C49.9909 37.296 49.8293 37.1879 49.6513 37.1143C49.4734 37.0407 49.2826 37.003 49.09 37.0034C48.579 37.0034 48.241 37.2604 48.241 37.6684C48.241 38.1064 48.641 38.2684 48.997 38.4244L49.647 38.7054C49.916 38.7774 50.1538 38.936 50.3237 39.1567C50.4936 39.3774 50.5861 39.6479 50.587 39.9264C50.5773 40.1163 50.5286 40.3023 50.4437 40.4725C50.3589 40.6428 50.2398 40.7937 50.0939 40.9157C49.948 41.0378 49.7784 41.1284 49.5959 41.1818C49.4133 41.2353 49.2217 41.2505 49.033 41.2264C48.7357 41.2286 48.4411 41.1697 48.1676 41.0532C47.894 40.9368 47.6474 40.7653 47.443 40.5494Z" fill="white"/>
<path d="M54.748 36.5815H55.328V38.4915H57.45V36.5815H58.03V41.1425H57.45V38.9966H55.328V41.1425H54.748V36.5815Z" fill="white"/>
<path d="M62.275 38.8446C62.275 37.3846 63.075 36.4966 64.225 36.4966C65.375 36.4966 66.174 37.3856 66.174 38.8446C66.174 40.3036 65.374 41.2266 64.225 41.2266C63.076 41.2266 62.275 40.3046 62.275 38.8446ZM65.575 38.8446C65.575 37.7086 65.04 37.0066 64.224 37.0066C63.408 37.0066 62.873 37.7066 62.873 38.8446C62.873 39.9826 63.408 40.7156 64.224 40.7156C65.04 40.7156 65.575 39.9866 65.575 38.8446Z" fill="white"/>
<path d="M70.417 36.5815H71.717C72.739 36.5815 73.428 36.9266 73.428 37.9236C73.428 38.8846 72.742 39.3326 71.744 39.3326H70.994V41.1425H70.414L70.417 36.5815ZM71.674 38.8636C72.474 38.8636 72.853 38.5735 72.853 37.9265C72.853 37.2795 72.448 37.0526 71.647 37.0526H70.997V38.8625L71.674 38.8636Z" fill="white"/>
<path d="M77.611 36.5815H78.911C79.933 36.5815 80.622 36.9266 80.622 37.9236C80.622 38.8846 79.936 39.3326 78.938 39.3326H78.188V41.1425H77.608L77.611 36.5815ZM78.868 38.8636C79.668 38.8636 80.047 38.5735 80.047 37.9265C80.047 37.2795 79.642 37.0526 78.841 37.0526H78.191V38.8625L78.868 38.8636Z" fill="white"/>
<path d="M84.808 36.5815H85.388V41.1425H84.808V36.5815Z" fill="white"/>
<path d="M89.898 36.5815H90.498L92.148 39.4496L92.641 40.3925H92.668C92.638 39.9335 92.595 39.4196 92.595 38.9416V36.5815H93.145V41.1425H92.545L90.894 38.2715L90.401 37.3286H90.374C90.404 37.7916 90.45 38.2776 90.45 38.7526V41.1406H89.9V36.5815H89.898Z" fill="white"/>
<path d="M97.391 38.8662C97.3557 38.5697 97.3836 38.2692 97.4727 37.9843C97.5617 37.6994 97.7101 37.4366 97.908 37.213C98.1058 36.9895 98.3486 36.8104 98.6206 36.6873C98.8926 36.5643 99.1875 36.5002 99.486 36.4992C99.7322 36.4962 99.9764 36.5447 100.203 36.6414C100.429 36.7382 100.633 36.8812 100.801 37.0612L100.484 37.4392C100.361 37.3011 100.209 37.1914 100.04 37.1173C99.8704 37.0433 99.6869 37.0067 99.502 37.0101C98.583 37.0101 97.994 37.7172 97.994 38.8542C97.994 39.9912 98.535 40.7192 99.508 40.7192C99.8053 40.7307 100.097 40.6352 100.33 40.4501V39.2622H99.363V38.7791H100.863V40.6951C100.675 40.8721 100.455 41.01 100.213 41.1009C99.9718 41.1917 99.7148 41.2336 99.457 41.2242C99.1603 41.224 98.8669 41.1605 98.5967 41.0379C98.3264 40.9153 98.0854 40.7364 97.8898 40.5132C97.6943 40.2899 97.5486 40.0276 97.4626 39.7435C97.3766 39.4595 97.3521 39.1604 97.391 38.8662Z" fill="white"/>
<path d="M109.856 36.5815H111.21C112.138 36.5815 112.779 36.8956 112.779 37.6996C112.789 37.9146 112.73 38.1273 112.609 38.3058C112.489 38.4844 112.314 38.6193 112.111 38.6906V38.7176C112.375 38.7493 112.617 38.8792 112.789 39.0815C112.961 39.2837 113.05 39.5433 113.039 39.8086C113.039 40.7036 112.329 41.1446 111.313 41.1446H109.856V36.5815ZM111.11 38.5215C111.887 38.5215 112.21 38.2345 112.21 37.7715C112.21 37.2395 111.844 37.0406 111.14 37.0406H110.44V38.5215H111.11ZM111.231 40.6826C112.011 40.6826 112.47 40.4016 112.47 39.7876C112.47 39.2256 112.029 38.9686 111.231 38.9686H110.436V40.6826H111.231Z" fill="white"/>
<path d="M117.203 36.5815H119.833V37.0716H117.783V38.5016H119.512V38.9915H117.783V40.6505H119.902V41.1406H117.202L117.203 36.5815Z" fill="white"/>
<path d="M123.862 38.8662C123.827 38.5697 123.855 38.2692 123.944 37.9843C124.033 37.6994 124.181 37.4366 124.379 37.213C124.577 36.9895 124.82 36.8104 125.092 36.6873C125.364 36.5643 125.659 36.5002 125.957 36.4992C126.203 36.4962 126.447 36.5447 126.674 36.6414C126.9 36.7382 127.104 36.8812 127.272 37.0612L126.955 37.4392C126.832 37.3011 126.68 37.1914 126.511 37.1173C126.341 37.0433 126.158 37.0067 125.973 37.0101C125.054 37.0101 124.465 37.7172 124.465 38.8542C124.465 39.9912 125.006 40.7192 125.979 40.7192C126.276 40.7308 126.568 40.6353 126.801 40.4501V39.2622H125.834V38.7791H127.334V40.6951C127.146 40.8722 126.926 41.0101 126.684 41.101C126.443 41.1918 126.186 41.2337 125.928 41.2242C125.631 41.224 125.338 41.1605 125.068 41.0379C124.797 40.9153 124.556 40.7364 124.361 40.5132C124.165 40.2899 124.02 40.0276 123.934 39.7435C123.848 39.4595 123.823 39.1604 123.862 38.8662Z" fill="white"/>
<path d="M131.675 36.5815H132.255V41.1425H131.675V36.5815Z" fill="white"/>
<path d="M136.765 36.5815H137.365L139.015 39.4496L139.508 40.3925H139.535C139.505 39.9335 139.462 39.4196 139.462 38.9416V36.5815H140.012V41.1425H139.412L137.762 38.2715L137.269 37.3286H137.242C137.272 37.7916 137.317 38.2776 137.317 38.7526V41.1406H136.767V36.5815H136.765Z" fill="white"/>
<path d="M144.192 40.5494L144.54 40.1494C144.701 40.3225 144.896 40.4617 145.112 40.5587C145.327 40.6557 145.56 40.7086 145.797 40.7144C146.397 40.7144 146.752 40.4144 146.752 39.9734C146.752 39.5084 146.422 39.3594 145.99 39.1734L145.334 38.8834C145.028 38.8051 144.765 38.6115 144.598 38.3431C144.432 38.0748 144.376 37.7525 144.442 37.4438C144.508 37.1352 144.691 36.864 144.953 36.6872C145.214 36.5104 145.534 36.4416 145.845 36.4954C146.095 36.4953 146.343 36.5452 146.573 36.6423C146.804 36.7393 147.012 36.8815 147.187 37.0604L146.878 37.4324C146.742 37.296 146.58 37.1879 146.402 37.1143C146.224 37.0407 146.034 37.003 145.841 37.0034C145.33 37.0034 144.992 37.2604 144.992 37.6684C144.992 38.1064 145.392 38.2684 145.748 38.4244L146.398 38.7054C146.667 38.7774 146.905 38.936 147.075 39.1567C147.245 39.3774 147.337 39.6479 147.338 39.9264C147.328 40.1163 147.28 40.3023 147.195 40.4725C147.11 40.6428 146.991 40.7937 146.845 40.9157C146.699 41.0378 146.529 41.1284 146.347 41.1818C146.164 41.2353 145.973 41.2505 145.784 41.2264C145.486 41.2291 145.191 41.1703 144.917 41.0539C144.643 40.9374 144.397 40.7656 144.192 40.5494Z" fill="white"/>
</svg>
