<svg width="150" height="42" viewBox="0 0 150 42" fill="none" xmlns="http://www.w3.org/2000/svg">
<g clip-path="url(#clip0_370_962)">
<path d="M44.256 28.5752C44.1305 28.5752 44.0083 28.535 43.9073 28.4605C43.8064 28.386 43.732 28.2811 43.695 28.1612L42.026 22.6942C41.9893 22.5741 41.9149 22.469 41.8139 22.3945C41.7129 22.3199 41.5905 22.2798 41.465 22.2802H34.428C34.3039 22.2803 34.183 22.3199 34.0829 22.3932C33.9827 22.4666 33.9085 22.5699 33.871 22.6882L32.115 28.1712C32.0774 28.2895 32.0032 28.3928 31.9031 28.4661C31.803 28.5395 31.6821 28.5791 31.558 28.5792C30.8074 28.5792 30.068 28.397 29.4034 28.0482C28.7388 27.6995 28.1688 27.1945 27.7424 26.5768C27.316 25.9591 27.046 25.2471 26.9555 24.502C26.865 23.7569 26.9568 23.001 27.223 22.2992L34.895 2.07718C34.9372 1.96628 35.0121 1.87083 35.1098 1.8035C35.2075 1.73616 35.3233 1.70015 35.442 1.7002C37.1419 1.70008 38.8009 2.22192 40.1946 3.19519C41.5883 4.16846 42.6496 5.54621 43.235 7.14218L48.742 22.1552C49.0061 22.8771 49.0922 23.6521 48.9929 24.4144C48.8936 25.1767 48.6119 25.9038 48.1716 26.5339C47.7312 27.164 47.1454 27.6787 46.4637 28.034C45.7821 28.3894 45.0247 28.575 44.256 28.5752ZM39.401 16.8122C39.494 16.8127 39.5857 16.7909 39.6685 16.7488C39.7514 16.7066 39.823 16.6452 39.8773 16.5698C39.9316 16.4943 39.9671 16.407 39.9808 16.315C39.9945 16.2231 39.986 16.1292 39.956 16.0412C39.6027 15.0019 39.226 13.8482 38.826 12.5802C38.717 12.2372 38.62 11.9262 38.531 11.6482C38.4936 11.5297 38.4195 11.4262 38.3194 11.3528C38.2192 11.2793 38.0982 11.2397 37.974 11.2397C37.8498 11.2397 37.7288 11.2793 37.6286 11.3528C37.5285 11.4262 37.4543 11.5297 37.417 11.6482C37.3263 11.9389 37.224 12.2625 37.11 12.6192C36.71 13.8805 36.3353 15.0205 35.986 16.0392C35.9556 16.1273 35.9468 16.2214 35.9603 16.3137C35.9738 16.4059 36.0092 16.4935 36.0636 16.5692C36.1179 16.6449 36.1897 16.7065 36.2727 16.7488C36.3558 16.7911 36.4478 16.8128 36.541 16.8122H39.401Z" fill="#821A4D"/>
<path d="M58.505 28.7212C57.738 28.7885 56.9657 28.6829 56.2449 28.4123C55.5241 28.1416 54.8731 27.7127 54.34 27.1572C53.4581 26.1092 52.9887 24.7755 53.02 23.4062V2.06419C53.0197 1.74831 53.1312 1.44253 53.3347 1.20094C53.5382 0.959355 53.8207 0.79757 54.132 0.744214L58.315 0.0202154C58.5074 -0.0131831 58.7048 -0.0040891 58.8933 0.0468572C59.0819 0.0978035 59.2569 0.18937 59.4063 0.315137C59.5557 0.440905 59.6758 0.597807 59.7581 0.774885C59.8405 0.951962 59.8831 1.14491 59.883 1.34019V22.0862C59.8376 22.4499 59.9242 22.8179 60.127 23.1232C60.3935 23.3175 60.7233 23.4046 61.051 23.3672C61.3475 23.3647 61.6435 23.3423 61.937 23.3002C61.9403 23.3012 61.9437 23.3012 61.947 23.3002C62.2963 23.2514 62.6507 23.3419 62.9338 23.5522C63.2169 23.7625 63.4059 24.0757 63.46 24.4242L63.779 26.5192C63.8273 26.8236 63.7683 27.1354 63.6121 27.4011C63.456 27.6669 63.2124 27.8702 62.923 27.9762C62.536 28.1132 62.108 28.2422 61.636 28.3632C60.6113 28.6125 59.5595 28.7327 58.505 28.7212Z" fill="#821A4D"/>
<path d="M71.682 28.7212C70.915 28.7885 70.1427 28.6829 69.4218 28.4123C68.701 28.1416 68.0501 27.7127 67.517 27.1572C66.6351 26.1092 66.1657 24.7755 66.197 23.4062V2.06419C66.1967 1.74831 66.3082 1.44253 66.5117 1.20094C66.7152 0.959355 66.9976 0.79757 67.309 0.744214L71.492 0.0202154C71.6844 -0.0131831 71.8818 -0.0040891 72.0703 0.0468572C72.2588 0.0978035 72.4339 0.18937 72.5833 0.315137C72.7327 0.440905 72.8528 0.597807 72.9352 0.774885C73.0175 0.951962 73.0601 1.14491 73.06 1.34019V22.0862C73.0146 22.4499 73.1011 22.8179 73.304 23.1232C73.5705 23.3175 73.9003 23.4046 74.228 23.3672C74.5245 23.3647 74.8205 23.3423 75.114 23.3002C75.1173 23.3012 75.1207 23.3012 75.124 23.3002C75.4733 23.2514 75.8277 23.3419 76.1108 23.5522C76.3939 23.7625 76.5829 24.0757 76.637 24.4242L76.956 26.5192C77.0042 26.8236 76.9453 27.1354 76.7891 27.4011C76.633 27.6669 76.3894 27.8702 76.1 27.9762C75.713 28.1132 75.285 28.2422 74.813 28.3632C73.7883 28.6123 72.7365 28.7326 71.682 28.7212Z" fill="#821A4D"/>
<path d="M113.217 27.0484L112.299 23.4644C112.292 23.4317 112.281 23.3999 112.267 23.3694C112.194 23.2269 112.068 23.119 111.916 23.0694C111.894 23.0614 111.868 23.0554 111.843 23.0474C111.672 23.0193 111.497 23.0193 111.326 23.0474C111.241 23.0694 111.15 23.0914 111.06 23.1144C111.05 23.1144 111.038 23.1144 111.028 23.1224C110.802 23.1724 110.556 23.2224 110.293 23.2674C109.897 23.3343 109.495 23.3677 109.093 23.3674C108.165 23.3574 107.7 22.9174 107.699 22.0474V14.5084C107.699 14.419 107.716 14.3305 107.75 14.2478C107.784 14.1652 107.834 14.0901 107.898 14.0269C107.961 13.9638 108.036 13.9137 108.118 13.8796C108.201 13.8455 108.29 13.8281 108.379 13.8284H110.887C111.049 13.8288 111.205 13.7715 111.328 13.6668C111.451 13.5621 111.533 13.417 111.559 13.2574L112.189 9.37637C112.205 9.27906 112.199 9.17949 112.173 9.08453C112.146 8.98958 112.099 8.9015 112.035 8.82645C111.972 8.75139 111.892 8.69115 111.803 8.64987C111.713 8.60859 111.616 8.58726 111.517 8.58737H108.384C108.295 8.58777 108.207 8.57059 108.124 8.5368C108.042 8.50302 107.967 8.4533 107.904 8.3905C107.841 8.3277 107.79 8.25305 107.756 8.17084C107.722 8.08862 107.704 8.00045 107.704 7.91138V4.21136C107.704 4.10953 107.681 4.00899 107.637 3.91714C107.593 3.8253 107.529 3.74448 107.45 3.6806C107.37 3.61673 107.278 3.57144 107.179 3.54803C107.08 3.52463 106.976 3.52373 106.877 3.54538L105.012 3.95938C104.036 4.17358 103.146 4.67482 102.457 5.39868C101.768 6.12254 101.312 7.0359 101.146 8.02136C101.118 8.17931 101.036 8.32239 100.913 8.42538C100.79 8.52838 100.634 8.58469 100.474 8.58438H98.504C98.3237 8.58438 98.1507 8.65601 98.0232 8.78354C97.8956 8.91106 97.824 9.08403 97.824 9.26437V13.1444C97.8237 13.2338 97.8411 13.3223 97.8752 13.4049C97.9093 13.4875 97.9594 13.5626 98.0226 13.6258C98.0858 13.689 98.1608 13.7391 98.2434 13.7732C98.3261 13.8072 98.4146 13.8246 98.504 13.8244H100.197C100.286 13.8241 100.375 13.8415 100.458 13.8756C100.54 13.9097 100.615 13.9598 100.678 14.0229C100.742 14.0861 100.792 14.1612 100.826 14.2438C100.86 14.3265 100.877 14.415 100.877 14.5044V23.0984C100.877 25.1204 101.468 26.5624 102.651 27.4244C104.069 28.3529 105.746 28.8055 107.438 28.7164C108.584 28.7365 109.729 28.6261 110.85 28.3874C111.534 28.2224 112.17 28.0504 112.763 27.8644C112.929 27.812 113.068 27.6984 113.152 27.5466C113.237 27.3949 113.26 27.2166 113.217 27.0484Z" fill="#821A4D"/>
<path d="M126.905 8.17239H126.869C125.703 8.14803 124.553 8.44558 123.545 9.03238C123.042 9.31936 122.582 9.67513 122.177 10.0894C122.108 10.16 122.025 10.2145 121.933 10.2493C121.841 10.284 121.743 10.298 121.644 10.2903C121.546 10.2825 121.451 10.2532 121.366 10.2045C121.28 10.1558 121.207 10.0888 121.15 10.0084C121.132 9.97639 121.114 9.94606 121.096 9.91739C120.726 9.3014 120.306 8.71678 119.841 8.1694C119.793 8.1194 119.768 8.08838 119.768 8.08838L114.073 9.9064L114.414 10.2474C114.436 10.2734 114.458 10.2974 114.481 10.3284C114.606 10.5004 114.781 10.7384 115.018 11.0384C115.471 11.7922 115.808 12.6101 116.018 13.4644C116.397 15.0011 116.565 16.5823 116.518 18.1644V27.8974C116.518 27.9857 116.535 28.0731 116.569 28.1547C116.603 28.2363 116.652 28.3104 116.715 28.3729C116.777 28.4353 116.851 28.4848 116.933 28.5185C117.014 28.5522 117.102 28.5695 117.19 28.5694H122.705C122.793 28.5697 122.881 28.5524 122.962 28.5188C123.044 28.4851 123.118 28.4356 123.181 28.3732C123.243 28.3107 123.293 28.2365 123.326 28.1549C123.36 28.0732 123.377 27.9857 123.377 27.8974V18.3524C123.344 17.6228 123.507 16.8977 123.849 16.2524C124.102 15.7821 124.473 15.3853 124.925 15.1004C125.241 14.8967 125.603 14.7773 125.978 14.7534C126.432 14.75 126.882 14.842 127.298 15.0234C127.385 15.0657 127.48 15.0884 127.577 15.0899C127.674 15.0915 127.77 15.0718 127.858 15.0324C127.947 14.9929 128.026 14.9346 128.089 14.8616C128.153 14.7885 128.199 14.7024 128.226 14.6094L129.154 11.2014C129.252 10.8507 129.269 10.4823 129.202 10.1243C129.136 9.76633 128.989 9.42821 128.772 9.13589C128.555 8.84357 128.274 8.60478 127.95 8.43777C127.626 8.27077 127.269 8.18 126.905 8.17239Z" fill="#821A4D"/>
<path d="M146.301 22.802C146.243 22.6831 146.148 22.5869 146.029 22.5288C145.911 22.4706 145.776 22.4538 145.647 22.481C145.391 22.5545 145.14 22.642 144.894 22.743C144.291 22.943 143.574 23.143 142.743 23.343C141.985 23.5348 141.206 23.6355 140.424 23.643C139.727 23.6928 139.038 23.4681 138.505 23.017C138.382 22.904 138.267 22.782 138.162 22.652C138.096 22.5649 138.054 22.4619 138.04 22.3534C138.026 22.2449 138.041 22.1347 138.084 22.0338C138.126 21.933 138.194 21.8451 138.281 21.7789C138.368 21.7128 138.471 21.6707 138.58 21.657C140.829 21.4166 142.98 20.6075 144.83 19.306C145.674 18.7585 146.369 18.0108 146.854 17.1295C147.339 16.2483 147.598 15.2608 147.609 14.255C147.659 12.6137 147.06 11.0189 145.942 9.81603C144.83 8.62736 143.005 8.03335 140.467 8.03402C138.668 8.01166 136.893 8.44989 135.311 9.30703C133.752 10.1622 132.475 11.4522 131.636 13.02C130.681 14.8806 130.217 16.9539 130.286 19.044C130.254 20.7946 130.571 22.5341 131.218 24.161C131.811 25.6138 132.857 26.8371 134.199 27.65C135.806 28.5445 137.629 28.9775 139.466 28.901C140.768 28.9124 142.067 28.7612 143.332 28.451C144.298 28.2171 145.249 27.9212 146.177 27.565L147.063 27.206L147.527 26.998L146.327 22.851C146.317 22.8352 146.309 22.8188 146.301 22.802ZM137.438 16.318C137.486 16.052 137.545 15.763 137.624 15.448C137.756 14.8489 138.02 14.2865 138.395 13.801C138.543 13.6035 138.735 13.4434 138.956 13.3333C139.177 13.2233 139.421 13.1663 139.668 13.167C139.826 13.166 139.982 13.1986 140.126 13.2627C140.27 13.3268 140.399 13.4209 140.504 13.5387C140.609 13.6565 140.688 13.7953 140.735 13.9459C140.782 14.0965 140.796 14.2554 140.777 14.412C140.712 15.0666 140.407 15.6739 139.921 16.117C139.452 16.6014 138.843 16.9255 138.179 17.043C138.079 17.062 137.976 17.0565 137.879 17.0271C137.781 16.9977 137.693 16.9452 137.62 16.8741C137.547 16.803 137.493 16.7154 137.461 16.6188C137.43 16.5221 137.422 16.4193 137.439 16.319L137.438 16.318Z" fill="#821A4D"/>
<path d="M95.0218 22.7688C94.9643 22.6499 94.8687 22.5537 94.7501 22.4956C94.6316 22.4374 94.497 22.4206 94.3678 22.4478C94.1122 22.5213 93.8608 22.6088 93.6148 22.7098C93.0115 22.9098 92.2945 23.1098 91.4638 23.3098C90.7055 23.5016 89.927 23.6023 89.1448 23.6098C88.4479 23.6596 87.7593 23.4349 87.2258 22.9838C87.1026 22.8708 86.9879 22.7488 86.8828 22.6188C86.8166 22.5317 86.7746 22.4287 86.7608 22.3202C86.7471 22.2117 86.7621 22.1015 86.8045 22.0006C86.8469 21.8998 86.915 21.8119 87.0021 21.7457C87.0893 21.6796 87.1923 21.6375 87.3008 21.6238C89.5499 21.3834 91.7008 20.5743 93.5508 19.2728C94.3945 18.7253 95.0898 17.9776 95.5747 17.0963C96.0595 16.2151 96.3189 15.2276 96.3298 14.2218C96.3795 12.5805 95.7806 10.9857 94.6628 9.78283C93.5508 8.59416 91.7258 8.00015 89.1878 8.00081C87.3887 7.97845 85.6138 8.41669 84.0318 9.27382C82.4727 10.129 81.1959 11.419 80.3568 12.9868C79.402 14.8474 78.9374 16.9207 79.0068 19.0108C78.9747 20.7614 79.2915 22.5009 79.9388 24.1278C80.5322 25.5806 81.5774 26.8039 82.9198 27.6168C84.5266 28.5113 86.3494 28.9443 88.1868 28.8678C89.4892 28.8792 90.7879 28.728 92.0528 28.4178C93.0192 28.1839 93.9695 27.888 94.8978 27.5318L95.7838 27.1728L96.2478 26.9648L95.0478 22.8178C95.0383 22.802 95.0296 22.7856 95.0218 22.7688ZM86.1588 16.2848C86.2068 16.0188 86.2658 15.7298 86.3448 15.4148C86.4773 14.8157 86.7406 14.2533 87.1158 13.7678C87.264 13.5703 87.4562 13.4102 87.6773 13.3001C87.8983 13.1901 88.1419 13.1331 88.3888 13.1338C88.5466 13.1328 88.7028 13.1654 88.8469 13.2295C88.9911 13.2936 89.12 13.3877 89.2249 13.5055C89.3299 13.6233 89.4085 13.7621 89.4555 13.9127C89.5026 14.0633 89.517 14.2222 89.4978 14.3788C89.4328 15.0334 89.1279 15.6407 88.6418 16.0838C88.1731 16.5682 87.5635 16.8923 86.8998 17.0098C86.7999 17.0288 86.6969 17.0233 86.5996 16.9939C86.5023 16.9645 86.4136 16.912 86.3409 16.8409C86.2682 16.7698 86.2138 16.6822 86.1823 16.5856C86.1507 16.4889 86.143 16.3861 86.1598 16.2858L86.1588 16.2848Z" fill="#821A4D"/>
<path fill-rule="evenodd" clip-rule="evenodd" d="M12.949 7.5083C12.949 7.5083 16.844 11.9983 16.805 15.5473C16.766 19.0963 13.157 20.9783 13.157 20.9783C13.157 20.9783 9.49 19.2143 9.343 15.6673C9.196 12.1203 12.949 7.51331 12.949 7.51331" fill="#9B4871"/>
<path fill-rule="evenodd" clip-rule="evenodd" d="M10.661 28.2825C10.629 28.2645 10.592 28.2465 10.554 28.2285L10.654 28.2545L10.661 28.2825Z" fill="#89B129"/>
<path fill-rule="evenodd" clip-rule="evenodd" d="M11.678 28.2781V28.5261L10.655 28.2521L10.555 28.2261C9.73333 27.9325 8.87024 27.7711 7.99799 27.7481C7.00729 27.8086 6.01935 27.5918 5.14499 27.1221C2.02499 25.4221 -0.00100708 19.8371 -0.00100708 19.8371C-0.00100708 19.8371 5.85099 18.8061 8.87799 20.6601C11.905 22.5141 11.657 26.5771 11.657 26.5771L11.671 27.7842L11.678 28.2781Z" fill="#821A4D"/>
<path fill-rule="evenodd" clip-rule="evenodd" d="M14.103 28.1941V28.4421L15.126 28.1681L15.226 28.1421C16.0477 27.8485 16.9107 27.6871 17.783 27.6641C18.7737 27.7246 19.7616 27.5079 20.636 27.0381C23.756 25.3381 25.782 19.7531 25.782 19.7531C25.782 19.7531 19.93 18.7221 16.903 20.5761C13.876 22.4301 14.124 26.4931 14.124 26.4931L14.11 27.7001L14.103 28.1941Z" fill="#821A4D"/>
<path d="M5.07597 36.5815H5.67598L6.15398 39.0666C6.24198 39.5566 6.332 40.0455 6.42 40.5385H6.44698C6.54698 40.0485 6.65898 39.5566 6.76698 39.0666L7.39897 36.5815H7.92497L8.55699 39.0666C8.66599 39.5506 8.77797 40.0455 8.88597 40.5385H8.91298C9.00098 40.0455 9.082 39.5536 9.17 39.0666L9.64799 36.5815H10.207L9.26399 41.1425H8.56398L7.87498 38.4016C7.79598 38.0446 7.72398 37.7155 7.65398 37.3615H7.62697C7.55697 37.7125 7.47599 38.0446 7.39699 38.4016L6.71999 41.1425H6.036L5.07597 36.5815Z" fill="#821A4D"/>
<path d="M14.268 36.5815H14.848V38.4915H16.97V36.5815H17.55V41.1425H16.97V38.9966H14.848V41.1425H14.268V36.5815Z" fill="#821A4D"/>
<path d="M22.06 36.5815H24.69V37.0716H22.64V38.5016H24.369V38.9915H22.64V40.6505H24.759V41.1406H22.059L22.06 36.5815Z" fill="#821A4D"/>
<path d="M28.984 36.5815H30.414C31.342 36.5815 32.014 36.9145 32.014 37.8665C32.014 38.7765 31.346 39.2176 30.414 39.2176H29.565V41.1455H28.985L28.984 36.5815ZM30.329 38.7426C31.039 38.7426 31.429 38.4555 31.429 37.8625C31.429 37.2695 31.039 37.0496 30.329 37.0496H29.564V38.7426H30.329ZM30.299 39.0565L30.752 38.7566L32.142 41.1446H31.483L30.299 39.0565Z" fill="#821A4D"/>
<path d="M36.199 36.5815H38.829V37.0716H36.779V38.5016H38.508V38.9915H36.779V40.6505H38.898V41.1406H36.198L36.199 36.5815Z" fill="#821A4D"/>
<path d="M47.443 40.5494L47.791 40.1494C47.9525 40.3223 48.1469 40.4613 48.3627 40.5583C48.5785 40.6553 48.8115 40.7083 49.048 40.7144C49.648 40.7144 50 40.4144 50 39.9734C50 39.5084 49.67 39.3594 49.238 39.1734L48.582 38.8834C48.2762 38.8051 48.0125 38.6115 47.8463 38.3431C47.68 38.0748 47.6241 37.7525 47.6901 37.4438C47.7562 37.1352 47.9391 36.864 48.2006 36.6872C48.4621 36.5104 48.7819 36.4416 49.093 36.4954C49.3431 36.4953 49.5906 36.5452 49.8211 36.6423C50.0515 36.7393 50.2603 36.8815 50.435 37.0604L50.127 37.4324C49.9909 37.296 49.8293 37.1879 49.6513 37.1143C49.4734 37.0407 49.2826 37.003 49.09 37.0034C48.579 37.0034 48.241 37.2604 48.241 37.6684C48.241 38.1064 48.641 38.2684 48.997 38.4244L49.647 38.7054C49.916 38.7774 50.1538 38.936 50.3237 39.1567C50.4936 39.3774 50.5861 39.6479 50.587 39.9264C50.5773 40.1163 50.5286 40.3023 50.4437 40.4725C50.3589 40.6428 50.2398 40.7937 50.0939 40.9157C49.948 41.0378 49.7784 41.1284 49.5959 41.1818C49.4133 41.2353 49.2217 41.2505 49.033 41.2264C48.7357 41.2286 48.4411 41.1697 48.1676 41.0532C47.894 40.9368 47.6474 40.7653 47.443 40.5494Z" fill="#821A4D"/>
<path d="M54.748 36.5815H55.328V38.4915H57.45V36.5815H58.03V41.1425H57.45V38.9966H55.328V41.1425H54.748V36.5815Z" fill="#821A4D"/>
<path d="M62.275 38.8446C62.275 37.3846 63.075 36.4966 64.225 36.4966C65.375 36.4966 66.174 37.3856 66.174 38.8446C66.174 40.3036 65.374 41.2266 64.225 41.2266C63.076 41.2266 62.275 40.3046 62.275 38.8446ZM65.575 38.8446C65.575 37.7086 65.04 37.0066 64.224 37.0066C63.408 37.0066 62.873 37.7066 62.873 38.8446C62.873 39.9826 63.408 40.7156 64.224 40.7156C65.04 40.7156 65.575 39.9866 65.575 38.8446Z" fill="#821A4D"/>
<path d="M70.417 36.5815H71.7169C72.7389 36.5815 73.428 36.9266 73.428 37.9236C73.428 38.8846 72.742 39.3326 71.744 39.3326H70.994V41.1425H70.414L70.417 36.5815ZM71.674 38.8636C72.474 38.8636 72.853 38.5735 72.853 37.9265C72.853 37.2795 72.448 37.0526 71.647 37.0526H70.997V38.8625L71.674 38.8636Z" fill="#821A4D"/>
<path d="M77.611 36.5815H78.911C79.933 36.5815 80.622 36.9266 80.622 37.9236C80.622 38.8846 79.936 39.3326 78.938 39.3326H78.188V41.1425H77.608L77.611 36.5815ZM78.868 38.8636C79.668 38.8636 80.047 38.5735 80.047 37.9265C80.047 37.2795 79.642 37.0526 78.841 37.0526H78.191V38.8625L78.868 38.8636Z" fill="#821A4D"/>
<path d="M84.808 36.5815H85.388V41.1425H84.808V36.5815Z" fill="#821A4D"/>
<path d="M89.898 36.5815H90.498L92.148 39.4496L92.641 40.3925H92.668C92.638 39.9335 92.595 39.4196 92.595 38.9416V36.5815H93.145V41.1425H92.545L90.894 38.2715L90.401 37.3286H90.374C90.404 37.7916 90.45 38.2776 90.45 38.7526V41.1406H89.9V36.5815H89.898Z" fill="#821A4D"/>
<path d="M97.391 38.8662C97.3557 38.5697 97.3835 38.2692 97.4726 37.9843C97.5617 37.6994 97.7101 37.4366 97.9079 37.213C98.1058 36.9895 98.3486 36.8104 98.6206 36.6873C98.8925 36.5643 99.1875 36.5002 99.486 36.4992C99.7322 36.4962 99.9764 36.5447 100.203 36.6414C100.429 36.7382 100.633 36.8812 100.801 37.0612L100.484 37.4392C100.361 37.3011 100.209 37.1914 100.04 37.1173C99.8704 37.0433 99.6869 37.0067 99.502 37.0101C98.583 37.0101 97.994 37.7172 97.994 38.8542C97.994 39.9912 98.535 40.7192 99.508 40.7192C99.8053 40.7307 100.097 40.6352 100.33 40.4501V39.2622H99.363V38.7791H100.863V40.6951C100.675 40.8721 100.454 41.01 100.213 41.1009C99.9717 41.1917 99.7147 41.2336 99.457 41.2242C99.1602 41.224 98.8669 41.1605 98.5966 41.0379C98.3264 40.9153 98.0854 40.7364 97.8898 40.5132C97.6942 40.2899 97.5486 40.0276 97.4626 39.7435C97.3765 39.4595 97.3521 39.1604 97.391 38.8662Z" fill="#821A4D"/>
<path d="M109.856 36.5815H111.21C112.138 36.5815 112.779 36.8956 112.779 37.6996C112.789 37.9146 112.73 38.1273 112.609 38.3058C112.489 38.4844 112.314 38.6193 112.111 38.6906V38.7176C112.375 38.7493 112.617 38.8792 112.789 39.0815C112.961 39.2837 113.05 39.5433 113.039 39.8086C113.039 40.7036 112.329 41.1446 111.313 41.1446H109.856V36.5815ZM111.11 38.5215C111.887 38.5215 112.21 38.2345 112.21 37.7715C112.21 37.2395 111.844 37.0406 111.14 37.0406H110.44V38.5215H111.11ZM111.231 40.6826C112.011 40.6826 112.47 40.4016 112.47 39.7876C112.47 39.2256 112.029 38.9686 111.231 38.9686H110.436V40.6826H111.231Z" fill="#821A4D"/>
<path d="M117.203 36.5815H119.833V37.0716H117.783V38.5016H119.512V38.9915H117.783V40.6505H119.902V41.1406H117.202L117.203 36.5815Z" fill="#821A4D"/>
<path d="M123.862 38.8662C123.827 38.5697 123.855 38.2692 123.944 37.9843C124.033 37.6994 124.181 37.4366 124.379 37.213C124.577 36.9895 124.82 36.8104 125.092 36.6873C125.364 36.5643 125.658 36.5002 125.957 36.4992C126.203 36.4962 126.447 36.5447 126.674 36.6414C126.9 36.7382 127.104 36.8812 127.272 37.0612L126.955 37.4392C126.832 37.3011 126.68 37.1914 126.511 37.1173C126.341 37.0433 126.158 37.0067 125.973 37.0101C125.054 37.0101 124.465 37.7172 124.465 38.8542C124.465 39.9912 125.006 40.7192 125.979 40.7192C126.276 40.7308 126.568 40.6353 126.801 40.4501V39.2622H125.834V38.7791H127.334V40.6951C127.146 40.8722 126.925 41.0101 126.684 41.101C126.443 41.1918 126.186 41.2337 125.928 41.2242C125.631 41.224 125.338 41.1605 125.068 41.0379C124.797 40.9153 124.556 40.7364 124.361 40.5132C124.165 40.2899 124.02 40.0276 123.934 39.7435C123.848 39.4595 123.823 39.1604 123.862 38.8662Z" fill="#821A4D"/>
<path d="M131.675 36.5815H132.255V41.1425H131.675V36.5815Z" fill="#821A4D"/>
<path d="M136.765 36.5815H137.365L139.015 39.4496L139.508 40.3925H139.535C139.505 39.9335 139.462 39.4196 139.462 38.9416V36.5815H140.012V41.1425H139.412L137.762 38.2715L137.269 37.3286H137.242C137.272 37.7916 137.317 38.2776 137.317 38.7526V41.1406H136.767V36.5815H136.765Z" fill="#821A4D"/>
<path d="M144.192 40.5494L144.54 40.1494C144.701 40.3225 144.896 40.4617 145.111 40.5587C145.327 40.6557 145.56 40.7086 145.797 40.7144C146.397 40.7144 146.752 40.4144 146.752 39.9734C146.752 39.5084 146.422 39.3594 145.99 39.1734L145.334 38.8834C145.028 38.8051 144.765 38.6115 144.598 38.3431C144.432 38.0748 144.376 37.7525 144.442 37.4438C144.508 37.1352 144.691 36.864 144.953 36.6872C145.214 36.5104 145.534 36.4416 145.845 36.4954C146.095 36.4953 146.343 36.5452 146.573 36.6423C146.804 36.7393 147.012 36.8815 147.187 37.0604L146.878 37.4324C146.742 37.296 146.58 37.1879 146.402 37.1143C146.224 37.0407 146.034 37.003 145.841 37.0034C145.33 37.0034 144.992 37.2604 144.992 37.6684C144.992 38.1064 145.392 38.2684 145.748 38.4244L146.398 38.7054C146.667 38.7774 146.905 38.936 147.075 39.1567C147.245 39.3774 147.337 39.6479 147.338 39.9264C147.328 40.1163 147.28 40.3023 147.195 40.4725C147.11 40.6428 146.991 40.7937 146.845 40.9157C146.699 41.0378 146.529 41.1284 146.347 41.1818C146.164 41.2353 145.973 41.2505 145.784 41.2264C145.486 41.2291 145.191 41.1703 144.917 41.0539C144.643 40.9374 144.397 40.7656 144.192 40.5494Z" fill="#821A4D"/>
</g>
<defs>
<clipPath id="clip0_370_962">
<rect width="149.608" height="41.227" fill="white"/>
</clipPath>
</defs>
</svg>


