<?xml version="1.0" encoding="UTF-8"?>
<svg id="Layer_1" xmlns="http://www.w3.org/2000/svg" viewBox="0 0 111.6 112.1">
  <defs>
    <style>
      .cls-1 {
        fill: #a91d3a;
      }
    </style>
  </defs>
  <path class="cls-1" d="M97.3.1H14.3C6.4.1,0,6.5,0,14.4v83c0,.9,0,1.7.2,2.6l8.4-8.4L74.4,25.8l13,13L14.6,111.6h82.7c7.9,0,14.3-6.4,14.3-14.3V14.3c0-7.9-6.4-14.3-14.3-14.3M26.9,55.5c-7.2-7.2-7.2-18.9,0-26l12.6-12.6c3.6-3.6,8.3-5.4,13-5.4s9.4,1.8,13,5.4L26.9,55.5ZM95.2,72.7l-12.6,12.6c-3.6,3.6-8.3,5.4-13,5.4s-9.4-1.8-13-5.4l38.6-38.6c7.2,7.2,7.2,18.8,0,26"/>
</svg>