<?xml version="1.0" encoding="UTF-8"?>
<svg id="Layer_1" xmlns="http://www.w3.org/2000/svg" viewBox="0 0 280.7 96">
  <defs>
    <style>
      .cls-1 {
        fill: #a91d3a;
      }
    </style>
  </defs>
  <path class="cls-1" d="M55.35,65.45h-17.4l-2.7,8h-14.3l17.8-49h15.7l17.8,49h-14.4l-2.7-8h.2ZM51.95,54.95l-5.2-15.8-5.2,15.8h10.5-.1Z"/>
  <rect class="cls-1" x="77.35" y="22.05" width="13.7" height="51.4"/>
  <rect class="cls-1" x="95.95" y="22.05" width="13.7" height="51.4"/>
  <path class="cls-1" d="M153.65,56.75h-25.7c.1,2.1.7,3.7,1.8,4.8s2.3,1.6,3.9,1.6,3.8-1.1,4.9-3.1h14.5c-.6,2.7-1.8,5.1-3.5,7.1-1.7,2.1-3.9,3.7-6.6,5-2.7,1.2-5.5,1.8-8.7,1.8s-7.3-.9-10.2-2.5-5.3-3.9-7-6.9-2.6-6.5-2.6-10.7.9-7.6,2.5-10.6c1.7-3,3.9-5.3,6.9-6.9s6.4-2.5,10.3-2.5,7.3.7,10.2,2.3c2.9,1.6,5.2,3.8,6.9,6.7,1.7,3,2.5,6.4,2.5,10.3s0,2.1-.2,3.2M139.95,50.05c0-1.7-.5-3-1.7-3.9-1.1-1-2.5-1.4-4.2-1.4s-3,.4-4.1,1.4c-1.1.9-1.7,2.2-2.1,3.9h12.1Z"/>
  <path class="cls-1" d="M184.35,61.85v11.6h-5.9c-9.9,0-14.9-4.9-14.9-14.8v-12.8h-4.8v-11.3h4.8v-9.5h13.7v9.5h7v11.3h-7v13c0,1.1.2,1.8.7,2.2s1.3.7,2.5.7h3.9v.1Z"/>
  <path class="cls-1" d="M208.45,36.15c2.1-1.3,4.5-1.9,7-1.9v14.5h-3.8c-3,0-5.1.5-6.6,1.7-1.4,1.2-2.1,3.2-2.1,6.1v17h-13.7v-38.9h13.7v6.8c1.5-2.2,3.4-3.9,5.5-5.2"/>
  <path class="cls-1" d="M259.65,56.75h-25.7c.1,2.1.7,3.7,1.8,4.8s2.3,1.6,3.9,1.6,3.8-1.1,4.9-3.1h14.5c-.6,2.7-1.8,5.1-3.5,7.1-1.7,2.1-3.9,3.7-6.6,5-2.7,1.2-5.5,1.8-8.7,1.8s-7.3-.9-10.2-2.5-5.3-3.9-7-6.9-2.6-6.5-2.6-10.7.9-7.6,2.5-10.6c1.7-3,3.9-5.3,6.9-6.9s6.4-2.5,10.3-2.5,7.3.7,10.2,2.3c2.9,1.6,5.2,3.8,6.9,6.7,1.7,3,2.5,6.4,2.5,10.3s0,2.1-.2,3.2M246.05,50.05c0-1.7-.5-3-1.7-3.9-1.1-1-2.5-1.4-4.2-1.4s-3,.4-4.1,1.4c-1.1.9-1.7,2.2-2.1,3.9h12.1Z"/>
</svg>